<?xml version="1.0" encoding="UTF-8" standalone="no"?>
<!-- Created with Inkscape (http://www.inkscape.org/) -->

<svg
   xmlns:dc="http://purl.org/dc/elements/1.1/"
   xmlns:cc="http://creativecommons.org/ns#"
   xmlns:rdf="http://www.w3.org/1999/02/22-rdf-syntax-ns#"
   xmlns:svg="http://www.w3.org/2000/svg"
   xmlns="http://www.w3.org/2000/svg"
   xmlns:sodipodi="http://sodipodi.sourceforge.net/DTD/sodipodi-0.dtd"
   xmlns:inkscape="http://www.inkscape.org/namespaces/inkscape"
   width="210mm"
   height="297mm"
   viewBox="0 0 210 297"
   version="1.1"
   id="svg8"
   inkscape:version="0.92.5 (2060ec1f9f, 2020-04-08)"
   sodipodi:docname="icon-drummer.svg">
  <defs
     id="defs2" />
  <sodipodi:namedview
     id="base"
     pagecolor="#ffffff"
     bordercolor="#666666"
     borderopacity="1.0"
     inkscape:pageopacity="0.0"
     inkscape:pageshadow="2"
     inkscape:zoom="0.35"
     inkscape:cx="299.14014"
     inkscape:cy="706.54841"
     inkscape:document-units="mm"
     inkscape:current-layer="g917"
     showgrid="false"
     inkscape:window-width="1920"
     inkscape:window-height="1001"
     inkscape:window-x="-9"
     inkscape:window-y="-9"
     inkscape:window-maximized="1" />
  <metadata
     id="metadata5">
    <rdf:RDF>
      <cc:Work
         rdf:about="">
        <dc:format>image/svg+xml</dc:format>
        <dc:type
           rdf:resource="http://purl.org/dc/dcmitype/StillImage" />
        <dc:title />
      </cc:Work>
    </rdf:RDF>
  </metadata>
  <g
     inkscape:label="Layer 1"
     inkscape:groupmode="layer"
     id="layer1">
    <g
       id="g917"
       transform="matrix(0.26458333,0,0,0.26458333,97.97376,94.050656)">
      <g
         id="g1019"
         transform="matrix(6.6946503,0,0,6.7076288,189.1687,1342.9245)">
        <g
           transform="translate(-80.812205,-252.53814)"
           id="Group_30"
           data-name="Group 30">
          <g
             id="Component_3_6"
             data-name="Component 3 – 6">
            <g
               id="Group_78"
               data-name="Group 78">
              <g
                 id="Group_79"
                 data-name="Group 79">
                <g
                   style="fill:#23dace"
                   id="Path_36"
                   data-name="Path 36">
                  <path
                     style="stroke:#000000;stroke-width:2.98456844;stroke-miterlimit:4;stroke-dasharray:none;stroke-opacity:1"
                     inkscape:connector-curvature="0"
                     d="m 57,112.3308 c -7.493385,0 -14.761814,-1.46508 -21.603386,-4.35451 -3.288322,-1.38879 -6.46003,-3.10778 -9.426998,-5.10926 -2.939138,-1.98269 -5.703001,-4.259707 -8.21483,-6.767817 C 15.243,93.591148 12.962631,90.831444 10.977061,87.896767 8.9727383,84.93438 7.251277,81.767601 5.8605385,78.484383 2.9670923,71.653656 1.5,64.396812 1.5,56.915398 1.5,49.433983 2.9670923,42.177135 5.8605385,35.346413 7.251277,32.063198 8.9727383,28.896414 10.977061,25.934029 c 1.98557,-2.934677 4.265939,-5.694386 6.777725,-8.202446 2.511829,-2.508108 5.275692,-4.785124 8.21483,-6.767816 C 28.936584,8.9622898 32.108292,7.2432899 35.396614,5.8545055 42.238186,2.9650745 49.506615,1.4999976 57,1.4999976 c 7.493385,0 14.761818,1.4650769 21.603386,4.3545079 3.288322,1.3887844 6.46003,3.1077843 9.427002,5.1092615 2.939133,1.982692 5.702995,4.259708 8.214828,6.767816 2.511788,2.50806 4.792154,5.267769 6.777724,8.202446 2.00432,2.962385 3.72579,6.129169 5.11653,9.412384 2.89344,6.830722 4.36053,14.08757 4.36053,21.568985 0,7.481414 -1.46709,14.738258 -4.36053,21.568985 -1.39074,3.283218 -3.11221,6.449997 -5.11653,9.412384 -1.98557,2.934677 -4.265936,5.694381 -6.777724,8.202446 -2.511833,2.50811 -5.275695,4.785127 -8.214828,6.767817 -2.966972,2.00148 -6.13868,3.72047 -9.427002,5.10926 C 71.761818,110.86572 64.493385,112.3308 57,112.3308 Z"
                     id="path854" />
                </g>
              </g>
            </g>
          </g>
        </g>
        <g
           style="fill:#fbee0a"
           id="Path_53"
           data-name="Path 53"
           transform="translate(-75.812205,-211.53814)">
          <path
             sodipodi:nodetypes="ccccscccsccscccsccccscccc"
             style="fill:#fbee0a;fill-opacity:1;stroke:#000000;stroke-width:3.77952766;stroke-miterlimit:4;stroke-dasharray:none;stroke-opacity:1"
             inkscape:connector-curvature="0"
             d="m 42.774628,60.115734 c -3.262001,0 -7.526413,-0.819076 -12.007668,-2.306373 C 26.041348,56.240974 21.332493,54.039631 17.149481,51.44331 12.610494,48.626057 8.8467598,45.418243 6.2651734,42.166668 3.4350133,38.602016 2,35.013229 2,31.500002 2,28.253429 3.5857601,25.787029 5.7805333,22.373415 L 5.9312534,22.138962 C 8.3234663,18.410482 12.23972,13.262989 17.316093,9.9070158 c 2.655014,-1.7560663 5.351813,-3.1504135 8.244868,-4.26296 2.976372,-1.144587 6.178173,-1.9990935 9.788374,-2.6123335 0.294826,-0.050227 0.59684,-0.1027732 0.90612,-0.1565866 C 38.612881,2.4649358 41.284866,2.0000024 44,2.0000024 c 5.336422,0 15.148293,2.1094298 16.725552,2.4563765 1.163948,0.5655356 7.669597,3.8433905 13.991047,9.3879431 3.06887,2.691174 5.867843,5.840481 7.881439,8.86792 C 84.823624,26.058376 86,29.097136 86,31.500002 c 0,1.53248 -0.559479,3.454573 -1.66288,5.712892 -0.940147,1.92416 -2.262268,4.059002 -3.929611,6.345215 -2.482918,3.404465 -4.110744,5.867279 -4.786602,6.584492 -1.348922,0.804416 -8.420372,4.967788 -12.860904,6.534664 C 56.704483,58.815147 50.134308,60.078682 44,60.078682 H 43.93722 44 c -0.349785,0.02199 -0.845298,0.03702 -1.225375,0.03702 z"
             id="path863" />
        </g>
        <path
           style="fill:none;stroke:#000000;stroke-width:3"
           inkscape:connector-curvature="0"
           id="Path_44"
           data-name="Path 44"
           d="m -20.902205,-229.96714 -18.887,43.551" />
        <g
           style="fill:#23dace"
           id="Path_46"
           data-name="Path 46"
           transform="translate(-48.812205,-187.53814)">
          <path
             sodipodi:nodetypes="sccscscscs"
             style="stroke:#000000;stroke-width:2.45669293;stroke-miterlimit:4;stroke-dasharray:none;stroke-opacity:1"
             inkscape:connector-curvature="0"
             d="M 7,12.5 C 6.6647201,12.5 5.6855998,12.34521 3.83954,10.91141 3.0283122,10.281343 2.3584952,9.6395931 2.0380068,9.3201265 1.7978184,8.6420965 1.5,7.6030064 1.5,7 1.5,6.3000698 2.1425257,4.7105865 2.6467755,3.6892316 3.7741954,2.7745202 5.7823361,1.6781375 7,1.5 8.740132,1.2454284 10.893674,2.8553313 11.764606,4.3026423 12.08675,5.0732899 12.5,6.2960649 12.5,7 12.5,7.8417621 11.614505,9.666254 10.932922,10.800092 9.8844519,11.517025 8.0781126,12.5 7,12.5 Z"
             id="path869" />
        </g>
        <path
           style="fill:none;stroke:#000000;stroke-width:2.99883866"
           inkscape:connector-curvature="0"
           id="Path_45"
           data-name="Path 45"
           d="m -34.283615,-222.74527 14.603396,50.07284" />
        <g
           style="fill:#23dace"
           id="Path_47"
           data-name="Path 47"
           transform="translate(-24.812205,-173.53814)">
          <path
             sodipodi:nodetypes="cccsccccccsccc"
             style="stroke:#000000;stroke-width:2.45669293;stroke-miterlimit:4;stroke-dasharray:none;stroke-opacity:1"
             inkscape:connector-curvature="0"
             d="M 7.0124073,12.499944 C 6.6159158,12.45997 5.3431125,11.844911 4.278852,11.182874 L 1.8807684,8.9426937 C 1.7033033,8.3472891 1.5,7.5027204 1.5,7 1.5,6.2772198 1.73411,5.3947101 2.1958301,4.3769798 l 0.0011,-0.00242 C 2.246063,4.276123 2.4193332,3.9952724 2.5833216,3.7410865 3.2200578,2.2958696 5.4707214,1.2053937 6.9940963,1.5000108 7.3304071,1.5148842 8.5728769,1.8283529 9.6258116,2.1359534 L 11.581723,3.9968336 C 11.974949,4.8292007 12.5,6.2082267 12.5,7 V 9.1648188 L 10.090818,11.660862 C 9.1027813,12.038877 7.6600237,12.49414 7.0124073,12.499944 Z"
             id="path875" />
        </g>
        <path
           style="fill:none;stroke:#000000;stroke-width:4.5005064"
           inkscape:connector-curvature="0"
           id="Path_48"
           data-name="Path 48"
           d="m -55.201419,-175.20381 -6.150366,3.34859" />
        <path
           style="fill:none;stroke:#000000;stroke-width:4.5"
           inkscape:connector-curvature="0"
           id="Path_51"
           data-name="Path 51"
           d="m -54.833434,-187.63695 -6.680809,-2.09661" />
        <path
           style="fill:none;stroke:#000000;stroke-width:4.49825811"
           inkscape:connector-curvature="0"
           id="Path_49"
           data-name="Path 49"
           d="m -49.224488,-170.11071 -3.603155,6.92778 -1.419755,2.72834 -0.218347,0.41975" />
        <path
           style="fill:none;stroke:#000000;stroke-width:4.5"
           inkscape:connector-curvature="0"
           id="Path_50"
           data-name="Path 50"
           d="m -52.260205,-201.96214 5.811,10.6" />
        <path
           sodipodi:nodetypes="csssssssc"
           style="fill:none;stroke:#000000;stroke-width:4"
           inkscape:connector-curvature="0"
           id="Path_52"
           data-name="Path 52"
           d="m 10.071895,-178.15167 c -10e-4,0.01 0.11318,1.70112 0.11188,1.71109 -0.13484,1.06536 -0.0227,1.74489 -0.0274,2.33133 -0.005,0.66317 -0.0533,1.28803 -0.0242,2.4805 0.0533,2.18238 -0.0255,4.25155 0.0647,6.3831 0.17215,4.06878 0.15155,8.01669 0.32046,12.06986 0.007,0.16655 0.0149,0.33327 0.023,0.50018 10e-4,0.0255 0.002,0.051 0.004,0.0765 2e-4,0.004 3.9e-4,0.008 5.9e-4,0.012" />
        <path
           sodipodi:nodetypes="ccccccccccccccccccccccccccccccccccccc"
           style="fill:#233bda"
           inkscape:connector-curvature="0"
           id="Path_54"
           data-name="Path 54"
           d="m -65.289635,-160.14009 2.4695,2.67293 2.73172,2.55623 2.82968,2.37878 3.82257,2.91734 6.01968,3.18617 6.19521,2.49959 5.83051,1.63191 6.00117,0.87724 3.86354,0.23341 3.54149,-0.0105 3.51536,-0.23606 3.52557,-0.45368 3.4482,-0.65475 3.5254805,-0.98808 2.93326,-0.91044 4.11627998,-1.6351 4.34933002,-2.28625 3.83404,-2.33391 1.5594,-1.20375 -0.0345,-20.70213 -3.772,7.352 -3.268,3.812 -4.123,3.112 -5.212,3.19 -5.6000005,2.256 -6.924,2.1 -6.17373,0.85316 -4.85019,0.31626 -4.27333,-0.0387 -3.99475,-0.55276 -8.636,-2.683 -5.72543,-2.33492 -8.20057,-4.82108 v 0 l -8.67936,-7.75664 2.35607,3.75357" />
        <path
           inkscape:connector-curvature="0"
           id="path921"
           d="m 8.8242155,-152.21666 v -0.24116 l 0.0335,-0.004 c 0.0619,-0.008 0.66237,-0.053 0.66559,-0.0498 0.004,0.004 -0.3005,0.23871 -0.67348,0.51734 l -0.0256,0.0192 z"
           style="opacity:0.07000002;fill:#000000;fill-opacity:1;stroke:#000000;stroke-width:0.01491367;stroke-miterlimit:4;stroke-dasharray:none;stroke-dashoffset:0;stroke-opacity:1" />
        <path
           inkscape:connector-curvature="0"
           id="path923"
           d="m 8.8242155,-152.21666 v -0.24116 l 0.0335,-0.004 c 0.0184,-0.002 0.12765,-0.0115 0.24267,-0.0203 0.11502,-0.009 0.25638,-0.0199 0.31413,-0.0247 0.0577,-0.005 0.10657,-0.007 0.10848,-0.005 0.005,0.005 -0.28977,0.23122 -0.67317,0.51764 l -0.0256,0.0192 z"
           style="opacity:0.07000002;fill:#000000;fill-opacity:1;stroke:#000000;stroke-width:0.01491367;stroke-miterlimit:4;stroke-dasharray:none;stroke-dashoffset:0;stroke-opacity:1" />
        <path
           inkscape:connector-curvature="0"
           id="path925"
           d="m 8.8242155,-152.21663 v -0.24119 l 0.0335,-0.004 c 0.0184,-0.002 0.12765,-0.0115 0.24267,-0.0203 0.11502,-0.009 0.25638,-0.0199 0.31413,-0.0247 0.0577,-0.005 0.10674,-0.007 0.10886,-0.005 0.004,0.004 -0.28118,0.22359 -0.54926,0.42386 -0.0716,0.0535 -0.13465,0.10073 -0.14008,0.10495 -0.008,0.006 -0.01,-0.0417 -0.01,-0.23351 z"
           style="opacity:0.07000002;fill:#000000;fill-opacity:1;stroke:#000000;stroke-width:0.01491367;stroke-miterlimit:4;stroke-dasharray:none;stroke-dashoffset:0;stroke-opacity:1" />
        <path
           inkscape:connector-curvature="0"
           id="path927"
           d="m 8.8242155,-152.21721 v -0.24061 l 0.0335,-0.004 c 0.0184,-0.002 0.12942,-0.0116 0.24662,-0.0205 0.11719,-0.009 0.25214,-0.0196 0.29989,-0.0238 0.14559,-0.0127 0.14233,-0.0158 0.0539,0.0516 -0.20124,0.1536 -0.61445,0.46623 -0.62367,0.47186 -0.008,0.005 -0.0103,-0.0381 -0.0103,-0.2343 z"
           style="opacity:0.07000002;fill:#000000;fill-opacity:1;stroke:#000000;stroke-width:0.01491367;stroke-miterlimit:4;stroke-dasharray:none;stroke-dashoffset:0;stroke-opacity:1" />
        <path
           inkscape:connector-curvature="0"
           id="path929"
           d="m 8.8242155,-152.21721 v -0.24061 l 0.0335,-0.004 c 0.0184,-0.002 0.12942,-0.0116 0.24662,-0.0205 0.11719,-0.009 0.25214,-0.0196 0.29989,-0.0238 0.14558,-0.0127 0.14233,-0.0158 0.0539,0.0516 -0.24813,0.18932 -0.61425,0.46648 -0.62336,0.47188 -0.009,0.005 -0.0106,-0.0346 -0.0106,-0.2343 z"
           style="opacity:0.07000002;fill:#000000;fill-opacity:1;stroke:#000000;stroke-width:0.01491367;stroke-miterlimit:4;stroke-dasharray:none;stroke-dashoffset:0;stroke-opacity:1" />
        <path
           inkscape:connector-curvature="0"
           id="path931"
           d="m 8.8242155,-152.21714 v -0.24068 l 0.0335,-0.004 c 0.0184,-0.002 0.12765,-0.0115 0.24267,-0.0203 0.11502,-0.009 0.25638,-0.0199 0.31413,-0.0247 0.0577,-0.005 0.10672,-0.007 0.10882,-0.005 0.004,0.004 -0.18541,0.15001 -0.53343,0.41343 -0.0803,0.0608 -0.15044,0.11312 -0.15587,0.11631 -0.008,0.005 -0.01,-0.0445 -0.01,-0.2349 z"
           style="opacity:0.07000002;fill:#000000;fill-opacity:1;stroke:#000000;stroke-width:0.01491367;stroke-miterlimit:4;stroke-dasharray:none;stroke-dashoffset:0;stroke-opacity:1" />
        <path
           inkscape:connector-curvature="0"
           id="path933"
           d="m 8.8242155,-152.21714 v -0.24068 l 0.0335,-0.004 c 0.0184,-0.002 0.12765,-0.0115 0.24267,-0.0203 0.11502,-0.009 0.25638,-0.0199 0.31413,-0.0247 0.0577,-0.005 0.10672,-0.007 0.10882,-0.005 0.004,0.004 -0.18541,0.15001 -0.53343,0.41343 -0.0803,0.0608 -0.15044,0.11312 -0.15587,0.11631 -0.008,0.005 -0.01,-0.0445 -0.01,-0.2349 z"
           style="opacity:0.07000002;fill:#000000;fill-opacity:1;stroke:#000000;stroke-width:0.01491367;stroke-miterlimit:4;stroke-dasharray:none;stroke-dashoffset:0;stroke-opacity:1" />
        <path
           inkscape:connector-curvature="0"
           id="path935"
           d="m 8.8242155,-152.21726 v -0.24081 l 0.0256,-0.004 c 0.0468,-0.007 0.67002,-0.0534 0.6737,-0.0497 0.002,0.002 -0.0702,0.0602 -0.16044,0.12947 -0.20289,0.15565 -0.51576,0.39225 -0.52905,0.40006 -0.008,0.005 -0.01,-0.0445 -0.01,-0.235 z"
           style="opacity:0.07000002;fill:#000000;fill-opacity:1;stroke:#000000;stroke-width:0.01491367;stroke-miterlimit:4;stroke-dasharray:none;stroke-dashoffset:0;stroke-opacity:1" />
        <path
           inkscape:connector-curvature="0"
           id="path937"
           d="m 8.8242155,-152.21726 v -0.24081 l 0.0256,-0.004 c 0.0479,-0.008 0.67006,-0.0533 0.67383,-0.0495 0.002,0.002 -0.063,0.055 -0.14466,0.11771 -0.18121,0.13917 -0.53142,0.40374 -0.54496,0.4117 -0.008,0.005 -0.01,-0.0445 -0.01,-0.23501 z"
           style="opacity:0.07000002;fill:#000000;fill-opacity:1;stroke:#000000;stroke-width:0.01491367;stroke-miterlimit:4;stroke-dasharray:none;stroke-dashoffset:0;stroke-opacity:1" />
        <path
           inkscape:connector-curvature="0"
           id="path939"
           d="m 8.8242155,-152.21726 v -0.24081 l 0.0256,-0.004 c 0.0479,-0.008 0.67006,-0.0533 0.67383,-0.0495 0.002,0.002 -0.063,0.055 -0.14466,0.11771 -0.18121,0.13917 -0.53142,0.40374 -0.54496,0.4117 -0.008,0.005 -0.01,-0.0445 -0.01,-0.23501 z"
           style="opacity:0.07000002;fill:#000000;fill-opacity:1;stroke:#000000;stroke-width:0.01491367;stroke-miterlimit:4;stroke-dasharray:none;stroke-dashoffset:0;stroke-opacity:1" />
        <path
           inkscape:connector-curvature="0"
           id="path941"
           d="m 8.8243355,-152.21181 -1.2e-4,-0.24626 0.0256,-0.004 c 0.0141,-0.002 0.16941,-0.0151 0.34513,-0.0287 0.17571,-0.0136 0.3222,-0.0263 0.32553,-0.0284 0.003,-0.002 0.006,-2.3e-4 0.006,0.004 0,0.008 -0.15246,0.12676 -0.49324,0.384 -0.10851,0.0819 -0.1999,0.15266 -0.20309,0.15722 -0.003,0.005 -0.006,-0.10253 -0.006,-0.23798 z"
           style="opacity:0.07000002;fill:#000000;fill-opacity:1;stroke:#000000;stroke-width:0.01491367;stroke-miterlimit:4;stroke-dasharray:none;stroke-dashoffset:0;stroke-opacity:1" />
        <path
           inkscape:connector-curvature="0"
           id="path943"
           d="m 8.8243355,-152.21181 -1.2e-4,-0.24626 0.0256,-0.004 c 0.0141,-0.002 0.16941,-0.0151 0.34513,-0.0287 0.17571,-0.0136 0.3222,-0.0263 0.32553,-0.0284 0.003,-0.002 0.006,-2.3e-4 0.006,0.004 0,0.008 -0.15246,0.12676 -0.49324,0.384 -0.10851,0.0819 -0.1999,0.15266 -0.20309,0.15722 -0.003,0.005 -0.006,-0.10253 -0.006,-0.23798 z"
           style="opacity:0.07000002;fill:#000000;fill-opacity:1;stroke:#000000;stroke-width:0.01491367;stroke-miterlimit:4;stroke-dasharray:none;stroke-dashoffset:0;stroke-opacity:1" />
        <path
           inkscape:connector-curvature="0"
           id="path945"
           d="m 8.8243355,-152.21181 -1.2e-4,-0.24626 0.0256,-0.004 c 0.0141,-0.002 0.0754,-0.008 0.13613,-0.0121 0.26786,-0.0197 0.52165,-0.0406 0.53072,-0.0438 0.005,-0.002 0.01,-2.1e-4 0.01,0.004 0,0.008 -0.13628,0.11372 -0.47746,0.37122 -0.11719,0.0884 -0.21568,0.16455 -0.21887,0.16912 -0.003,0.005 -0.006,-0.10252 -0.006,-0.23797 z"
           style="opacity:0.07000002;fill:#000000;fill-opacity:1;stroke:#000000;stroke-width:0.01491367;stroke-miterlimit:4;stroke-dasharray:none;stroke-dashoffset:0;stroke-opacity:1" />
        <path
           inkscape:connector-curvature="0"
           id="path947"
           d="m 8.8243355,-152.21181 -1.2e-4,-0.24626 0.0256,-0.004 c 0.0141,-0.002 0.0754,-0.008 0.13613,-0.0121 0.26786,-0.0197 0.52165,-0.0406 0.53072,-0.0438 0.005,-0.002 0.01,-2.7e-4 0.01,0.004 0,0.008 -0.12873,0.1083 -0.46167,0.35949 -0.12588,0.095 -0.23147,0.17641 -0.23466,0.18097 -0.003,0.005 -0.006,-0.10252 -0.006,-0.23797 z"
           style="opacity:0.07000002;fill:#000000;fill-opacity:1;stroke:#000000;stroke-width:0.01491367;stroke-miterlimit:4;stroke-dasharray:none;stroke-dashoffset:0;stroke-opacity:1" />
        <path
           inkscape:connector-curvature="0"
           id="path949"
           d="m 8.8242155,-152.21383 v -0.24424 l 0.0256,-0.004 c 0.0141,-0.002 0.0754,-0.008 0.13613,-0.0121 0.26786,-0.0197 0.52165,-0.0406 0.53072,-0.0438 0.005,-0.002 0.01,8.5e-4 0.009,0.006 -3.1e-4,0.005 -0.0433,0.0416 -0.0954,0.0806 -0.17592,0.1317 -0.5707,0.4311 -0.5886,0.44639 l -0.0177,0.0152 z"
           style="opacity:0.07000002;fill:#000000;fill-opacity:1;stroke:#000000;stroke-width:0.01491367;stroke-miterlimit:4;stroke-dasharray:none;stroke-dashoffset:0;stroke-opacity:1" />
        <path
           inkscape:connector-curvature="0"
           id="path951"
           d="m 8.8242155,-152.21383 v -0.24424 l 0.0256,-0.004 c 0.0141,-0.002 0.0754,-0.008 0.13613,-0.0121 0.26786,-0.0197 0.52165,-0.0406 0.53072,-0.0438 0.005,-0.002 0.01,8.5e-4 0.009,0.006 -3.1e-4,0.005 -0.0432,0.0416 -0.0954,0.0806 -0.18391,0.13778 -0.57113,0.43143 -0.58867,0.4464 l -0.0177,0.0152 z"
           style="opacity:0.07000002;fill:#000000;fill-opacity:1;stroke:#000000;stroke-width:0.01491367;stroke-miterlimit:4;stroke-dasharray:none;stroke-dashoffset:0;stroke-opacity:1" />
        <path
           inkscape:connector-curvature="0"
           id="path953"
           d="m 8.8242155,-152.21404 v -0.24444 l 0.0177,-0.004 c 0.01,-0.002 0.16513,-0.0148 0.34524,-0.0285 0.18012,-0.0137 0.33016,-0.0266 0.33343,-0.0286 0.003,-0.002 0.006,9.8e-4 0.005,0.007 -3.1e-4,0.006 -0.0432,0.0423 -0.0954,0.0814 -0.18391,0.13778 -0.57113,0.43143 -0.58867,0.4464 l -0.0177,0.0152 z"
           style="opacity:0.07000002;fill:#000000;fill-opacity:1;stroke:#000000;stroke-width:0.01491367;stroke-miterlimit:4;stroke-dasharray:none;stroke-dashoffset:0;stroke-opacity:1" />
        <path
           inkscape:connector-curvature="0"
           id="path955"
           d="m 8.8243355,-152.21202 -1.2e-4,-0.24646 0.0177,-0.004 c 0.01,-0.002 0.16514,-0.0148 0.34527,-0.0285 0.18013,-0.0137 0.33017,-0.0265 0.33343,-0.0285 0.003,-0.002 0.006,10e-4 0.005,0.007 -2.7e-4,0.006 -0.0349,0.0361 -0.077,0.0676 -0.27414,0.20533 -0.61401,0.464 -0.61889,0.47103 -0.003,0.005 -0.006,-0.10257 -0.006,-0.23813 z"
           style="opacity:0.07000002;fill:#000000;fill-opacity:1;stroke:#000000;stroke-width:0.01491367;stroke-miterlimit:4;stroke-dasharray:none;stroke-dashoffset:0;stroke-opacity:1" />
        <path
           inkscape:connector-curvature="0"
           id="path957"
           d="m 8.8243355,-152.21202 -1.2e-4,-0.24646 0.0177,-0.004 c 0.01,-0.002 0.16514,-0.0148 0.34527,-0.0285 0.18013,-0.0137 0.33017,-0.0265 0.33343,-0.0285 0.003,-0.002 0.006,10e-4 0.005,0.007 -2.7e-4,0.006 -0.0349,0.0361 -0.077,0.0676 -0.27414,0.20533 -0.61401,0.464 -0.61889,0.47103 -0.003,0.005 -0.006,-0.10257 -0.006,-0.23813 z"
           style="opacity:0.07000002;fill:#000000;fill-opacity:1;stroke:#000000;stroke-width:0.01491367;stroke-miterlimit:4;stroke-dasharray:none;stroke-dashoffset:0;stroke-opacity:1" />
        <path
           inkscape:connector-curvature="0"
           id="path959"
           d="m 8.8242155,-152.21261 v -0.24587 l 0.0177,-0.004 c 0.01,-0.002 0.16336,-0.0147 0.34132,-0.0281 0.17797,-0.0134 0.32801,-0.0259 0.33343,-0.0277 0.005,-0.002 0.01,9.9e-4 0.01,0.006 -1.8e-4,0.005 -0.0366,0.0368 -0.0809,0.07 -0.23607,0.1768 -0.58791,0.44422 -0.60339,0.45861 l -0.0177,0.0165 z"
           style="opacity:0.07000002;fill:#000000;fill-opacity:1;stroke:#000000;stroke-width:0.01491367;stroke-miterlimit:4;stroke-dasharray:none;stroke-dashoffset:0;stroke-opacity:1" />
        <path
           inkscape:connector-curvature="0"
           id="path961"
           d="m 8.8242155,-152.21432 v -0.24416 l 0.0177,-0.004 c 0.01,-0.002 0.16336,-0.0147 0.34132,-0.0281 0.17797,-0.0134 0.32801,-0.0259 0.33343,-0.0277 0.005,-0.002 0.01,9.9e-4 0.01,0.006 -1.8e-4,0.005 -0.0295,0.0314 -0.0651,0.058 -0.0356,0.0266 -0.19351,0.1463 -0.35085,0.26602 l -0.28608,0.21768 z"
           style="opacity:0.07000002;fill:#000000;fill-opacity:1;stroke:#000000;stroke-width:0.01491367;stroke-miterlimit:4;stroke-dasharray:none;stroke-dashoffset:0;stroke-opacity:1" />
        <path
           inkscape:connector-curvature="0"
           id="path963"
           d="m 8.8215555,-152.21283 c -0.003,-0.13242 -0.003,-0.24268 -9.2e-4,-0.245 0.002,-0.002 0.15057,-0.0157 0.32944,-0.0296 0.17887,-0.014 0.33675,-0.0267 0.35086,-0.0283 0.0146,-0.002 0.0255,6.3e-4 0.0253,0.005 -1.8e-4,0.005 -0.0295,0.03 -0.0651,0.0566 -0.0356,0.0266 -0.19295,0.14587 -0.34961,0.26507 l -0.28483,0.21673 z"
           style="opacity:0.07000002;fill:#000000;fill-opacity:1;stroke:#000000;stroke-width:0.01491367;stroke-miterlimit:4;stroke-dasharray:none;stroke-dashoffset:0;stroke-opacity:1" />
        <path
           inkscape:connector-curvature="0"
           id="path965"
           d="m 8.8204955,-152.14616 c -0.003,-0.096 -0.004,-0.20643 -0.003,-0.24543 l 0.003,-0.0709 0.32357,-0.0251 c 0.17796,-0.0138 0.33688,-0.0268 0.35315,-0.029 0.0195,-0.003 0.0294,-7.4e-4 0.0292,0.005 -2.4e-4,0.005 -0.0543,0.0499 -0.12026,0.0999 -0.0659,0.0499 -0.22336,0.16929 -0.3499,0.26527 l -0.23009,0.17452 z"
           style="opacity:0.07000002;fill:#000000;fill-opacity:1;stroke:#000000;stroke-width:0.01491367;stroke-miterlimit:4;stroke-dasharray:none;stroke-dashoffset:0;stroke-opacity:1" />
        <path
           inkscape:connector-curvature="0"
           id="path967"
           d="m 8.8205155,-152.09876 c -0.003,-0.07 -0.004,-0.18043 -0.003,-0.24547 l 0.003,-0.11825 0.32357,-0.0251 c 0.17796,-0.0138 0.33688,-0.0269 0.35315,-0.029 0.0195,-0.003 0.0295,-7.3e-4 0.0292,0.005 -2.1e-4,0.005 -0.0543,0.0499 -0.12013,0.0999 -0.0659,0.0499 -0.22337,0.16931 -0.35002,0.26532 l -0.23026,0.17458 z"
           style="opacity:0.07000002;fill:#000000;fill-opacity:1;stroke:#000000;stroke-width:0.01491367;stroke-miterlimit:4;stroke-dasharray:none;stroke-dashoffset:0;stroke-opacity:1" />
        <path
           inkscape:connector-curvature="0"
           id="path969"
           d="m 8.8205055,-152.07507 c -0.003,-0.057 -0.004,-0.16742 -0.003,-0.24548 l 0.002,-0.14193 0.32357,-0.0251 c 0.17796,-0.0138 0.33708,-0.0269 0.3536,-0.029 0.0219,-0.003 0.0294,-0.001 0.0276,0.006 -10e-4,0.006 -0.0521,0.0479 -0.1129,0.094 -0.0608,0.0462 -0.21758,0.16515 -0.34846,0.26442 l -0.23797,0.18048 z"
           style="opacity:0.07000002;fill:#000000;fill-opacity:1;stroke:#000000;stroke-width:0.01491367;stroke-miterlimit:4;stroke-dasharray:none;stroke-dashoffset:0;stroke-opacity:1" />
        <path
           inkscape:connector-curvature="0"
           id="path971"
           d="m 8.8213855,-152.03587 c -0.003,-0.0351 -0.005,-0.14641 -0.005,-0.24732 l -4e-5,-0.18349 h 0.0309 c 0.0345,0 0.61302,-0.0448 0.65417,-0.0507 0.0189,-0.003 0.0255,-8.6e-4 0.0237,0.007 -0.003,0.0107 -0.0223,0.026 -0.44531,0.34665 l -0.25344,0.19208 z"
           style="opacity:0.07000002;fill:#000000;fill-opacity:1;stroke:#000000;stroke-width:0.01491367;stroke-miterlimit:4;stroke-dasharray:none;stroke-dashoffset:0;stroke-opacity:1" />
        <path
           inkscape:connector-curvature="0"
           id="path973"
           d="m 8.8212955,-152.01211 c -0.003,-0.0221 -0.005,-0.13265 -0.005,-0.24559 l -6e-5,-0.20534 0.34526,-0.0266 c 0.1899,-0.0146 0.35007,-0.0284 0.35593,-0.0306 0.007,-0.002 0.01,5.9e-4 0.008,0.008 -0.002,0.007 -0.0454,0.0445 -0.0975,0.0841 -0.0521,0.0396 -0.2088,0.15835 -0.34825,0.26399 l -0.25356,0.19207 z"
           style="opacity:0.07000002;fill:#000000;fill-opacity:1;stroke:#000000;stroke-width:0.01491367;stroke-miterlimit:4;stroke-dasharray:none;stroke-dashoffset:0;stroke-opacity:1" />
        <path
           inkscape:connector-curvature="0"
           id="path975"
           d="m 8.8212255,-152.00008 c -0.003,-0.0157 -0.005,-0.12636 -0.005,-0.24584 l -8e-5,-0.21723 0.33737,-0.026 c 0.18556,-0.0143 0.34572,-0.028 0.35591,-0.0304 0.0564,-0.0134 0.0112,0.0235 -0.50498,0.41325 l -0.17867,0.13489 z"
           style="opacity:0.07000002;fill:#000000;fill-opacity:1;stroke:#000000;stroke-width:0.01491367;stroke-miterlimit:4;stroke-dasharray:none;stroke-dashoffset:0;stroke-opacity:1" />
        <path
           inkscape:connector-curvature="0"
           id="path977"
           d="m 8.8211555,-151.99463 c -0.003,-0.0133 -0.005,-0.12416 -0.005,-0.24635 v -0.22217 l 0.33737,-0.0261 c 0.18556,-0.0144 0.34572,-0.0281 0.35591,-0.0304 0.0139,-0.003 0.0179,-10e-4 0.0158,0.008 -0.003,0.0117 -0.0938,0.0829 -0.50497,0.39424 l -0.19443,0.14725 z"
           style="opacity:0.07000002;fill:#000000;fill-opacity:1;stroke:#000000;stroke-width:0.01491367;stroke-miterlimit:4;stroke-dasharray:none;stroke-dashoffset:0;stroke-opacity:1" />
        <path
           inkscape:connector-curvature="0"
           id="path979"
           d="m 8.8211955,-151.99446 c -0.003,-0.0134 -0.005,-0.12442 -0.005,-0.24673 v -0.22238 l 0.33737,-0.0259 c 0.18556,-0.0143 0.34572,-0.0279 0.35591,-0.0302 0.0408,-0.01 0.009,0.0231 -0.11324,0.11677 -0.0694,0.0532 -0.22617,0.17231 -0.34828,0.26474 l -0.22202,0.16807 z"
           style="opacity:0.07000002;fill:#000000;fill-opacity:1;stroke:#000000;stroke-width:0.01491367;stroke-miterlimit:4;stroke-dasharray:none;stroke-dashoffset:0;stroke-opacity:1" />
        <path
           inkscape:connector-curvature="0"
           id="path981"
           d="m 8.8212355,-151.98747 c -0.003,-0.01 -0.005,-0.12088 -0.005,-0.24719 l -10e-5,-0.22965 0.0691,-0.005 c 0.1829,-0.013 0.57796,-0.0449 0.60836,-0.0491 0.0695,-0.01 0.0701,-0.0102 -0.44572,0.3803 -0.20198,0.15289 -0.2225,0.16652 -0.22678,0.15057 z"
           style="opacity:0.07000002;fill:#000000;fill-opacity:1;stroke:#000000;stroke-width:0.01491367;stroke-miterlimit:4;stroke-dasharray:none;stroke-dashoffset:0;stroke-opacity:1" />
        <path
           inkscape:connector-curvature="0"
           id="path983"
           d="m 8.8210455,-151.98214 c -0.003,-0.007 -0.005,-0.11857 -0.005,-0.24843 v -0.23611 h 0.0207 c 0.0302,0 0.61634,-0.0461 0.6567,-0.0517 0.0703,-0.01 0.0705,-0.01 -0.43002,0.36861 -0.1814,0.13719 -0.23907,0.17702 -0.24267,0.16763 z"
           style="opacity:0.07000002;fill:#000000;fill-opacity:1;stroke:#000000;stroke-width:0.01491367;stroke-miterlimit:4;stroke-dasharray:none;stroke-dashoffset:0;stroke-opacity:1" />
        <path
           inkscape:connector-curvature="0"
           id="path985"
           d="m 8.8210455,-151.98215 c -0.003,-0.007 -0.005,-0.11856 -0.005,-0.24842 v -0.23611 h 0.0191 c 0.0105,0 0.0842,-0.005 0.16376,-0.0116 0.0795,-0.006 0.21745,-0.0171 0.30643,-0.0237 0.089,-0.007 0.17543,-0.0142 0.19211,-0.0168 0.0246,-0.004 0.0298,-0.002 0.0276,0.007 -0.003,0.0133 -0.066,0.0628 -0.44191,0.34695 -0.1962,0.14832 -0.25879,0.19184 -0.26239,0.18246 z"
           style="opacity:0.07000002;fill:#000000;fill-opacity:1;stroke:#000000;stroke-width:0.01491367;stroke-miterlimit:4;stroke-dasharray:none;stroke-dashoffset:0;stroke-opacity:1" />
        <path
           inkscape:connector-curvature="0"
           id="path987"
           d="m 8.8210955,-151.98203 c -0.003,-0.007 -0.005,-0.11868 -0.005,-0.24854 0,-0.18361 0.002,-0.23611 0.01,-0.23613 0.005,-2e-5 0.16421,-0.0123 0.35285,-0.0274 0.23991,-0.0191 0.34457,-0.0248 0.34823,-0.0189 0.003,0.005 -0.0306,0.0358 -0.0786,0.0724 -0.2161,0.16471 -0.57981,0.44037 -0.60013,0.45484 -0.0199,0.0141 -0.0232,0.0146 -0.0274,0.004 z"
           style="opacity:0.07000002;fill:#000000;fill-opacity:1;stroke:#000000;stroke-width:0.01491367;stroke-miterlimit:4;stroke-dasharray:none;stroke-dashoffset:0;stroke-opacity:1" />
        <path
           inkscape:connector-curvature="0"
           id="path989"
           d="m 8.8211855,-151.98177 c -0.008,-0.0208 -0.006,-0.48491 0.002,-0.48491 0.004,0 0.16268,-0.0125 0.35262,-0.0277 0.25767,-0.0207 0.34679,-0.0254 0.351,-0.0186 0.006,0.01 0.002,0.0133 -0.41495,0.32784 -0.14758,0.11136 -0.27235,0.20553 -0.27727,0.20927 -0.006,0.004 -0.0108,0.002 -0.0138,-0.006 z"
           style="opacity:0.07000002;fill:#000000;fill-opacity:1;stroke:#000000;stroke-width:0.01491367;stroke-miterlimit:4;stroke-dasharray:none;stroke-dashoffset:0;stroke-opacity:1" />
        <path
           inkscape:connector-curvature="0"
           id="path991"
           d="m 8.8210955,-151.98202 c -0.006,-0.0159 -0.006,-0.48466 -2e-4,-0.48466 0.003,0 0.16118,-0.0125 0.35259,-0.0278 0.26265,-0.021 0.34943,-0.0255 0.35375,-0.0185 0.004,0.006 -0.044,0.0473 -0.1336,0.11582 -0.2004,0.15325 -0.54812,0.41605 -0.55873,0.42227 -0.005,0.003 -0.0112,-2.9e-4 -0.0138,-0.007 z"
           style="opacity:0.07000002;fill:#000000;fill-opacity:1;stroke:#000000;stroke-width:0.01491367;stroke-miterlimit:4;stroke-dasharray:none;stroke-dashoffset:0;stroke-opacity:1" />
        <path
           inkscape:connector-curvature="0"
           id="path993"
           d="m 8.8213655,-151.97497 c -0.007,-0.007 -0.007,-0.49171 2.4e-4,-0.49171 0.007,0 0.35258,-0.0277 0.55023,-0.0441 0.11766,-0.01 0.15035,-0.0103 0.1551,-0.003 0.007,0.0106 -0.048,0.0539 -0.44624,0.35456 -0.26262,0.19825 -0.25232,0.19094 -0.25933,0.18393 z"
           style="opacity:0.07000002;fill:#000000;fill-opacity:1;stroke:#000000;stroke-width:0.01491367;stroke-miterlimit:4;stroke-dasharray:none;stroke-dashoffset:0;stroke-opacity:1" />
        <path
           inkscape:connector-curvature="0"
           id="path995"
           d="m 8.8213655,-151.97497 c -0.003,-0.003 -0.005,-0.1142 -0.005,-0.2476 v -0.24256 l 0.0454,-0.005 c 0.025,-0.003 0.18354,-0.0156 0.35241,-0.0289 0.23621,-0.0185 0.30837,-0.0219 0.31289,-0.0146 0.007,0.0107 -0.0463,0.0528 -0.43052,0.34267 -0.27977,0.21106 -0.26809,0.20275 -0.27511,0.19573 z"
           style="opacity:0.07000002;fill:#000000;fill-opacity:1;stroke:#000000;stroke-width:0.01491367;stroke-miterlimit:4;stroke-dasharray:none;stroke-dashoffset:0;stroke-opacity:1" />
        <path
           inkscape:connector-curvature="0"
           id="path997"
           d="m 8.8213655,-151.97497 c -0.003,-0.003 -0.005,-0.1142 -0.005,-0.2476 v -0.24256 l 0.0454,-0.005 c 0.025,-0.003 0.18354,-0.0156 0.35241,-0.0289 0.23923,-0.0188 0.30834,-0.022 0.31299,-0.0144 0.007,0.0108 -0.0392,0.0473 -0.43062,0.34254 -0.27978,0.21103 -0.26809,0.20271 -0.27511,0.19569 z"
           style="opacity:0.07000002;fill:#000000;fill-opacity:1;stroke:#000000;stroke-width:0.01491367;stroke-miterlimit:4;stroke-dasharray:none;stroke-dashoffset:0;stroke-opacity:1" />
        <path
           inkscape:connector-curvature="0"
           id="path999"
           d="m 8.8215855,-151.97475 c -0.003,-0.003 -0.005,-0.11442 -0.005,-0.24782 v -0.24256 l 0.0454,-0.005 c 0.025,-0.003 0.18354,-0.0156 0.35241,-0.0289 0.23923,-0.0188 0.30834,-0.022 0.31299,-0.0144 0.004,0.006 -0.0249,0.0335 -0.0861,0.0808 -0.12586,0.0974 -0.60901,0.46286 -0.61188,0.46286 -10e-4,0 -0.005,-0.002 -0.008,-0.005 z"
           style="opacity:0.07000002;fill:#000000;fill-opacity:1;stroke:#000000;stroke-width:0.01491367;stroke-miterlimit:4;stroke-dasharray:none;stroke-dashoffset:0;stroke-opacity:1" />
        <path
           inkscape:connector-curvature="0"
           id="path1001"
           d="m 8.8215855,-151.97475 c -0.003,-0.003 -0.005,-0.11442 -0.005,-0.24782 v -0.24256 l 0.0454,-0.005 c 0.025,-0.003 0.18354,-0.0156 0.35241,-0.0289 0.23923,-0.0188 0.30834,-0.022 0.31299,-0.0144 0.004,0.006 -0.0249,0.0335 -0.0861,0.0808 -0.12586,0.0974 -0.60901,0.46286 -0.61188,0.46286 -10e-4,0 -0.005,-0.002 -0.008,-0.005 z"
           style="opacity:0.07000002;fill:#000000;fill-opacity:1;stroke:#000000;stroke-width:0.01491367;stroke-miterlimit:4;stroke-dasharray:none;stroke-dashoffset:0;stroke-opacity:1" />
        <path
           inkscape:connector-curvature="0"
           id="path1003"
           d="m 8.8215855,-151.97475 c -0.003,-0.003 -0.005,-0.11442 -0.005,-0.24782 v -0.24256 l 0.0454,-0.005 c 0.025,-0.003 0.18354,-0.0156 0.35241,-0.0289 0.32583,-0.0256 0.34296,-0.0249 0.29788,0.0122 -0.0206,0.017 -0.19719,0.15157 -0.51569,0.39322 -0.0898,0.0682 -0.1647,0.12391 -0.16638,0.12391 -0.002,0 -0.005,-0.002 -0.008,-0.005 z"
           style="opacity:0.07000002;fill:#000000;fill-opacity:1;stroke:#000000;stroke-width:0.01491367;stroke-miterlimit:4;stroke-dasharray:none;stroke-dashoffset:0;stroke-opacity:1" />
        <path
           inkscape:connector-curvature="0"
           id="path1005"
           d="m 8.8215855,-151.97475 c -0.003,-0.003 -0.005,-0.11442 -0.005,-0.24782 v -0.24256 l 0.0454,-0.005 c 0.025,-0.003 0.18354,-0.0156 0.35241,-0.0289 0.32563,-0.0256 0.34313,-0.0248 0.29788,0.012 -0.067,0.0546 -0.677,0.51727 -0.68197,0.51727 -0.002,0 -0.006,-0.002 -0.008,-0.005 z"
           style="opacity:0.07000002;fill:#000000;fill-opacity:1;stroke:#000000;stroke-width:0.01491367;stroke-miterlimit:4;stroke-dasharray:none;stroke-dashoffset:0;stroke-opacity:1" />
        <path
           inkscape:connector-curvature="0"
           id="path1007"
           d="m 8.8217455,-151.97459 c -0.003,-0.003 -0.005,-0.11458 -0.005,-0.24798 v -0.24256 l 0.0454,-0.005 c 0.025,-0.003 0.18354,-0.0156 0.35241,-0.0289 0.24202,-0.019 0.30831,-0.022 0.31309,-0.0143 0.004,0.007 -0.0153,0.0265 -0.0584,0.0602 -0.10207,0.0798 -0.62931,0.47912 -0.63577,0.48149 -0.003,0.001 -0.008,-3.1e-4 -0.0113,-0.003 z"
           style="opacity:0.07000002;fill:#000000;fill-opacity:1;stroke:#000000;stroke-width:0.01491367;stroke-miterlimit:4;stroke-dasharray:none;stroke-dashoffset:0;stroke-opacity:1" />
      </g>
    </g>
  </g>
</svg>
