<svg xmlns="http://www.w3.org/2000/svg" data-name="Component 21 – 2" viewBox="0 0 114 114">
  <g data-name="Group 77">
    <g data-name="Component 3 – 3">
      <path fill="#23dace" stroke="#000" stroke-width="2.5" d="M57 112.3308c-7.4934 0-14.7618-1.465-21.6034-4.3545a55.5284 55.5284 0 01-9.427-5.1093 55.8867 55.8867 0 01-8.2148-6.7678 55.8394 55.8394 0 01-6.7777-8.2024c-2.0044-2.9624-3.7258-6.1292-5.1166-9.4124C2.9671 71.6537 1.5 64.3968 1.5 56.9154c0-7.4814 1.467-14.7383 4.3605-21.569 1.3908-3.2832 3.1122-6.45 5.1166-9.4124a55.8392 55.8392 0 016.7777-8.2024 55.887 55.887 0 018.2148-6.7678 55.5285 55.5285 0 019.427-5.1093C42.2382 2.9651 49.5066 1.5 57 1.5c7.4934 0 14.7618 1.465 21.6034 4.3545a55.5287 55.5287 0 019.427 5.1093 55.8875 55.8875 0 018.2148 6.7678 55.8393 55.8393 0 016.7777 8.2024c2.0044 2.9624 3.7258 6.1292 5.1166 9.4124 2.8934 6.8307 4.3605 14.0876 4.3605 21.569 0 7.4814-1.467 14.7383-4.3605 21.569-1.3908 3.2832-3.1122 6.45-5.1166 9.4124a55.8395 55.8395 0 01-6.7777 8.2024 55.8872 55.8872 0 01-8.2148 6.7678 55.5286 55.5286 0 01-9.427 5.1093c-6.8416 2.8894-14.11 4.3545-21.6034 4.3545z" data-name="Path 36"/>
    </g>
  </g>
  <g data-name="Group 76">
    <path fill="none" stroke="#000" stroke-width="2" d="M49.5778 63.5333c0 5.8986-.1708 22.168-.1708 32.7397" data-name="Path 38"/>
  </g>
  <g data-name="Group 31">
    <path fill="#fff" stroke="#000" stroke-width="1.2" d="M56 65c-2.079 0-4.724-.616-6.9026-1.6078-2.4755-1.1269-4.2-2.6334-4.856-4.242l-.0644-.1577-.1128-.1275c-2.0536-2.3203-5.1707-4.6945-6.7922-5.747-1.8836-2.8021-.9913-5.7706-.3365-7.9487.0398-.1327.0785-.2614.1153-.386l.041-.1386V44.5c0-.83-.1376-1.6698-.2832-2.5588-.287-1.7517-.5837-3.563.2012-5.379l.1404-.3249-.0952-.3408c-.0738-.2642-.0015-1.0532.7377-2.3348.6804-1.1796 1.6855-2.3348 2.7574-3.1693.7489-.5834 1.6775-.9719 2.4968-1.3146 1.215-.5084 2.3626-.9885 2.692-2.0705l.018-.0594.0106-.0612c.3513-2.0305 4.6078-2.9393 8.6704-2.9393.5383 0 1.0526.0172 1.4873.0498.8677.065 3.91.3256 6.6301.946 3.3106.755 4.0894 1.5934 4.1102 1.8527l.0043.0541.0102.0533c.1822.9565 1.0366 1.4036 2.1183 1.9697 1.0993.5752 2.6048 1.363 4.1792 2.9818l.1697.1745.231.077c.0287.0096.7083.2699.9674 3.2942.1772 2.0682.0893 4.6103.0187 6.653-.033.9526-.0614 1.7752-.0614 2.4465 0 1.0374.4634 1.9686.9116 2.8692.8227 1.6533 1.0504 2.3675.1584 3.2875-1.4245 1.3959-2.4825 2.9173-3.4162 4.26-.838 1.205-1.5679 2.2545-2.332 2.8817-2.1282.6785-3.512 2.3463-4.737 3.823-.5604.6755-1.0898 1.3135-1.6654 1.8478-.0445.0407-.139.1296-.2554.2409a6.7088 6.7088 0 00-1.0809-.0882c-1.309 0-2.3707.4014-3.3074.7555C57.7317 64.6976 56.9318 65 56 65z" data-name="Path 41"/>
    <g data-name="Path 43">
      <path d="M47.0505 41.9923c-.986 0-2.5505-.4051-2.5505-1.4923 0-1.1028.8972-2 2-2 .5589 0 1.0868 0 1.3415.1283.083.0418.2557.1288.2557.7707 0 2.2986-.5593 2.5933-1.0467 2.5933z"/>
      <path d="M46.5 39c-.8271 0-1.5.6729-1.5 1.5 0 .6475 1.1909.9923 2.0505.9923.1128 0 .2192 0 .3492-.3646.1975-.5543.1975-1.4382.1975-1.7287 0-.1831-.0171-.2887-.0302-.3425C47.3663 39 46.8514 39 46.5 39m0-1c1.3807 0 2.0972.0183 2.0972 1.399s-.166 3.0933-1.5467 3.0933S44 41.8807 44 40.5s1.1193-2.5 2.5-2.5z"/>
    </g>
    <g data-name="Path 42">
      <path d="M64.5 42.5c-1.1028 0-2-.8972-2-2s.8972-2 2-2 2 .8972 2 2c0 .5774.6112.7576 1.1022.9024.0616.0182.1382.0408.2142.065-.26.1415-.7035.3404-1.343.5592-.8146.2787-1.626.4734-1.9734.4734z"/>
      <path d="M64.5 39c-.8271 0-1.5.6729-1.5 1.5s.6729 1.5 1.5 1.5c.382 0 1.2646-.2496 2.0205-.5216C66.228 41.2708 66 40.9659 66 40.5c0-.8271-.6729-1.5-1.5-1.5m0-1c1.3807 0 2.5 1.1193 2.5 2.5 0 .4625 1.8932.4324 1.4979 1.0643C68.2395 42.0417 65.4182 43 64.5 43c-1.3807 0-2.5-1.1193-2.5-2.5s1.1193-2.5 2.5-2.5z"/>
    </g>
    <path fill="none" stroke="#000" d="M46.5 53.457s-.954-.654 3.85-.654c2.388 0 10.208.654 10.208.654h5.159" data-name="Path 39"/>
    <path fill="none" stroke="#000" d="M51.446 57h9.741" data-name="Path 40"/>
  </g>
</svg>
