<?xml version="1.0" encoding="UTF-8" standalone="no"?>
<svg
   xmlns:osb="http://www.openswatchbook.org/uri/2009/osb"
   xmlns:dc="http://purl.org/dc/elements/1.1/"
   xmlns:cc="http://creativecommons.org/ns#"
   xmlns:rdf="http://www.w3.org/1999/02/22-rdf-syntax-ns#"
   xmlns:svg="http://www.w3.org/2000/svg"
   xmlns="http://www.w3.org/2000/svg"
   xmlns:sodipodi="http://sodipodi.sourceforge.net/DTD/sodipodi-0.dtd"
   xmlns:inkscape="http://www.inkscape.org/namespaces/inkscape"
   id="Component_21_2"
   data-name="Component 21 – 2"
   width="114"
   height="114"
   viewBox="0 0 114 114"
   version="1.1"
   sodipodi:docname="icon-meme.svg"
   inkscape:version="0.92.5 (2060ec1f9f, 2020-04-08)">
  <metadata
     id="metadata905">
    <rdf:RDF>
      <cc:Work
         rdf:about="">
        <dc:format>image/svg+xml</dc:format>
        <dc:type
           rdf:resource="http://purl.org/dc/dcmitype/StillImage" />
        <dc:title></dc:title>
      </cc:Work>
    </rdf:RDF>
  </metadata>
  <defs
     id="defs903">
    <linearGradient
       id="linearGradient6932"
       osb:paint="solid">
      <stop
         style="stop-color:#410000;stop-opacity:1;"
         offset="0"
         id="stop6930" />
    </linearGradient>
    <marker
       inkscape:stockid="Arrow1Lstart"
       orient="auto"
       refY="0.0"
       refX="0.0"
       id="Arrow1Lstart"
       style="overflow:visible"
       inkscape:isstock="true">
      <path
         id="path5190"
         d="M 0.0,0.0 L 5.0,-5.0 L -12.5,0.0 L 5.0,5.0 L 0.0,0.0 z "
         style="fill-rule:evenodd;stroke:#000000;stroke-width:1pt;stroke-opacity:1;fill:#000000;fill-opacity:1"
         transform="scale(0.8) translate(12.5,0)" />
    </marker>
  </defs>
  <sodipodi:namedview
     pagecolor="#ffffff"
     bordercolor="#666666"
     borderopacity="1"
     objecttolerance="10"
     gridtolerance="10"
     guidetolerance="10"
     inkscape:pageopacity="0"
     inkscape:pageshadow="2"
     inkscape:window-width="1920"
     inkscape:window-height="1001"
     id="namedview901"
     showgrid="false"
     inkscape:zoom="2.9276702"
     inkscape:cx="75.484405"
     inkscape:cy="58.483729"
     inkscape:window-x="-9"
     inkscape:window-y="-9"
     inkscape:window-maximized="1"
     inkscape:current-layer="Component_3_3" />
  <g
     id="meme-icon">
    <g
       id="Group_77"
       data-name="Group 77">
      <g
         id="Component_3_3"
         data-name="Component 3 – 3">
        <g
           id="Path_36"
           data-name="Path 36"
           fill="#23dace">
          <path
             d="M 57 112.3307952880859 C 49.50661468505859 112.3307952880859 42.23818588256836 110.86572265625 35.39661407470703 107.9762878417969 C 32.10829162597656 106.5875015258789 28.93658447265625 104.8685073852539 25.9696159362793 102.8670272827148 C 23.03047752380371 100.8843383789063 20.26661491394043 98.60732269287109 17.75478553771973 96.09921264648438 C 15.24300003051758 93.59114837646484 12.96263122558594 90.83144378662109 10.97706127166748 87.89676666259766 C 8.972738265991211 84.93437957763672 7.251276969909668 81.76760101318359 5.860538482666016 78.48438262939453 C 2.967092275619507 71.65365600585938 1.5 64.39681243896484 1.5 56.91539764404297 C 1.5 49.43398284912109 2.967092275619507 42.1771354675293 5.860538482666016 35.34641265869141 C 7.251276969909668 32.06319808959961 8.972738265991211 28.89641380310059 10.97706127166748 25.93402862548828 C 12.96263122558594 22.99935150146484 15.24300003051758 20.23964309692383 17.75478553771973 17.73158264160156 C 20.26661491394043 15.22347450256348 23.03047752380371 12.94645881652832 25.9696159362793 10.96376705169678 C 28.93658447265625 8.962289810180664 32.10829162597656 7.243289947509766 35.39661407470703 5.85450553894043 C 42.23818588256836 2.96507453918457 49.50661468505859 1.499997615814209 57 1.499997615814209 C 64.49338531494141 1.499997615814209 71.76181793212891 2.96507453918457 78.60338592529297 5.85450553894043 C 81.89170837402344 7.243289947509766 85.06341552734375 8.962289810180664 88.03038787841797 10.96376705169678 C 90.96952056884766 12.94645881652832 93.73338317871094 15.22347450256348 96.24521636962891 17.73158264160156 C 98.75700378417969 20.23964309692383 101.0373687744141 22.99935150146484 103.0229415893555 25.93402862548828 C 105.0272598266602 28.89641380310059 106.7487258911133 32.06319808959961 108.1394653320313 35.34641265869141 C 111.0329055786133 42.1771354675293 112.5 49.43398284912109 112.5 56.91539764404297 C 112.5 64.39681243896484 111.0329055786133 71.65365600585938 108.1394653320313 78.48438262939453 C 106.7487258911133 81.76760101318359 105.0272598266602 84.93437957763672 103.0229415893555 87.89676666259766 C 101.0373687744141 90.83144378662109 98.75700378417969 93.59114837646484 96.24521636962891 96.09921264648438 C 93.73338317871094 98.60732269287109 90.96952056884766 100.8843383789063 88.03038787841797 102.8670272827148 C 85.06341552734375 104.8685073852539 81.89170837402344 106.5875015258789 78.60338592529297 107.9762878417969 C 71.76181793212891 110.86572265625 64.49338531494141 112.3307952880859 57 112.3307952880859 Z"
             id="path872"
             style="stroke:#000000;stroke-opacity:1;stroke-width:1.88976378;stroke-miterlimit:4;stroke-dasharray:none"
             stroke="none" />
        </g>
      </g>
    </g>
    <g
       id="Group_76"
       data-name="Group 76"
       transform="translate(-101 -534)">
      <path
         id="Path_38"
         data-name="Path 38"
         d="m 721.57778,369.53329 c 0,5.89858 -0.17078,22.16804 -0.17078,32.73971"
         transform="translate(-571,228)"
         inkscape:connector-curvature="0"
         style="fill:none;stroke:#000000;stroke-width:2"
         sodipodi:nodetypes="cc" />
    </g>
    <g
       id="Group_31"
       data-name="Group 31"
       transform="translate(-101 -534)">
      <g
         id="Path_41"
         data-name="Path 41"
         transform="translate(135 557)"
         fill="#fff">
        <path
           d="M 22.00000190734863 42.00000381469727 C 19.9210205078125 42.00000381469727 17.27609062194824 41.3839225769043 15.09739112854004 40.39217376708984 C 12.62192153930664 39.26534271240234 10.89734077453613 37.75883102416992 10.24134159088135 36.15016174316406 L 10.17704105377197 35.99249267578125 L 10.06419086456299 35.86499404907227 C 8.010571479797363 33.54473495483398 4.893537044525146 31.17051696777344 3.271989107131958 30.11792182922363 C 1.388437032699585 27.31588935852051 2.280727386474609 24.34740829467773 2.93545126914978 22.16930198669434 C 2.97533130645752 22.03664207458496 3.014021158218384 21.90791320800781 3.050821304321289 21.78338241577148 L 3.091811180114746 21.64466285705566 L 3.091811180114746 21.50000190734863 C 3.091811180114746 20.66997337341309 2.954231262207031 19.83022308349609 2.808581352233887 18.941162109375 C 2.52160120010376 17.18953323364258 2.224861145019531 15.37826251983643 3.009751319885254 13.56219291687012 L 3.150151252746582 13.23733234405518 L 3.054951190948486 12.8964729309082 C 2.981171131134033 12.63229274749756 3.053531169891357 11.84326267242432 3.792721271514893 10.56169319152832 C 4.47313117980957 9.382052421569824 5.478161334991455 8.226892471313477 6.550121307373047 7.392422676086426 C 7.299001216888428 6.809032917022705 8.227631568908691 6.420522689819336 9.046931266784668 6.077752590179443 C 10.26193141937256 5.569442749023438 11.40954113006592 5.089322566986084 11.73884105682373 4.00734281539917 L 11.75693130493164 3.947892904281616 L 11.76752090454102 3.886652708053589 C 12.11880111694336 1.856212735176086 16.37531089782715 0.9473627805709839 20.43790054321289 0.9473627805709839 C 20.97615051269531 0.9473627805709839 21.49045181274414 0.9645928144454956 21.92521095275879 0.9972028136253357 C 22.79286193847656 1.062272787094116 25.83520126342773 1.322812795639038 28.55532073974609 1.943182826042175 C 31.86589050292969 2.698212862014771 32.64472961425781 3.536602735519409 32.66548156738281 3.795932769775391 L 32.6697998046875 3.85001277923584 L 32.67995071411133 3.903302669525146 C 32.86215972900391 4.859822750091553 33.71659088134766 5.306932926177979 34.79833984375 5.872992992401123 C 35.89760971069336 6.448232650756836 37.40312194824219 7.236042976379395 38.97747039794922 8.854792594909668 L 39.14719009399414 9.029302597045898 L 39.37812042236328 9.106283187866211 C 39.40692138671875 9.115882873535156 40.08650970458984 9.376182556152344 40.34563064575195 12.40049266815186 C 40.52283096313477 14.46867275238037 40.43493270874023 17.01084327697754 40.36429977416992 19.05351257324219 C 40.33135986328125 20.00606346130371 40.30292129516602 20.82870292663574 40.30292129516602 21.50000190734863 C 40.30292129516602 22.537353515625 40.76632308959961 23.4686222076416 41.21446228027344 24.36922264099121 C 42.03715515136719 26.02252960205078 42.26492309570313 26.73674201965332 41.37285995483398 27.65668296813965 C 39.94840240478516 29.05255508422852 38.8903923034668 30.57396697998047 37.95668029785156 31.91662216186523 C 37.11869049072266 33.12163925170898 36.3888053894043 34.17122650146484 35.62461853027344 34.79840850830078 C 33.49650955200195 35.47686004638672 32.11278533935547 37.14474868774414 30.88764190673828 38.62144088745117 C 30.32727241516113 39.29687881469727 29.79794502258301 39.93487548828125 29.22232055664063 40.46915817260742 C 29.17781257629395 40.5098762512207 29.0833683013916 40.59884262084961 28.96687507629395 40.71006774902344 C 28.60249137878418 40.65092849731445 28.24525260925293 40.62192153930664 27.88601112365723 40.62192153930664 C 26.57698059082031 40.62192153930664 25.51532173156738 41.02328109741211 24.57864189147949 41.37739181518555 C 23.73171043395996 41.69758224487305 22.9317512512207 42.00000381469727 22.00000190734863 42.00000381469727 Z"
           id="path881"
           stroke="none"
           style="stroke:#000000;stroke-opacity:1" />
      </g>
      <g
         id="Path_43"
         data-name="Path 43"
         transform="translate(145 572)">
        <path
           d="M 3.05053448677063 3.992340087890625 C 2.06443452835083 3.992340087890625 0.5000045299530029 3.5871901512146 0.5000045299530029 2.5 C 0.5000045299530029 1.397199988365173 1.397204518318176 0.5000000596046448 2.500004529953003 0.5000000596046448 C 3.058894395828247 0.5000000596046448 3.586784601211548 0.5000000596046448 3.84145450592041 0.6282800436019897 C 3.924474477767944 0.6700900197029114 4.097224712371826 0.757110059261322 4.097224712371826 1.398990035057068 C 4.097224712371826 3.697570085525513 3.537854433059692 3.992340087890625 3.05053448677063 3.992340087890625 Z"
           id="path886"
           stroke="none" />
        <path
           d="M 2.500004529953003 1 C 1.672904491424561 1 1.000004529953003 1.672899961471558 1.000004529953003 2.5 C 1.000004529953003 3.14749002456665 2.190864562988281 3.492340087890625 3.05053448677063 3.492340087890625 C 3.163264513015747 3.492340087890625 3.269744396209717 3.492340087890625 3.399674415588379 3.127749919891357 C 3.597224473953247 2.573379993438721 3.597224473953247 1.689460039138794 3.597224473953247 1.398990154266357 C 3.597224473953247 1.21587872505188 3.580057621002197 1.110307931900024 3.567014217376709 1.056523561477661 C 3.3663010597229 1.000002384185791 2.851363658905029 1 2.500004529953003 1 M 2.500004529953003 0 C 3.880714416503906 0 4.597224712371826 0.01827001571655273 4.597224712371826 1.398990154266357 C 4.597224712371826 2.779700040817261 4.431244373321533 4.492340087890625 3.05053448677063 4.492340087890625 C 1.669824600219727 4.492340087890625 4.291534423828125e-06 3.880710124969482 4.291534423828125e-06 2.5 C 4.291534423828125e-06 1.119290113449097 1.119284391403198 0 2.500004529953003 0 Z"
           id="path888"
           stroke="none" />
      </g>
      <g
         id="Path_42"
         data-name="Path 42"
         transform="translate(163 572)">
        <path
           d="M 2.499999761581421 4.5 C 1.397199749946594 4.5 0.4999997019767761 3.602799892425537 0.4999997019767761 2.5 C 0.4999997019767761 1.397199988365173 1.397199749946594 0.5 2.499999761581421 0.5 C 3.602799654006958 0.5 4.499999523162842 1.397199988365173 4.499999523162842 2.5 C 4.499999523162842 3.077419996261597 5.111159801483154 3.25763988494873 5.602229595184326 3.402440071105957 C 5.663762092590332 3.420585870742798 5.740360260009766 3.443173170089722 5.816401481628418 3.467351913452148 C 5.556421279907227 3.608931064605713 5.112919330596924 3.807775974273682 4.473469734191895 4.026579856872559 C 3.658839702606201 4.305319786071777 2.847319602966309 4.5 2.499999761581421 4.5 Z"
           id="path891"
           stroke="none" />
        <path
           d="M 2.499999523162842 1 C 1.672899723052979 1 0.9999995231628418 1.672899961471558 0.9999995231628418 2.5 C 0.9999995231628418 3.327100038528442 1.672899723052979 4 2.499999523162842 4 C 2.882079124450684 4 3.764646530151367 3.750409603118896 4.520505905151367 3.478379249572754 C 4.227934837341309 3.270811557769775 3.999999761581421 2.965880870819092 3.999999761581421 2.5 C 3.999999761581421 1.672899961471558 3.327099800109863 1 2.499999523162842 1 M 2.499999523162842 0 C 3.880709648132324 0 4.999999523162842 1.119290113449097 4.999999523162842 2.5 C 4.999999523162842 2.962539911270142 6.893159866333008 2.932389974594116 6.497859477996826 3.564330101013184 C 6.239509582519531 4.041679859161377 3.418169736862183 5 2.499999523162842 5 C 1.119289875030518 5 -4.76837158203125e-07 3.880710124969482 -4.76837158203125e-07 2.5 C -4.76837158203125e-07 1.119290113449097 1.119289875030518 0 2.499999523162842 0 Z"
           id="path893"
           stroke="none" />
      </g>
      <path
         id="Path_39"
         data-name="Path 39"
         d="M718.5,359.457s-.954-.654,3.85-.654c2.388,0,10.208.654,10.208.654h5.159"
         transform="translate(-571 228)"
         stroke-width="1"
         stroke="#000"
         fill="none" />
      <path
         id="Path_40"
         data-name="Path 40"
         d="M723.446,363h9.741"
         transform="translate(-571 228)"
         stroke-width="1"
         stroke="#000"
         fill="none" />
    </g>
  </g>
</svg>
