<svg xmlns="http://www.w3.org/2000/svg" viewBox="0 0 512.927 512.166">
  <defs>
    <filter id="a" width="102.296" height="104.786" x="27.973" y="263.35" filterUnits="userSpaceOnUse">
      <feOffset dx="3" dy="3"/>
      <feGaussianBlur result="blur"/>
      <feFlood/>
      <feComposite in2="blur" operator="in" result="result1"/>
      <feComposite in="SourceGraphic" in2="result1"/>
    </filter>
    <filter id="b" width="101.385" height="83.43" x="384.662" y="175.903" filterUnits="userSpaceOnUse">
      <feOffset dx="3" dy="3"/>
      <feGaussianBlur result="blur-2"/>
      <feFlood/>
      <feComposite in2="blur-2" operator="in" result="result1"/>
      <feComposite in="SourceGraphic" in2="result1"/>
    </filter>
  </defs>
  <g data-name="Group 196">
    <g data-name="Group 195">
      <g data-name="Group 194">
        <g data-name="Group 50">
          <g data-name="Group 47">
            <g data-name="Group 45">
              <g data-name="Group 8">
                <g data-name="Component 3 – 9">
                  <path fill="#fbee0a" stroke="#000" stroke-width="12.40569405" d="M256.46341 509.66559c-17.233 0-34.45441-1.7334-51.18587-5.15207-16.30493-3.33151-32.34292-8.30258-47.66859-14.77518-15.04795-6.35534-29.5618-14.22156-43.13854-23.38016-13.44833-9.07205-26.094601-19.49072-37.587536-30.96658-11.492867-11.4758-21.92693-24.10321-31.01233-37.5314-9.172069-13.55628-17.0498-28.04834-23.414402-43.07355-6.481932-15.30234-11.460266-31.31598-14.7965994-47.59613-3.4235998-16.70593-5.1595331-33.90106-5.1595331-51.10773 0-17.20666 1.7359333-34.40179 5.1595331-51.10772 3.3363334-16.28008 8.3146674-32.29375 14.7965994-47.59615 6.364602-15.02519 14.242333-29.5172 23.414402-43.07352 9.0854-13.4282 19.519463-26.055606 31.01233-37.531406 11.492935-11.475868 24.139206-21.894535 37.587536-30.966533 13.57674-9.158665 28.09059-17.024866 43.13854-23.3802 15.32567-6.472534 31.36366-11.443667 47.66859-14.7752 16.73146-3.4186669 33.95293-5.1520667 51.18587-5.1520667 17.233 0 34.45441 1.7333998 51.18585 5.1520667 16.30496 3.331533 32.34302 8.302666 47.66861 14.7752 15.04794 6.355334 29.56186 14.221535 43.13861 23.3802 13.44834 9.071998 26.09461 19.490665 37.58753 30.966533 11.49286 11.4758 21.92688 24.103206 31.01226 37.531406 9.17206 13.55632 17.04981 28.04833 23.4144 43.07352 6.48194 15.3024 11.46027 31.31607 14.7966 47.59615 3.42362 16.70593 5.15955 33.90106 5.15955 51.10772 0 17.20667-1.73593 34.4018-5.15955 51.10773-3.33633 16.28015-8.31466 32.29379-14.7966 47.59613-6.36459 15.02521-14.24234 29.51727-23.4144 43.07355-9.08538 13.42819-19.5194 26.0556-31.01226 37.5314-11.49292 11.47586-24.13919 21.89453-37.58753 30.96658-13.57675 9.1586-28.09067 17.02482-43.13861 23.38016-15.32559 6.4726-31.36365 11.44367-47.66861 14.77518-16.73144 3.41867-33.95285 5.15207-51.18585 5.15207z" data-name="Path 36" transform="matrix(.95144 0 0 .95204 12.45289878 19.72342496)"/>
                  <path fill="none" d="M133.2187585 466.03916594c3.31483155 4.18420115 14.44197137 10.71231657 14.44197137 10.71231657l52.8270358 19.07119849 29.73929108 5.68080278 21.13062404 2.02879014 32.4784989-2.02879014 38.34890956-8.52072816 26.21799612-8.52072816 31.69546034-17.04145632 25.04391399-17.04145632 23.4787883-21.50555624 9.00066205-11.76717319" data-name="Path 109"/>
                </g>
              </g>
            </g>
            <g filter="url(#a)" transform="matrix(.95144 0 0 .95204 12.45289878 19.72342496)">
              <path fill="none" stroke="#cd39cd" stroke-width="4.99525" d="M125.3745 324.55564l-20.41725 17.96718-7.73244-29.37192-19.56675 17.21874-3.06363-11.00193-4.62678-16.59975L49.5534 320.7325l-6.8826-30.12111" data-name="Path 115"/>
            </g>
            <path fill="#ffe1d9" stroke="#000" stroke-width="2" d="M595.373 409.249s-94.729-8.041-81.73-106.561c12.999-98.52 96.64-99.877 96.64-99.877s91.7-7.557 96.029 95.441c2.322 55.206-18.422 84.41-46.013 97.638-7.061 3.391-27.975 15.567-36.07 17.61-11.067 2.826-28.856-4.251-28.856-4.251z" data-name="Path 33" transform="matrix(.95144 0 0 .95204 -328.7073962 -64.55657292)"/>
            <path fill="none" stroke="#000" stroke-width="2" d="M609.984 250.829v20.261s2.344 20.262-20.319 29.614-43.615 33.468-43.615 33.468-31.452 40.284-26.763 51.194" data-name="Path 34" transform="matrix(.95144 0 0 .95204 -362.16873695 83.18809318)"/>
            <path fill="none" stroke="#000" stroke-width="2" d="M546.2 250.829l1.938 15.883s166.183 48.546 151.712 74.417" data-name="Path 35" transform="matrix(.95144 0 0 .95204 -233.09486656 81.19928858)"/>
            <path fill="none" stroke="#000" stroke-width="2" d="M533.013 246.189s13.839 21.314 34.939 22.1c21.1.786 35.168-22.1 35.168-22.1" data-name="Path 37" transform="matrix(.95144 0 0 .95204 -288.87042792 44.29073112)"/>
            <path stroke="#000" d="M165.674 751.707l20.27 10.976 44.013 16.025 22.232 5.383 33.277 2.773h25.079l31.108-2.773 25.8-7.355 30.147-11.093 30.648-16.461 29.138-19.561 26.489-26.489-4.847-9.024-4.087-2.972-4.5-3.627-10.26-7.108-13.191-6.3s-13.489-6.716-22.826-10.7a159.715 159.715 0 00-18.329-6.44L387.241 650l-5.621-2.286-8.669-2.953-15.6-4.71-17.721 10.995-10.824 3.514-4.482.8-7.583.69-17.476 1.18h-25.6l-9.33-.44-11.592-1.363-6.192 6.478-16.2 8.574-8.765 5.335-12.812 10.245-13.191 12.289-6.652 9.019-9.957 13.934-4.954 8.765-5.049 10.1z" data-name="Path 110" transform="matrix(.95144 0 0 .95204 -26.17954114 -264.99361237)"/>
          </g>
          <path fill="#ffe1d9" d="M215.6671063 358.52756934l2.75918815-5.63034484.99521063-3.86812497.7278548-4.51931806v-21.2761154l5.32047592 1.45566406 6.0093215 1.18718972 5.81808124.95774888 8.49734807 2.60477232 6.7305162 1.6070379 7.36037226.54456497 4.37093462-.38081467 4.01699737-1.0567607 4.13402501-1.76221987 6.04737928-2.98749105 6.50121815-3.32260797.9428812 7.70578478.83822233 6.70805034 5.11020675 1.47946498 7.08159911 2.18302008 5.87041066 1.86599186 8.6143757 2.95131367-7.25666484 5.18764779-9.35459929 4.41268994-8.94357539 2.82374076-11.99580836 2.14113046-8.79990732.74354063-7.50404033.42936854h-28.79640989l-7.60489341-.42936854z" data-name="Path 111"/>
        </g>
      </g>
      <path fill="#fbee0a" stroke="#000" stroke-width="5" d="M0 12.843L21.14 0 61.9 40.683 84.018 23.5l32.844 65.8L80 57.379l-18.1 10.8L11.627 23.5z" data-name="Path 74" transform="scale(.95144 .95204) rotate(-17 1531.62835273 -515.76992835)"/>
      <g filter="url(#b)" transform="matrix(.95144 0 0 .95204 12.45289878 19.72342496)">
        <path fill="none" stroke="#cd39cd" stroke-width="5.01125" d="M400.48395 255.9251l-6.10827-28.50526 31.91454 9.42382-6.66351-31.09638 30.55213 9.71474-6.38568-29.79984 28.91525 8.71045" data-name="Path 116"/>
      </g>
    </g>
  </g>
</svg>
