<?xml version="1.0" encoding="UTF-8" standalone="no"?>
<svg
   xmlns:dc="http://purl.org/dc/elements/1.1/"
   xmlns:cc="http://creativecommons.org/ns#"
   xmlns:rdf="http://www.w3.org/1999/02/22-rdf-syntax-ns#"
   xmlns:svg="http://www.w3.org/2000/svg"
   xmlns="http://www.w3.org/2000/svg"
   xmlns:sodipodi="http://sodipodi.sourceforge.net/DTD/sodipodi-0.dtd"
   xmlns:inkscape="http://www.inkscape.org/namespaces/inkscape"
   width="114"
   height="113.831"
   viewBox="0 0 114 113.831"
   version="1.1"
   id="svg915"
   sodipodi:docname="icon-window.svg"
   inkscape:version="0.92.5 (2060ec1f9f, 2020-04-08)">
  <metadata
     id="metadata921">
    <rdf:RDF>
      <cc:Work
         rdf:about="">
        <dc:format>image/svg+xml</dc:format>
        <dc:type
           rdf:resource="http://purl.org/dc/dcmitype/StillImage" />
        <dc:title></dc:title>
      </cc:Work>
    </rdf:RDF>
  </metadata>
  <defs
     id="defs919" />
  <sodipodi:namedview
     pagecolor="#ffffff"
     bordercolor="#666666"
     borderopacity="1"
     objecttolerance="10"
     gridtolerance="10"
     guidetolerance="10"
     inkscape:pageopacity="0"
     inkscape:pageshadow="2"
     inkscape:window-width="1920"
     inkscape:window-height="1001"
     id="namedview917"
     showgrid="false"
     inkscape:zoom="2.8284271"
     inkscape:cx="121.8429"
     inkscape:cy="66.568134"
     inkscape:window-x="-9"
     inkscape:window-y="-9"
     inkscape:window-maximized="1"
     inkscape:current-layer="Group_80" />
  <g
     id="Group_80"
     data-name="Group 80"
     transform="translate(-531 -969)">
    <g
       id="Group_36"
       data-name="Group 36"
       transform="translate(8 746)">
      <g
         id="Group_35"
         data-name="Group 35">
        <g
           id="Group_28"
           data-name="Group 28"
           transform="translate(523 223)">
          <g
             id="Component_3_5"
             data-name="Component 3 – 5">
            <g
               id="Path_36"
               data-name="Path 36"
               fill="silver">
              <path
                 d="M 57 112.3307952880859 C 49.50661468505859 112.3307952880859 42.23818588256836 110.86572265625 35.39661407470703 107.9762878417969 C 32.10829162597656 106.5875015258789 28.93658447265625 104.8685073852539 25.9696159362793 102.8670272827148 C 23.03047752380371 100.8843383789063 20.26661491394043 98.60732269287109 17.75478553771973 96.09921264648438 C 15.24300003051758 93.59114837646484 12.96263122558594 90.83144378662109 10.97706127166748 87.89676666259766 C 8.972738265991211 84.93437957763672 7.251276969909668 81.76760101318359 5.860538482666016 78.48438262939453 C 2.967092275619507 71.65365600585938 1.5 64.39681243896484 1.5 56.91539764404297 C 1.5 49.43398284912109 2.967092275619507 42.1771354675293 5.860538482666016 35.34641265869141 C 7.251276969909668 32.06319808959961 8.972738265991211 28.89641380310059 10.97706127166748 25.93402862548828 C 12.96263122558594 22.99935150146484 15.24300003051758 20.23964309692383 17.75478553771973 17.73158264160156 C 20.26661491394043 15.22347450256348 23.03047752380371 12.94645881652832 25.9696159362793 10.96376705169678 C 28.93658447265625 8.962289810180664 32.10829162597656 7.243289947509766 35.39661407470703 5.85450553894043 C 42.23818588256836 2.96507453918457 49.50661468505859 1.499997615814209 57 1.499997615814209 C 64.49338531494141 1.499997615814209 71.76181793212891 2.96507453918457 78.60338592529297 5.85450553894043 C 81.89170837402344 7.243289947509766 85.06341552734375 8.962289810180664 88.03038787841797 10.96376705169678 C 90.96952056884766 12.94645881652832 93.73338317871094 15.22347450256348 96.24521636962891 17.73158264160156 C 98.75700378417969 20.23964309692383 101.0373687744141 22.99935150146484 103.0229415893555 25.93402862548828 C 105.0272598266602 28.89641380310059 106.7487258911133 32.06319808959961 108.1394653320313 35.34641265869141 C 111.0329055786133 42.1771354675293 112.5 49.43398284912109 112.5 56.91539764404297 C 112.5 64.39681243896484 111.0329055786133 71.65365600585938 108.1394653320313 78.48438262939453 C 106.7487258911133 81.76760101318359 105.0272598266602 84.93437957763672 103.0229415893555 87.89676666259766 C 101.0373687744141 90.83144378662109 98.75700378417969 93.59114837646484 96.24521636962891 96.09921264648438 C 93.73338317871094 98.60732269287109 90.96952056884766 100.8843383789063 88.03038787841797 102.8670272827148 C 85.06341552734375 104.8685073852539 81.89170837402344 106.5875015258789 78.60338592529297 107.9762878417969 C 71.76181793212891 110.86572265625 64.49338531494141 112.3307952880859 57 112.3307952880859 Z"
                 stroke="none"
                 id="path869"
                 style="stroke:#000000;stroke-opacity:1;stroke-width:1.88976378;stroke-miterlimit:4;stroke-dasharray:none" />
            </g>
          </g>
        </g>
        <g
           id="Path_58"
           data-name="Path 58"
           transform="translate(549 250)"
           fill="#23dace">
          <path
             d="M 60.09108734130859 58 L 0.8882135152816772 58 L 0.5352315306663513 55.02932739257813 L 0.9930059313774109 51.1796989440918 L 1.00450599193573 51.08306884765625 L 0.99714595079422 50.98603057861328 L 0.5300504565238953 44.82443237304688 L 0.9988159537315369 35.23981094360352 L 1.002355933189392 35.16735076904297 L 0.995405912399292 35.09513854980469 L 0.5314353704452515 30.27534675598145 L 0.9962009191513062 23.37813758850098 L 1.533215880393982 18.65531921386719 L 1.544415950775146 18.55682945251465 L 1.53605592250824 18.45804977416992 L 1.006223201751709 12.19425868988037 L 1.528905987739563 8.65248966217041 L 1.550445914268494 8.506489753723145 L 1.528905987739563 8.360489845275879 L 1.000005960464478 4.776592254638672 L 1.000005960464478 1.064144372940063 L 7.868266105651855 1.491430044174194 L 7.925466060638428 1.494989991188049 L 7.982696056365967 1.491989970207214 L 17.34357261657715 1.001385927200317 L 26.62667655944824 1.49196994304657 L 26.68569564819336 1.495090007781982 L 26.74468612670898 1.491230010986328 L 34.22115325927734 1.002436757087708 L 40.76416778564453 1.49058997631073 L 40.8298454284668 1.495489954948425 L 40.89560699462891 1.491729974746704 L 49.47132110595703 1.001788973808289 L 57.26893615722656 1.491389989852905 L 57.36725616455078 1.497570037841797 L 57.46489715576172 1.484439969062805 L 60.07874298095703 1.132906079292297 L 60.60555648803711 8.473696708679199 L 60.00934600830078 12.80455017089844 L 59.99467468261719 12.91112995147705 L 60.00300598144531 13.01838970184326 L 60.60636520385742 20.78439712524414 L 60.00558471679688 26.45001983642578 L 59.99710464477539 26.52997970581055 L 60.00150680541992 26.61026000976563 L 60.60863494873047 37.67439651489258 L 60.00224685668945 46.71583938598633 L 59.99650573730469 46.80147171020508 L 60.00543594360352 46.88682174682617 L 60.60548400878906 52.62199783325195 L 60.09108734130859 58 Z"
             stroke="none"
             id="path876"
             style="stroke:#000000;stroke-opacity:1;stroke-width:1.88976378;stroke-miterlimit:4;stroke-dasharray:none" />
        </g>
        <path
           id="Path_55"
           data-name="Path 55"
           d="M910,146.5l17.409-1.382,23.534,2.1,18.99-.722"
           transform="translate(-361 133)"
           fill="none"
           stroke="#000"
           stroke-width="2" />
        <path
           id="Path_56"
           data-name="Path 56"
           d="M941,118.448l1,15.1-1,16.916-.707,12.8.707,12.1"
           transform="translate(-361 133)"
           fill="none"
           stroke="#000"
           stroke-width="2" />
        <path
           id="Path_57"
           data-name="Path 57"
           d="M906.35,180.15h68.539"
           transform="translate(-361 132)"
           fill="none"
           stroke="#000"
           stroke-width="2" />
        <g
           id="Group_32"
           data-name="Group 32"
           transform="translate(416 -277)">
          <g
             id="Path_41"
             data-name="Path 41"
             transform="translate(135 557)"
             fill="#fff">
            <path
               d="M 13.34900283813477 25.0000057220459 C 12.19194221496582 25.0000057220459 10.71435260772705 24.64283561706543 9.492842674255371 24.06789588928223 C 8.139092445373535 23.43069648742676 7.202612400054932 22.59564590454102 6.855922222137451 21.71654510498047 L 6.794402599334717 21.560546875 L 6.685352325439453 21.43314552307129 C 5.487647533416748 20.03390884399414 3.68659520149231 18.60381889343262 2.699409484863281 17.93052101135254 C 1.749312400817871 16.39773178100586 2.234421491622925 14.72879409790039 2.591752290725708 13.49959564208984 C 2.615252256393433 13.41873550415039 2.638062477111816 13.34027576446533 2.659752368927002 13.26437568664551 L 2.698242425918579 13.12968635559082 L 2.698242425918579 12.98960590362549 C 2.698242425918579 12.45784568786621 2.611632347106934 11.91118621826172 2.527872323989868 11.3825159072876 C 2.360762357711792 10.32786560058594 2.202932357788086 9.331706047058105 2.620892286300659 8.33172607421875 L 2.752922296524048 8.015846252441406 L 2.665051937103271 7.690517425537109 C 2.650925874710083 7.595421314239502 2.69921088218689 7.18291187286377 3.093022346496582 6.496985912322998 C 3.466142416000366 5.847075939178467 4.006272315979004 5.211825847625732 4.574912548065186 4.754106044769287 C 4.969252586364746 4.436446189880371 5.462612152099609 4.223025798797607 5.939722537994385 4.016625881195068 C 6.706062316894531 3.685116052627563 7.498482227325439 3.342305898666382 7.743362426757813 2.510365962982178 L 7.760392189025879 2.452516078948975 L 7.770342350006104 2.393025875091553 C 7.90823221206665 1.568856000900269 9.913522720336914 0.9473559856414795 12.43481254577637 0.9473559856414795 C 12.81889247894287 0.9473559856414795 13.10190200805664 0.9630559682846069 13.27168273925781 0.9762259721755981 C 13.71137237548828 1.010326027870178 15.26043224334717 1.145936012268066 16.73279190063477 1.45931601524353 C 18.61598205566406 1.860133767127991 19.09427642822266 2.277133226394653 19.1843433380127 2.375168085098267 L 19.19061279296875 2.409185886383057 C 19.33101272583008 3.17128586769104 19.96409225463867 3.513835906982422 20.63435173034668 3.876505851745605 C 21.25276184082031 4.21112585067749 22.09972190856934 4.669395923614502 22.97575187683105 5.600785732269287 L 23.1449031829834 5.780625820159912 L 23.30622673034668 5.836227416992188 C 23.37845802307129 5.943618774414063 23.61049461364746 6.396254062652588 23.69644165039063 7.864686012268066 C 23.76434326171875 9.024775505065918 23.7185115814209 10.39536571502686 23.68168258666992 11.4966459274292 C 23.66229248046875 12.076416015625 23.64555168151855 12.57712554931641 23.64555168151855 12.98960590362549 C 23.64555168151855 13.70320606231689 23.94895172119141 14.3336763381958 24.21664237976074 14.88992595672607 C 24.68797302246094 15.86936187744141 24.7130069732666 16.09283065795898 24.38083839416504 16.44853973388672 C 23.52259063720703 17.3189697265625 22.89336395263672 18.25459861755371 22.33793258666992 19.08048629760742 C 21.8858585357666 19.75267028808594 21.4896183013916 20.34185409545898 21.1038990020752 20.69205665588379 C 19.78986549377441 21.15528106689453 18.95849990844727 22.1914005279541 18.220703125 23.1109561920166 C 17.90147590637207 23.50881385803223 17.59992790222168 23.88465118408203 17.2823371887207 24.18962287902832 C 17.28072166442871 24.19115447998047 17.27901840209961 24.19277381896973 17.2772274017334 24.19448089599609 C 17.11442375183105 24.17558479309082 16.95289611816406 24.16607666015625 16.79364204406738 24.16607666015625 C 15.9459924697876 24.16607666015625 15.28454208374023 24.42464637756348 14.70096206665039 24.65277671813965 C 14.22433280944824 24.83909606933594 13.81270217895508 25.0000057220459 13.34900283813477 25.0000057220459 Z"
               stroke="none"
               id="path884"
               style="stroke-width:1.13385827;stroke-miterlimit:4;stroke-dasharray:none;stroke:#000000;stroke-opacity:1" />
          </g>
          <g
             id="Path_43"
             data-name="Path 43"
             transform="translate(141.287 566.028)">
            <path
               d="M 1.895827174186707 2.291864395141602 C 1.316237092018127 2.291864395141602 0.4999971091747284 2.062844276428223 0.4999971091747284 1.55368435382843 C 0.4999971091747284 0.9726843237876892 0.9726771116256714 0.5000043511390686 1.55368709564209 0.5000043511390686 C 1.792117118835449 0.5000043511390686 2.235927104949951 0.5000043511390686 2.311857223510742 0.5652043223381042 C 2.311817169189453 0.5652443170547485 2.357057094573975 0.6255843639373779 2.357057094573975 0.8694343566894531 C 2.357057094573975 1.191764354705811 2.343597173690796 1.658044338226318 2.227237224578857 1.984584331512451 C 2.117727041244507 2.291864395141602 1.989477157592773 2.291864395141602 1.895827174186707 2.291864395141602 Z"
               stroke="none"
               id="path889" />
            <path
               d="M 1.55368709564209 1.000004291534424 C 1.252942562103271 1.000004291534424 1.0074383020401 1.241038084030151 1.000220537185669 1.542357206344604 C 1.073537230491638 1.626630067825317 1.369860053062439 1.762689352035522 1.767599582672119 1.787807941436768 C 1.80333399772644 1.674397468566895 1.848350763320923 1.445359349250793 1.85594630241394 1.002564430236816 C 1.751815438270569 1.000004291534424 1.639039635658264 1.000004291534424 1.55368709564209 1.000004291534424 M 1.55368709564209 4.291534423828125e-06 C 2.411756992340088 4.291534423828125e-06 2.857057094573975 0.01135444641113281 2.857057094573975 0.8694343566894531 C 2.857057094573975 1.727504372596741 2.753907203674316 2.791864395141602 1.895827054977417 2.791864395141602 C 1.037747144699097 2.791864395141602 -2.86102294921875e-06 2.411754369735718 -2.86102294921875e-06 1.55368435382843 C -2.86102294921875e-06 0.6956043243408203 0.6956071853637695 4.291534423828125e-06 1.55368709564209 4.291534423828125e-06 Z"
               stroke="none"
               id="path891" />
          </g>
          <g
             id="Path_42"
             data-name="Path 42"
             transform="translate(151.679 566.024)">
            <path
               d="M 1.553686618804932 2.607362747192383 C 0.9726765751838684 2.607362747192383 0.4999965727329254 2.134682893753052 0.4999965727329254 1.553682804107666 C 0.4999965727329254 0.9726828336715698 0.9726765751838684 0.5000028014183044 1.553686618804932 0.5000028014183044 C 2.134686470031738 0.5000028014183044 2.607366561889648 0.9726828336715698 2.607366561889648 1.553682804107666 C 2.607366561889648 1.894901156425476 2.846274375915527 2.073873043060303 3.095611095428467 2.181914567947388 C 2.573366641998291 2.38746190071106 1.844396710395813 2.607362747192383 1.553686618804932 2.607362747192383 Z"
               stroke="none"
               id="path894" />
            <path
               d="m 1.5536866,1.0000029 c -0.30531,0 -0.55368994,0.2483799 -0.55368994,0.5536799 0,0.3053 0.24837994,0.5536799 0.55098984,0.55371 C 1.6714287,2.1039305 1.9129174,2.047009 2.1822796,1.967401 2.1350231,1.8477628 2.1073666,1.7107656 2.1073666,1.5536828 c 0,-0.3053 -0.24838,-0.5536799 -0.55368,-0.5536799 m 0,-1.0000000389771 c 0.8580699,0 1.55368,0.6956000289771 1.55368,1.5536799389771 0,0.28745 0.2339143,0.2355019 -0.011756,0.6282318 C 2.935051,2.4785745 2.1243067,3.1073627 1.5536866,3.1073627 0.69560647,3.1073627 -3.3378601e-6,2.4117627 -3.3378601e-6,1.5536828 -3.3378601e-6,0.69560289 0.69560647,2.8610229e-6 1.5536866,2.8610229e-6 Z"
               id="path896"
               inkscape:connector-curvature="0"
               style="stroke:none"
               sodipodi:nodetypes="csccscsscsss" />
          </g>
          <path
             id="Path_39"
             data-name="Path 39"
             d="m 718.471,359.21 c 0,0 -0.0865,-0.46368 0.34601,-0.57913 0.30545,-0.0815 0.81104,0.17313 2.04699,0.17313 1.484,0 6.344,0.406 6.344,0.406 h 3.206"
             transform="translate(-576.029,216.203)"
             inkscape:connector-curvature="0"
             style="fill:none;stroke:#000000;stroke-width:1"
             sodipodi:nodetypes="csscc" />
          <path
             id="Path_40"
             data-name="Path 40"
             d="M723.446,363H729.5"
             transform="translate(-577.942 214.554)"
             fill="none"
             stroke="#000"
             stroke-width="1" />
        </g>
      </g>
      <g
         id="Ellipse_4"
         data-name="Ellipse 4"
         transform="translate(587 232)"
         fill="#fbee0a"
         stroke="#000"
         stroke-width="1">
        <ellipse
           cx="7.5"
           cy="7"
           rx="7.5"
           ry="7"
           stroke="none"
           id="ellipse903" />
        <ellipse
           cx="7.5"
           cy="7"
           rx="7"
           ry="6.5"
           fill="none"
           id="ellipse905" />
      </g>
      <path
         id="Path_59"
         data-name="Path 59"
         d="M944,103.544l-7.718,2"
         transform="matrix(0.839, 0.545, -0.545, 0.839, -150.389, -364.172)"
         fill="none"
         stroke="#000"
         stroke-width="1" />
      <path
         id="Path_60"
         data-name="Path 60"
         d="M945.837,109.765l-4.444,2.444"
         transform="translate(-361 133)"
         fill="none"
         stroke="#000"
         stroke-width="1" />
      <path
         id="Path_61"
         data-name="Path 61"
         d="M950.947,113l-3.555,3.653"
         transform="translate(-361 133)"
         fill="none"
         stroke="#000"
         stroke-width="1" />
      <path
         id="Path_62"
         data-name="Path 62"
         d="M957.169,113l1.13,2.209"
         transform="translate(-361 134)"
         fill="none"
         stroke="#000"
         stroke-width="1" />
      <path
         id="Path_63"
         data-name="Path 63"
         d="M965.168,110.987l7.332,5.222"
         transform="translate(-361 133)"
         fill="none"
         stroke="#000"
         stroke-width="1" />
    </g>
  </g>
</svg>
