<svg xmlns="http://www.w3.org/2000/svg" viewBox="0 0 114 113.831">
  <g data-name="Group 18">
    <g data-name="Group 17">
      <g data-name="Group 9">
        <g data-name="Group 12">
          <g data-name="Component 3 – 2">
            <g data-name="Group 78">
              <g data-name="Group 79">
                <path fill="#233bda" stroke="#000" stroke-width="2.5" d="M57 112.3308c-7.4934 0-14.7618-1.465-21.6034-4.3545a55.5284 55.5284 0 01-9.427-5.1093 55.8867 55.8867 0 01-8.2148-6.7678 55.8394 55.8394 0 01-6.7777-8.2024c-2.0044-2.9624-3.7258-6.1292-5.1166-9.4124C2.9671 71.6537 1.5 64.3968 1.5 56.9154c0-7.4814 1.467-14.7383 4.3605-21.569 1.3908-3.2832 3.1122-6.45 5.1166-9.4124a55.8392 55.8392 0 016.7777-8.2024 55.887 55.887 0 018.2148-6.7678 55.5285 55.5285 0 019.427-5.1093C42.2382 2.9651 49.5066 1.5 57 1.5c7.4934 0 14.7618 1.465 21.6034 4.3545a55.5287 55.5287 0 019.427 5.1093 55.8875 55.8875 0 018.2148 6.7678 55.8393 55.8393 0 016.7777 8.2024c2.0044 2.9624 3.7258 6.1292 5.1166 9.4124 2.8934 6.8307 4.3605 14.0876 4.3605 21.569 0 7.4814-1.467 14.7383-4.3605 21.569-1.3908 3.2832-3.1122 6.45-5.1166 9.4124a55.8395 55.8395 0 01-6.7777 8.2024 55.8872 55.8872 0 01-8.2148 6.7678 55.5286 55.5286 0 01-9.427 5.1093c-6.8416 2.8894-14.11 4.3545-21.6034 4.3545z" data-name="Path 36"/>
              </g>
            </g>
          </g>
        </g>
      </g>
    </g>
    <g data-name="Group 15">
      <path fill="none" stroke="#000" stroke-width="6" d="M33.5 24.5l1 66" data-name="Line 2"/>
      <path fill="none" stroke="#000" stroke-width="6" d="M56.807 24.5l1 66" data-name="Line 3"/>
      <path fill="none" stroke="#000" stroke-width="6" d="M80.114 24.5l1 66" data-name="Line 4"/>
      <g fill="#be80d9" stroke="#000" data-name="Ellipse 1" transform="translate(26 75)">
        <circle cx="8" cy="8" r="8" stroke="none"/>
        <circle cx="8" cy="8" r="7.5" fill="none"/>
      </g>
      <g fill="#fbee0a" stroke="#000" data-name="Ellipse 2" transform="translate(49 48)">
        <circle cx="8" cy="8" r="8" stroke="none"/>
        <circle cx="8" cy="8" r="7.5" fill="none"/>
      </g>
      <g fill="#23dace" stroke="#000" data-name="Ellipse 3" transform="translate(72 23)">
        <circle cx="8" cy="8" r="8" stroke="none"/>
        <circle cx="8" cy="8" r="7.5" fill="none"/>
      </g>
    </g>
  </g>
</svg>
