<svg xmlns="http://www.w3.org/2000/svg" viewBox="0 0 114 114">
  <defs/>
  <g data-name="Group 23">
    <g data-name="Component 3 – 4">
      <path fill="#be80d9" stroke="#000" stroke-width="2.5" d="M57 112.33079529c-7.49338531 0-14.76181412-1.46507263-21.60338593-4.35450745-3.28832244-1.38878631-6.4600296-3.10778045-9.42699813-5.10926056-2.93913842-1.9826889-5.70300103-4.25970459-8.2148304-6.76781463-2.5117855-2.50806427-4.79215431-5.26776886-6.77772427-8.20244599-2.004323-2.96238708-3.7257843-6.12916565-5.11652279-9.41238403C2.96709228 71.653656 1.5 64.39681243 1.5 56.91539764c0-7.4814148 1.46709228-14.73826217 4.36053848-21.56898498 1.39073849-3.28321457 3.11219979-6.44999886 5.1165228-9.41238403 1.98556995-2.93467713 4.26593875-5.69438553 6.77772426-8.20244599 2.51182937-2.50810814 5.27569198-4.78512382 8.2148304-6.76781559 2.96696853-2.00147724 6.13867569-3.7204771 9.42699813-5.10926151C42.23818588 2.96507454 49.5066147 1.49999762 57 1.49999762c7.49338531 0 14.76181793 1.46507692 21.60338593 4.35450792 3.28832244 1.3887844 6.4600296 3.10778427 9.42700195 5.10926151 2.93913269 1.98269177 5.7029953 4.25970745 8.21482849 6.7678156 2.51178741 2.50806045 4.7921524 5.26776885 6.77772522 8.20244598 2.00431824 2.96238517 3.7257843 6.12916946 5.11652374 9.41238403C111.03290558 42.17713546 112.5 49.43398285 112.5 56.91539764c0 7.4814148-1.46709442 14.73825837-4.36053467 21.56898499-1.39073944 3.28321838-3.1122055 6.44999695-5.11652374 9.41238403-1.98557282 2.93467713-4.2659378 5.69438172-6.77772522 8.20244599-2.5118332 2.50811004-5.2756958 4.78512573-8.2148285 6.76781463-2.96697234 2.0014801-6.1386795 3.72047425-9.42700194 5.10926056C71.76181793 110.86572266 64.4933853 112.3307953 57 112.3307953z" data-name="Path 36"/>
    </g>
    <g data-name="Group 25">
      <path fill="#fbee0a" stroke="#000" stroke-width="3" d="M44.034 39.414H21v46.52h71.086v-46.52H68.927" data-name="Path 24"/>
      <path fill="#fb2a0a" stroke="#000" stroke-width="3" d="M57.868 43.33a31.022 31.022 0 01-7.291-6.863c-2.119-2.989-3.4-7.08-3.346-8.767-.236-1.71.638-5.141 2.848-8.107a37.244 37.244 0 017.242-6.872 34.267 34.267 0 016.5 6.872c1.91 2.839 3.023 6.463 2.776 8.107a19.722 19.722 0 01-2.776 8.307c-2.3 3.822-7.622 7.323-7.622 7.323" data-name="Path 25"/>
      <g fill="#233bda" data-name="Path 32">
        <path d="M56.9493052 21.81771573c-.83609997 0-1.51631-.83096981-1.51631-1.85235977s.68021003-1.85236001 1.51631-1.85236001c.83610011 0 1.51630998.83097005 1.51630998 1.85236 0 1.02138997-.68020987 1.85235978-1.51630997 1.85235978z"/>
        <path d="M56.9493052 18.61299595c-.55089997 0-1.01630997.6193099-1.01630997 1.35236 0 .73304988.46541 1.35236002 1.01630998 1.35236002s1.01630997-.61931014 1.01630997-1.35236001c0-.73305011-.46540999-1.35236001-1.01630997-1.35236001m0-.99999976c1.11356997 0 2.01630997 1.05318975 2.01630997 2.35235977 0 1.29917001-.90274 2.35235977-2.01630997 2.35235977-1.11356998 0-2.01630998-1.05318976-2.01630998-2.35235977 0-1.29917002.90274-2.35235977 2.01630998-2.35235977z"/>
      </g>
      <path fill="none" stroke="#000" d="M35.26467 53.822267L58.5 73.632l22.932-20.233" data-name="Path 31"/>
    </g>
    <g data-name="Group 26">
      <path fill="none" stroke="#000" stroke-width="2" d="M54.135284 41.51916a6.84201368 6.84201368 0 00-2.64894 2.214552 5.31901064 5.31901064 0 00-.757264 3.671416" data-name="Path 26"/>
      <path fill="none" stroke="#000" stroke-width="2" d="M63.89737314 47.16411233a7.161 7.161 0 00-1.09840272-3.49156476 5.319 5.319 0 00-3.1561774-2.02395878" data-name="Path 27"/>
      <path fill="none" stroke="#000" stroke-width="2" d="M50.524 51.876v6.255" data-name="Path 28"/>
      <path fill="none" stroke="#000" stroke-width="2" d="M56.69 47.405v4.907" data-name="Path 29"/>
      <path fill="none" stroke="#000" stroke-width="2" d="M63.971 51.876v6.255" data-name="Path 30"/>
    </g>
  </g>
</svg>
