<svg xmlns="http://www.w3.org/2000/svg" viewBox="0 0 114 113.831">
  <g data-name="Group 80">
    <g data-name="Group 36">
      <g data-name="Group 35">
        <g data-name="Group 28">
          <g data-name="Component 3 – 5">
            <path fill="silver" stroke="#000" stroke-width="2.5" d="M57 112.3308c-7.4934 0-14.7618-1.465-21.6034-4.3545a55.5284 55.5284 0 01-9.427-5.1093 55.8867 55.8867 0 01-8.2148-6.7678 55.8394 55.8394 0 01-6.7777-8.2024c-2.0044-2.9624-3.7258-6.1292-5.1166-9.4124C2.9671 71.6537 1.5 64.3968 1.5 56.9154c0-7.4814 1.467-14.7383 4.3605-21.569 1.3908-3.2832 3.1122-6.45 5.1166-9.4124a55.8392 55.8392 0 016.7777-8.2024 55.887 55.887 0 018.2148-6.7678 55.5285 55.5285 0 019.427-5.1093C42.2382 2.9651 49.5066 1.5 57 1.5c7.4934 0 14.7618 1.465 21.6034 4.3545a55.5287 55.5287 0 019.427 5.1093 55.8875 55.8875 0 018.2148 6.7678 55.8393 55.8393 0 016.7777 8.2024c2.0044 2.9624 3.7258 6.1292 5.1166 9.4124 2.8934 6.8307 4.3605 14.0876 4.3605 21.569 0 7.4814-1.467 14.7383-4.3605 21.569-1.3908 3.2832-3.1122 6.45-5.1166 9.4124a55.8395 55.8395 0 01-6.7777 8.2024 55.8872 55.8872 0 01-8.2148 6.7678 55.5286 55.5286 0 01-9.427 5.1093c-6.8416 2.8894-14.11 4.3545-21.6034 4.3545z" data-name="Path 36"/>
          </g>
        </g>
        <path fill="#23dace" stroke="#000" stroke-width="1.88976378" d="M86.091 85H26.8883l-.353-2.9707.4578-3.8496.0115-.0966-.0074-.097-.467-6.1617.4687-9.5846.0036-.0724-.007-.0723-.464-4.8198.4648-6.8972.537-4.7228.0112-.0985-.0083-.0988-.5299-6.2637.5227-3.5418.0215-.146-.0215-.146L27 31.7765v-3.7124l6.8683.4273.0572.0036.0572-.003 9.3609-.4906 9.283.4906.0591.003.059-.0038 7.4765-.4888 6.543.4882.0656.0049.0658-.0038 8.5757-.49 7.7976.4897.0984.0062.0976-.0132 2.6138-.3515.5269 7.3408-.5963 4.3309-.0146.1065.0083.1073.6034 7.766-.6008 5.6656-.0085.08.0044.0803.6071 11.0641-.6064 9.0414-.0057.0857.009.0853.6 5.7352L86.091 85z" data-name="Path 58"/>
        <path fill="none" stroke="#000" stroke-width="2" d="M26 56.5l17.409-1.382 23.534 2.1 18.99-.722" data-name="Path 55"/>
        <path fill="none" stroke="#000" stroke-width="2" d="M57 28.448l1 15.1-1 16.916-.707 12.8.707 12.1" data-name="Path 56"/>
        <path fill="none" stroke="#000" stroke-width="2" d="M22.35 89.15h68.539" data-name="Path 57"/>
        <g data-name="Group 32">
          <path fill="#fff" stroke="#000" stroke-width="1.13385827" d="M41.349 82c-1.157 0-2.6346-.3572-3.8562-.9321-1.3537-.6372-2.2902-1.4723-2.6369-2.3514l-.0615-.156-.109-.1274c-1.1978-1.3992-2.9988-2.8293-3.986-3.5026-.95-1.5328-.465-3.2017-.1076-4.4309.0235-.0809.0463-.1593.068-.2352l.0384-.1347v-.14c0-.5319-.0866-1.0785-.1703-1.6072-.1671-1.0546-.325-2.0508.093-3.0508l.132-.3159-.0878-.3253c-.0142-.095.0341-.5076.428-1.1935.373-.65.9132-1.2852 1.4818-1.7429.3944-.3177.8877-.531 1.3648-.7375.7664-.3315 1.5588-.6743 1.8037-1.5062l.017-.0579.01-.0595c.1378-.8241 2.1431-1.4456 4.6644-1.4456.384 0 .6671.0157.8369.0288.4397.0341 1.9887.1697 3.461.4831 1.8833.4008 2.3616.8178 2.4516.9159l.0063.034c.1404.762.7735 1.1046 1.4438 1.4673.6184.3346 1.4653.7929 2.3414 1.7243l.1691.1798.1613.0556c.0723.1074.3043.56.3902 2.0285.068 1.16.0221 2.5307-.0147 3.632-.0194.5797-.0361 1.0804-.0361 1.493 0 .7135.3034 1.344.571 1.9002.4714.9795.4964 1.203.1642 1.5586-.8582.8705-1.4874 1.8061-2.0429 2.632-.452.6722-.8483 1.2614-1.234 1.6116-1.314.4632-2.1454 1.4993-2.8832 2.4189-.3192.3978-.6208.7737-.9384 1.0786a2.6426 2.6426 0 00-.005.0049 4.1962 4.1962 0 00-.4837-.0284c-.8476 0-1.509.2585-2.0926.4867-.4767.1863-.8883.3472-1.352.3472z" data-name="Path 41"/>
          <g data-name="Path 43">
            <path d="M36.1828 68.3199c-.5796 0-1.3958-.229-1.3958-.7382 0-.581.4727-1.0537 1.0537-1.0537.2384 0 .6822 0 .7582.0652 0 0 .0452.0604.0452.3042 0 .3224-.0135.7886-.1299 1.1152-.1095.3073-.2377.3073-.3314.3073z"/>
            <path d="M35.8407 67.028c-.3008 0-.5463.241-.5535.5424.0733.0842.3697.2203.7674.2454.0357-.1134.0808-.3424.0883-.7852-.104-.0026-.2169-.0026-.3022-.0026m0-1c.858 0 1.3034.0114 1.3034.8694 0 .8581-.1032 1.9225-.9613 1.9225-.858 0-1.8958-.3801-1.8958-1.2382s.6956-1.5537 1.5537-1.5537z"/>
          </g>
          <g data-name="Path 42">
            <path d="M46.2327 68.6314c-.581 0-1.0537-.4727-1.0537-1.0537 0-.581.4727-1.0537 1.0537-1.0537.581 0 1.0537.4727 1.0537 1.0537 0 .3412.2389.5202.4882.6282-.5222.2056-1.2512.4255-1.542.4255z"/>
            <path d="M46.2327 67.024a.5543.5543 0 00-.5537.5537c0 .3053.2484.5537.551.5537.1204-.0035.362-.0604.6313-.14-.0473-.1196-.075-.2566-.075-.4137a.5543.5543 0 00-.5536-.5537m0-1c.858 0 1.5537.6956 1.5537 1.5537 0 .2874.2339.2355-.0118.6282-.1605.2967-.9713.9255-1.542.9255-.858 0-1.5536-.6956-1.5536-1.5537 0-.8581.6956-1.5537 1.5537-1.5537z"/>
          </g>
          <path fill="none" stroke="#000" d="M35.442 75.413s-.0865-.4637.346-.5791c.3055-.0815.811.1731 2.047.1731 1.484 0 6.344.406 6.344.406h3.206" data-name="Path 39"/>
          <path fill="none" stroke="#000" d="M38.504 77.554h6.054" data-name="Path 40"/>
        </g>
      </g>
      <g fill="#fbee0a" stroke="#000" data-name="Ellipse 4" transform="translate(64 9)">
        <ellipse cx="7.5" cy="7" stroke="none" rx="7.5" ry="7"/>
        <ellipse cx="7.5" cy="7" fill="none" rx="7" ry="6.5"/>
      </g>
      <path fill="none" stroke="#000" stroke-width="1.00047" d="M62.1955 14.1814l-7.5654-2.5283" data-name="Path 59"/>
      <path fill="none" stroke="#000" d="M61.837 19.765l-4.444 2.444" data-name="Path 60"/>
      <path fill="none" stroke="#000" d="M66.947 23l-3.555 3.653" data-name="Path 61"/>
      <path fill="none" stroke="#000" d="M73.169 24l1.13 2.209" data-name="Path 62"/>
      <path fill="none" stroke="#000" d="M81.168 20.987l7.332 5.222" data-name="Path 63"/>
    </g>
  </g>
</svg>
