<svg xmlns="http://www.w3.org/2000/svg" xmlns:svg="http://www.w3.org/2000/svg" viewBox="0 0 114 114">
  <defs/>
  <g data-name="Group 81">
    <g data-name="Group 79">
      <g data-name="Group 30">
        <g data-name="Component 3 – 6">
          <path fill="#23dace" stroke="#000" stroke-width="2.5" d="M57 112.33079529c-7.49338531 0-14.76181412-1.46507263-21.60338593-4.35450745-3.28832244-1.38878631-6.4600296-3.10778045-9.42699813-5.10926056-2.93913842-1.9826889-5.70300103-4.25970459-8.2148304-6.76781463-2.5117855-2.50806427-4.79215431-5.26776886-6.77772427-8.20244599-2.004323-2.96238708-3.7257843-6.12916565-5.11652279-9.41238403C2.96709228 71.653656 1.5 64.39681243 1.5 56.91539764c0-7.4814148 1.46709228-14.73826217 4.36053848-21.56898498 1.39073849-3.28321457 3.11219979-6.44999886 5.1165228-9.41238403 1.98556995-2.93467713 4.26593875-5.69438553 6.77772426-8.20244599 2.51182937-2.50810814 5.27569198-4.78512382 8.2148304-6.76781559 2.96696853-2.00147724 6.13867569-3.7204771 9.42699813-5.10926151C42.23818588 2.96507454 49.5066147 1.49999762 57 1.49999762c7.49338531 0 14.76181793 1.46507692 21.60338593 4.35450792 3.28832244 1.3887844 6.4600296 3.10778427 9.42700195 5.10926151 2.93913269 1.98269177 5.7029953 4.25970745 8.21482849 6.7678156 2.51178741 2.50806045 4.7921524 5.26776885 6.77772522 8.20244598 2.00431824 2.96238517 3.7257843 6.12916946 5.11652374 9.41238403C111.03290558 42.17713546 112.5 49.43398285 112.5 56.91539764c0 7.4814148-1.46709442 14.73825837-4.36053467 21.56898499-1.39073944 3.28321838-3.1122055 6.44999695-5.11652374 9.41238403-1.98557282 2.93467713-4.2659378 5.69438172-6.77772522 8.20244599-2.5118332 2.50811004-5.2756958 4.78512573-8.2148285 6.76781463-2.96697234 2.0014801-6.1386795 3.72047425-9.42700194 5.10926056C71.76181793 110.86572266 64.4933853 112.3307953 57 112.3307953z" data-name="Path 36"/>
        </g>
      </g>
    </g>
    <g data-name="Group 80">
      <path fill="#fbee0a" stroke="#000" stroke-width="3.5" d="M47.77462769 101.1157341c-3.26200104 0-7.52641297-.81907654-12.00766755-2.3063736-4.72561264-1.56838607-9.43446731-3.76972961-13.61747932-6.36605072-4.53898716-2.8172531-8.30272102-6.02506637-10.88430738-9.27664184C8.43501329 79.60201644 7 76.01322937 7 72.5000019c0-3.2465725 1.58576012-5.71297264 3.78053331-9.12658692l.15072012-.2344532c2.39221287-3.72847938 6.30846691-8.87597275 11.38484001-12.23194599 2.65501404-1.75606632 5.35181237-3.15041351 8.24486733-4.26295996 2.97637176-1.14458704 6.17817306-1.99909353 9.78837395-2.61233353.2948265-.0502267.5968399-.1027732.9061203-.15658665C43.6128807 43.46493578 46.28486633 43.00000238 49 43.00000238c5.33642197 0 15.14829254 2.10942984 16.7255516 2.45637656 1.16394806.56553554 7.66959763 3.84339046 13.99104691 9.38794326 3.06887055 2.69117356 5.86784363 5.8404808 7.88143921 8.86791993C89.82362366 67.0583763 91 70.09713554 91 72.5000019c0 1.53248024-.55947876 3.45457267-1.66287994 5.71289253-.9401474 1.92416-2.26226807 4.05900192-3.92961121 6.34521484-2.48291779 3.40446473-5.00360107 6.13513565-5.67945862 6.85234833-1.34892273.80441666-8.420372 4.9677887-12.8609047 6.53466416C60.81162644 100.083004 55.13430787 101.07868195 49 101.07868195h-.06277466l-.06265259.00393295c-.34978485.02198791-.7198677.0331192-1.09994506.0331192z" data-name="Path 53"/>
    </g>
    <path fill="none" stroke="#000" stroke-width="3" d="M59.91 22.571L41.023 66.122" data-name="Path 44"/>
    <path fill="#23dace" stroke="#000" stroke-width="2.5" d="M39 77.5c-.33527994 0-1.3144002-.15478992-3.16046-1.58858967-.8112278-.63006687-1.48104476-1.2718172-1.80153322-1.5912838C33.79781842 73.64209652 33.5 72.60300636 33.5 72c0-.6999302.64252567-2.28941345 1.14677548-3.31076837C35.77419543 67.77452016 37.76937485 66.5 39 66.5c1.19916725 0 3.42377567 1.57645965 4.76460648 2.80264235C44.08675003 70.07328987 44.5 71.29606485 44.5 72c0 .84176207-.88549519 2.66625404-1.56707764 3.80009174C41.88445186 76.517025 40.0781126 77.5 39 77.5z" data-name="Path 46"/>
    <path fill="none" stroke="#000" stroke-width="2.99883" d="M46.52859 29.792874l14.603396 50.07284" data-name="Path 45"/>
    <path fill="#23dace" stroke="#000" stroke-width="2.5" d="M63.0124073 91.49994373c-.39649152-.0399742-1.66929483-.6550331-2.73355531-1.31707l-2.39808357-2.24018002C57.70330334 87.34728909 57.5 86.50272036 57.5 86c0-.72278023.23411-1.60528994.6958301-2.62302017l.00109697-.00242043c.04913592-.09843635.22240615-.379287.3863945-.63347292 1.11289358-.91615319 3.15620566-2.23701966 4.4107747-2.24107563.33631087.01487338 1.57878066.32834208 2.6317153.63594258l1.95591164 1.86088013C67.97494888 83.82920074 68.5 85.20822668 68.5 86v2.16481876l-2.4091816 2.4960432c-.9880371.37801457-2.43079471.83327771-3.0784111.83908177z" data-name="Path 47"/>
    <path fill="none" stroke="#000" stroke-width="4.500495" d="M25.610786 77.334327l-6.150366 3.348588" data-name="Path 48"/>
    <path fill="none" stroke="#000" stroke-width="4.5" d="M25.97877297 64.90119293l-6.6808096-2.09661513" data-name="Path 51"/>
    <path fill="none" stroke="#000" stroke-width="4.498245" d="M31.587717 82.427431l-3.603155 6.927775-1.419755 2.728347-.218347.419743" data-name="Path 49"/>
    <path fill="none" stroke="#000" stroke-width="4.5" d="M28.552 50.576l5.811 10.6" data-name="Path 50"/>
    <path fill="none" stroke="#000" stroke-width="4" d="M91 74v25.951" data-name="Path 52"/>
    <path fill="#233bda" d="M12.194 88.573l8.753 8.831 3.59159 2.86642L28.765 103.239l3.61679 1.96569L37.752 107.751l8.869 2.49 6.0732.62149 5.5968.19451 3.93125-.14293 3.61475-.67307 3.09402-.50635 4.32924-1.18328L79.49 106.463l4.81542-2.58666L89.6 100.2V79.937l-4.05418 7.352L82.56 91.101l-4.123 3.112-5.35309 2.97837-5.49418 2.29127-7.06509 2.06473-6.05309.94046-6.53501.39645-6.66863-.68837L32.773 99.654l-5.96863-2.60872L18.847 92.498l-7.91707-7.04616L15.113 91.486" data-name="Path 54"/>
  </g>
</svg>
