<?xml version="1.0" encoding="UTF-8" standalone="no"?>
<svg
   xmlns:dc="http://purl.org/dc/elements/1.1/"
   xmlns:cc="http://creativecommons.org/ns#"
   xmlns:rdf="http://www.w3.org/1999/02/22-rdf-syntax-ns#"
   xmlns:svg="http://www.w3.org/2000/svg"
   xmlns="http://www.w3.org/2000/svg"
   xmlns:sodipodi="http://sodipodi.sourceforge.net/DTD/sodipodi-0.dtd"
   xmlns:inkscape="http://www.inkscape.org/namespaces/inkscape"
   width="114"
   height="114"
   viewBox="0 0 114 114"
   version="1.1"
   id="svg3442"
   sodipodi:docname="icon-drummer.svg"
   inkscape:version="0.92.5 (2060ec1f9f, 2020-04-08)">
  <metadata
     id="metadata3448">
    <rdf:RDF>
      <cc:Work
         rdf:about="">
        <dc:format>image/svg+xml</dc:format>
        <dc:type
           rdf:resource="http://purl.org/dc/dcmitype/StillImage" />
        <dc:title></dc:title>
      </cc:Work>
    </rdf:RDF>
  </metadata>
  <defs
     id="defs3446" />
  <sodipodi:namedview
     pagecolor="#ffffff"
     bordercolor="#666666"
     borderopacity="1"
     objecttolerance="10"
     gridtolerance="10"
     guidetolerance="10"
     inkscape:pageopacity="0"
     inkscape:pageshadow="2"
     inkscape:window-width="1920"
     inkscape:window-height="1001"
     id="namedview3444"
     showgrid="false"
     inkscape:zoom="3.5438597"
     inkscape:cx="83.160002"
     inkscape:cy="43.367882"
     inkscape:window-x="-9"
     inkscape:window-y="-9"
     inkscape:window-maximized="1"
     inkscape:current-layer="svg3442" />
  <g
     id="Group_81"
     data-name="Group 81"
     transform="translate(-382 -361)">
    <g
       id="Group_79"
       data-name="Group 79"
       transform="translate(9 -104)">
      <g
         id="Group_30"
         data-name="Group 30"
         transform="translate(373 465)">
        <g
           id="Component_3_6"
           data-name="Component 3 – 6">
          <g
             id="Path_36"
             data-name="Path 36"
             fill="#23dace">
            <path
               d="M 57 112.3307952880859 C 49.50661468505859 112.3307952880859 42.23818588256836 110.86572265625 35.39661407470703 107.9762878417969 C 32.10829162597656 106.5875015258789 28.93658447265625 104.8685073852539 25.9696159362793 102.8670272827148 C 23.03047752380371 100.8843383789063 20.26661491394043 98.60732269287109 17.75478553771973 96.09921264648438 C 15.24300003051758 93.59114837646484 12.96263122558594 90.83144378662109 10.97706127166748 87.89676666259766 C 8.972738265991211 84.93437957763672 7.251276969909668 81.76760101318359 5.860538482666016 78.48438262939453 C 2.967092275619507 71.65365600585938 1.5 64.39681243896484 1.5 56.91539764404297 C 1.5 49.43398284912109 2.967092275619507 42.1771354675293 5.860538482666016 35.34641265869141 C 7.251276969909668 32.06319808959961 8.972738265991211 28.89641380310059 10.97706127166748 25.93402862548828 C 12.96263122558594 22.99935150146484 15.24300003051758 20.23964309692383 17.75478553771973 17.73158264160156 C 20.26661491394043 15.22347450256348 23.03047752380371 12.94645881652832 25.9696159362793 10.96376705169678 C 28.93658447265625 8.962289810180664 32.10829162597656 7.243289947509766 35.39661407470703 5.85450553894043 C 42.23818588256836 2.96507453918457 49.50661468505859 1.499997615814209 57 1.499997615814209 C 64.49338531494141 1.499997615814209 71.76181793212891 2.96507453918457 78.60338592529297 5.85450553894043 C 81.89170837402344 7.243289947509766 85.06341552734375 8.962289810180664 88.03038787841797 10.96376705169678 C 90.96952056884766 12.94645881652832 93.73338317871094 15.22347450256348 96.24521636962891 17.73158264160156 C 98.75700378417969 20.23964309692383 101.0373687744141 22.99935150146484 103.0229415893555 25.93402862548828 C 105.0272598266602 28.89641380310059 106.7487258911133 32.06319808959961 108.1394653320313 35.34641265869141 C 111.0329055786133 42.1771354675293 112.5 49.43398284912109 112.5 56.91539764404297 C 112.5 64.39681243896484 111.0329055786133 71.65365600585938 108.1394653320313 78.48438262939453 C 106.7487258911133 81.76760101318359 105.0272598266602 84.93437957763672 103.0229415893555 87.89676666259766 C 101.0373687744141 90.83144378662109 98.75700378417969 93.59114837646484 96.24521636962891 96.09921264648438 C 93.73338317871094 98.60732269287109 90.96952056884766 100.8843383789063 88.03038787841797 102.8670272827148 C 85.06341552734375 104.8685073852539 81.89170837402344 106.5875015258789 78.60338592529297 107.9762878417969 C 71.76181793212891 110.86572265625 64.49338531494141 112.3307952880859 57 112.3307952880859 Z"
               stroke="none"
               id="path3409"
               style="stroke:#000000;stroke-opacity:1;stroke-width:2.5;stroke-miterlimit:4;stroke-dasharray:none" />
          </g>
        </g>
      </g>
    </g>
    <g
       id="Group_80"
       data-name="Group 80"
       transform="translate(9 -104)">
      <g
         id="Path_53"
         data-name="Path 53"
         transform="translate(378 506)"
         fill="#fbee0a">
        <path
           d="M 42.77462768554688 60.1157341003418 C 39.51262664794922 60.1157341003418 35.24821472167969 59.29665756225586 30.76696014404297 57.80936050415039 C 26.04134750366211 56.24097442626953 21.33249282836914 54.03963088989258 17.14948081970215 51.44330978393555 C 12.61049365997314 48.62605667114258 8.846759796142578 45.41824340820313 6.265173435211182 42.16666793823242 C 3.435013294219971 38.60201644897461 2 35.01322937011719 2 31.50000190734863 C 2 28.2534294128418 3.585760116577148 25.78702926635742 5.780533313751221 22.37341499328613 L 5.931253433227539 22.13896179199219 C 8.323466300964355 18.41048240661621 12.23972034454346 13.26298904418945 17.31609344482422 9.907015800476074 C 19.97110748291016 8.150949478149414 22.66790580749512 6.75660228729248 25.56096076965332 5.644055843353271 C 28.53733253479004 4.499468803405762 31.73913383483887 3.644962310791016 35.34933471679688 3.0317223072052 C 35.64416122436523 2.98149561882019 35.94617462158203 2.928949117660522 36.25545501708984 2.875135660171509 C 38.61288070678711 2.464935779571533 41.28486633300781 2.000002384185791 44 2.000002384185791 C 49.33642196655273 2.000002384185791 59.14829254150391 4.109432220458984 60.72555160522461 4.456378936767578 C 61.88949966430664 5.021914482116699 68.39514923095703 8.299769401550293 74.71659851074219 13.84432220458984 C 77.78546905517578 16.53549575805664 80.58444213867188 19.6848030090332 82.59803771972656 22.71224212646484 C 84.82362365722656 26.05837631225586 86 29.09713554382324 86 31.50000190734863 C 86 33.0324821472168 85.44052124023438 34.95457458496094 84.33712005615234 37.21289443969727 C 83.39697265625 39.13705444335938 82.07485198974609 41.27189636230469 80.40750885009766 43.55810928344727 C 77.92459106445313 46.96257400512695 75.40390777587891 49.69324493408203 74.72805023193359 50.41045761108398 C 73.37912750244141 51.21487426757813 66.30767822265625 55.37824630737305 61.86714553833008 56.94512176513672 C 55.81162643432617 59.08300399780273 50.13430786132813 60.07868194580078 44 60.07868194580078 L 43.93722534179688 60.07868194580078 L 43.87457275390625 60.08261489868164 C 43.52478790283203 60.1046028137207 43.15470504760742 60.1157341003418 42.77462768554688 60.1157341003418 Z"
           stroke="none"
           id="path3417"
           style="stroke:#000000;stroke-opacity:1;stroke-width:3.5;stroke-miterlimit:4;stroke-dasharray:none" />
      </g>
    </g>
    <path
       id="Path_44"
       data-name="Path 44"
       d="M793.91,354.571l-18.887,43.551"
       transform="translate(-352 29)"
       fill="none"
       stroke="#000"
       stroke-width="3" />
    <g
       id="Path_46"
       data-name="Path 46"
       transform="translate(414 426)"
       fill="#23dace">
      <path
         d="M 7 12.5 C 6.664720058441162 12.5 5.685599803924561 12.34521007537842 3.839540004730225 10.91141033172607 C 3.028312206268311 10.28134346008301 2.358495235443115 9.639593124389648 2.038006782531738 9.320126533508301 C 1.797818422317505 8.642096519470215 1.5 7.603006362915039 1.5 7 C 1.5 6.300069808959961 2.142525672912598 4.710586547851563 2.646775484085083 3.689231634140015 C 3.774195432662964 2.7745201587677 5.769374847412109 1.5 7 1.5 C 8.199167251586914 1.5 10.4237756729126 3.076459646224976 11.76460647583008 4.302642345428467 C 12.08675003051758 5.07328987121582 12.5 6.296064853668213 12.5 7 C 12.5 7.841762065887451 11.61450481414795 9.666254043579102 10.93292236328125 10.80009174346924 C 9.884451866149902 11.51702499389648 8.078112602233887 12.5 7 12.5 Z"
         stroke="none"
         id="path3424"
         style="stroke-width:2.5;stroke-miterlimit:4;stroke-dasharray:none;stroke:#000000;stroke-opacity:1" />
    </g>
    <path
       id="Path_45"
       data-name="Path 45"
       d="M780,362.126l16.354,49.55"
       transform="matrix(0.999, 0.035, -0.035, 0.999, -338.017, 1.729)"
       fill="none"
       stroke="#000"
       stroke-width="3" />
    <g
       id="Path_47"
       data-name="Path 47"
       transform="translate(438 440)"
       fill="#23dace">
      <path
         d="M 7.012407302856445 12.49994373321533 C 6.615915775299072 12.45996952056885 5.343112468719482 11.84491062164307 4.278851985931396 11.18287372589111 L 1.880768418312073 8.942693710327148 C 1.703303337097168 8.347289085388184 1.5 7.502720355987549 1.5 7 C 1.5 6.277219772338867 1.734109997749329 5.394710063934326 2.195830106735229 4.376979827880859 L 2.196927070617676 4.37455940246582 C 2.246062994003296 4.276123046875 2.419333219528198 3.995272397994995 2.583321571350098 3.741086483001709 C 3.696215152740479 2.824933290481567 5.739527225494385 1.504066824913025 6.994096279144287 1.500010848045349 C 7.33040714263916 1.514884233474731 8.572876930236816 1.828352928161621 9.625811576843262 2.135953426361084 L 11.5817232131958 3.996833562850952 C 11.97494888305664 4.829200744628906 12.5 6.208226680755615 12.5 7 L 12.5 9.16481876373291 L 10.09081840515137 11.66086196899414 C 9.102781295776367 12.0388765335083 7.66002368927002 12.49413967132568 7.012407302856445 12.49994373321533 Z"
         stroke="none"
         id="path3430"
         style="stroke:#000000;stroke-opacity:1;stroke-width:2.5;stroke-miterlimit:4;stroke-dasharray:none" />
    </g>
    <path
       id="Path_48"
       data-name="Path 48"
       d="M761.894,415.295l-3.006,6.324"
       transform="matrix(0.809, 0.588, -0.588, 0.809, 35.432, -345.633)"
       fill="none"
       stroke="#000"
       stroke-width="4.5" />
    <path
       id="Path_51"
       data-name="Path 51"
       d="M761.894,415.295l-3.006,6.324"
       transform="translate(713.197 -386.376) rotate(82)"
       fill="none"
       stroke="#000"
       stroke-width="4.5" />
    <path
       id="Path_49"
       data-name="Path 49"
       d="M775.023,420.764l-3.845,6.8-1.515,2.678-.233.412"
       transform="matrix(0.999, -0.035, 0.035, 0.999, -375.387, 50.21)"
       fill="none"
       stroke="#000"
       stroke-width="4.5" />
    <path
       id="Path_50"
       data-name="Path 50"
       d="M785.552,426.576l5.811,10.6"
       transform="translate(-375 -15)"
       fill="none"
       stroke="#000"
       stroke-width="4.5" />
    <path
       id="Path_52"
       data-name="Path 52"
       d="M827,404v25.951"
       transform="translate(-354 31)"
       fill="none"
       stroke="#000"
       stroke-width="4" />
    <path
       id="Path_54"
       data-name="Path 54"
       d="m 746.194,420.573 8.753,8.831 3.59159,2.86642 4.22641,2.96858 3.61679,1.96569 5.37021,2.54631 8.869,2.49 6.0732,0.62149 5.5968,0.19451 3.93125,-0.14293 3.61475,-0.67307 3.09402,-0.50635 4.32924,-1.18328 6.22974,-2.08837 4.81542,-2.58666 L 823.6,432.2 v -20.263 l -4.05418,7.352 -2.98582,3.812 -4.123,3.112 -5.35309,2.97837 -5.49418,2.29127 -7.06509,2.06473 -6.05309,0.94046 -6.53501,0.39645 -6.66863,-0.68837 -8.49491,-2.54191 -5.96863,-2.60872 -7.95737,-4.54728 v 0 l -7.91707,-7.04616 4.18307,6.03416"
       transform="translate(-352,29)"
       inkscape:connector-curvature="0"
       style="fill:#233bda"
       sodipodi:nodetypes="cccccccccccccccccccccccccccccccc" />
  </g>
</svg>
