<?xml version="1.0" encoding="UTF-8" standalone="no"?>
<svg
   xmlns:dc="http://purl.org/dc/elements/1.1/"
   xmlns:cc="http://creativecommons.org/ns#"
   xmlns:rdf="http://www.w3.org/1999/02/22-rdf-syntax-ns#"
   xmlns:svg="http://www.w3.org/2000/svg"
   xmlns="http://www.w3.org/2000/svg"
   xmlns:sodipodi="http://sodipodi.sourceforge.net/DTD/sodipodi-0.dtd"
   xmlns:inkscape="http://www.inkscape.org/namespaces/inkscape"
   id="icon-settings"
   width="114"
   height="113.831"
   viewBox="0 0 114 113.831"
   version="1.1"
   sodipodi:docname="icon-settings.svg"
   inkscape:version="0.92.5 (2060ec1f9f, 2020-04-08)">
  <metadata
     id="metadata889">
    <rdf:RDF>
      <cc:Work
         rdf:about="">
        <dc:format>image/svg+xml</dc:format>
        <dc:type
           rdf:resource="http://purl.org/dc/dcmitype/StillImage" />
        <dc:title />
      </cc:Work>
    </rdf:RDF>
  </metadata>
  <defs
     id="defs887" />
  <sodipodi:namedview
     pagecolor="#ffffff"
     bordercolor="#666666"
     borderopacity="1"
     objecttolerance="10"
     gridtolerance="10"
     guidetolerance="10"
     inkscape:pageopacity="0"
     inkscape:pageshadow="2"
     inkscape:window-width="1920"
     inkscape:window-height="1001"
     id="namedview885"
     showgrid="false"
     inkscape:zoom="3.549121"
     inkscape:cx="113.69349"
     inkscape:cy="62.102595"
     inkscape:window-x="-9"
     inkscape:window-y="-9"
     inkscape:window-maximized="1"
     inkscape:current-layer="Path_36" />
  <g
     id="Group_18"
     data-name="Group 18"
     transform="translate(-105 -491)">
    <g
       id="Group_17"
       data-name="Group 17">
      <g
         id="Group_9"
         data-name="Group 9"
         transform="translate(6 -184)">
        <g
           id="Group_12"
           data-name="Group 12"
           transform="translate(99 675)">
          <g
             id="Component_3_2"
             data-name="Component 3 – 2">
            <g
               id="Group_78"
               data-name="Group 78">
              <g
                 id="Group_79"
                 data-name="Group 79">
                <g
                   id="Path_36"
                   data-name="Path 36"
                   fill="#233bda">
                  <path
                     d="M 57 112.3307952880859 C 49.50661468505859 112.3307952880859 42.23818588256836 110.86572265625 35.39661407470703 107.9762878417969 C 32.10829162597656 106.5875015258789 28.93658447265625 104.8685073852539 25.9696159362793 102.8670272827148 C 23.03047752380371 100.8843383789063 20.26661491394043 98.60732269287109 17.75478553771973 96.09921264648438 C 15.24300003051758 93.59114837646484 12.96263122558594 90.83144378662109 10.97706127166748 87.89676666259766 C 8.972738265991211 84.93437957763672 7.251276969909668 81.76760101318359 5.860538482666016 78.48438262939453 C 2.967092275619507 71.65365600585938 1.5 64.39681243896484 1.5 56.91539764404297 C 1.5 49.43398284912109 2.967092275619507 42.1771354675293 5.860538482666016 35.34641265869141 C 7.251276969909668 32.06319808959961 8.972738265991211 28.89641380310059 10.97706127166748 25.93402862548828 C 12.96263122558594 22.99935150146484 15.24300003051758 20.23964309692383 17.75478553771973 17.73158264160156 C 20.26661491394043 15.22347450256348 23.03047752380371 12.94645881652832 25.9696159362793 10.96376705169678 C 28.93658447265625 8.962289810180664 32.10829162597656 7.243289947509766 35.39661407470703 5.85450553894043 C 42.23818588256836 2.96507453918457 49.50661468505859 1.499997615814209 57 1.499997615814209 C 64.49338531494141 1.499997615814209 71.76181793212891 2.96507453918457 78.60338592529297 5.85450553894043 C 81.89170837402344 7.243289947509766 85.06341552734375 8.962289810180664 88.03038787841797 10.96376705169678 C 90.96952056884766 12.94645881652832 93.73338317871094 15.22347450256348 96.24521636962891 17.73158264160156 C 98.75700378417969 20.23964309692383 101.0373687744141 22.99935150146484 103.0229415893555 25.93402862548828 C 105.0272598266602 28.89641380310059 106.7487258911133 32.06319808959961 108.1394653320313 35.34641265869141 C 111.0329055786133 42.1771354675293 112.5 49.43398284912109 112.5 56.91539764404297 C 112.5 64.39681243896484 111.0329055786133 71.65365600585938 108.1394653320313 78.48438262939453 C 106.7487258911133 81.76760101318359 105.0272598266602 84.93437957763672 103.0229415893555 87.89676666259766 C 101.0373687744141 90.83144378662109 98.75700378417969 93.59114837646484 96.24521636962891 96.09921264648438 C 93.73338317871094 98.60732269287109 90.96952056884766 100.8843383789063 88.03038787841797 102.8670272827148 C 85.06341552734375 104.8685073852539 81.89170837402344 106.5875015258789 78.60338592529297 107.9762878417969 C 71.76181793212891 110.86572265625 64.49338531494141 112.3307952880859 57 112.3307952880859 Z"
                     stroke="none"
                     id="path853"
                     style="fill:#233bda;fill-opacity:1;stroke:#000000;stroke-opacity:1;stroke-width:2.5;stroke-miterlimit:4;stroke-dasharray:none" />
                </g>
              </g>
            </g>
          </g>
        </g>
      </g>
    </g>
    <g
       id="Group_15"
       data-name="Group 15"
       transform="translate(-3 1)">
      <line
         id="Line_2"
         data-name="Line 2"
         x2="1"
         y2="66"
         transform="translate(141.5 514.5)"
         fill="none"
         stroke="#000"
         stroke-width="6" />
      <line
         id="Line_3"
         data-name="Line 3"
         x2="1"
         y2="66"
         transform="translate(164.807 514.5)"
         fill="none"
         stroke="#000"
         stroke-width="6" />
      <line
         id="Line_4"
         data-name="Line 4"
         x2="1"
         y2="66"
         transform="translate(188.114 514.5)"
         fill="none"
         stroke="#000"
         stroke-width="6" />
      <g
         id="Ellipse_1"
         data-name="Ellipse 1"
         transform="translate(134 565)"
         fill="#be80d9"
         stroke="#000"
         stroke-width="1">
        <circle
           cx="8"
           cy="8"
           r="8"
           stroke="none"
           id="circle867" />
        <circle
           cx="8"
           cy="8"
           r="7.5"
           fill="none"
           id="circle869" />
      </g>
      <g
         id="Ellipse_2"
         data-name="Ellipse 2"
         transform="translate(157 538)"
         fill="#fbee0a"
         stroke="#000"
         stroke-width="1">
        <circle
           cx="8"
           cy="8"
           r="8"
           stroke="none"
           id="circle872" />
        <circle
           cx="8"
           cy="8"
           r="7.5"
           fill="none"
           id="circle874" />
      </g>
      <g
         id="Ellipse_3"
         data-name="Ellipse 3"
         transform="translate(180 513)"
         fill="#23dace"
         stroke="#000"
         stroke-width="1">
        <circle
           cx="8"
           cy="8"
           r="8"
           stroke="none"
           id="circle877" />
        <circle
           cx="8"
           cy="8"
           r="7.5"
           fill="none"
           id="circle879" />
      </g>
    </g>
  </g>
</svg>
