<?xml version="1.0" encoding="UTF-8" standalone="no"?>
<svg
   xmlns:dc="http://purl.org/dc/elements/1.1/"
   xmlns:cc="http://creativecommons.org/ns#"
   xmlns:rdf="http://www.w3.org/1999/02/22-rdf-syntax-ns#"
   xmlns:svg="http://www.w3.org/2000/svg"
   xmlns="http://www.w3.org/2000/svg"
   xmlns:sodipodi="http://sodipodi.sourceforge.net/DTD/sodipodi-0.dtd"
   xmlns:inkscape="http://www.inkscape.org/namespaces/inkscape"
   id="mail-img"
   width="114"
   height="114"
   viewBox="0 0 114 114"
   version="1.1"
   sodipodi:docname="icon-mail.svg"
   inkscape:version="0.92.5 (2060ec1f9f, 2020-04-08)">
  <metadata
     id="metadata871">
    <rdf:RDF>
      <cc:Work
         rdf:about="">
        <dc:format>image/svg+xml</dc:format>
        <dc:type
           rdf:resource="http://purl.org/dc/dcmitype/StillImage" />
        <dc:title />
      </cc:Work>
    </rdf:RDF>
  </metadata>
  <defs
     id="defs869" />
  <sodipodi:namedview
     pagecolor="#ffffff"
     bordercolor="#666666"
     borderopacity="1"
     objecttolerance="10"
     gridtolerance="10"
     guidetolerance="10"
     inkscape:pageopacity="0"
     inkscape:pageshadow="2"
     inkscape:window-width="1920"
     inkscape:window-height="1001"
     id="namedview867"
     showgrid="false"
     inkscape:zoom="2.5058872"
     inkscape:cx="1.5014109"
     inkscape:cy="49.271659"
     inkscape:window-x="-9"
     inkscape:window-y="-9"
     inkscape:window-maximized="1"
     inkscape:current-layer="Group_23" />
  <g
     id="Group_23"
     data-name="Group 23">
    <g
       id="Component_3_4"
       data-name="Component 3 – 4">
      <g
         id="Path_36"
         data-name="Path 36"
         fill="#be80d9">
        <path
           d="M 57 112.3307952880859 C 49.50661468505859 112.3307952880859 42.23818588256836 110.86572265625 35.39661407470703 107.9762878417969 C 32.10829162597656 106.5875015258789 28.93658447265625 104.8685073852539 25.9696159362793 102.8670272827148 C 23.03047752380371 100.8843383789063 20.26661491394043 98.60732269287109 17.75478553771973 96.09921264648438 C 15.24300003051758 93.59114837646484 12.96263122558594 90.83144378662109 10.97706127166748 87.89676666259766 C 8.972738265991211 84.93437957763672 7.251276969909668 81.76760101318359 5.860538482666016 78.48438262939453 C 2.967092275619507 71.65365600585938 1.5 64.39681243896484 1.5 56.91539764404297 C 1.5 49.43398284912109 2.967092275619507 42.1771354675293 5.860538482666016 35.34641265869141 C 7.251276969909668 32.06319808959961 8.972738265991211 28.89641380310059 10.97706127166748 25.93402862548828 C 12.96263122558594 22.99935150146484 15.24300003051758 20.23964309692383 17.75478553771973 17.73158264160156 C 20.26661491394043 15.22347450256348 23.03047752380371 12.94645881652832 25.9696159362793 10.96376705169678 C 28.93658447265625 8.962289810180664 32.10829162597656 7.243289947509766 35.39661407470703 5.85450553894043 C 42.23818588256836 2.96507453918457 49.50661468505859 1.499997615814209 57 1.499997615814209 C 64.49338531494141 1.499997615814209 71.76181793212891 2.96507453918457 78.60338592529297 5.85450553894043 C 81.89170837402344 7.243289947509766 85.06341552734375 8.962289810180664 88.03038787841797 10.96376705169678 C 90.96952056884766 12.94645881652832 93.73338317871094 15.22347450256348 96.24521636962891 17.73158264160156 C 98.75700378417969 20.23964309692383 101.0373687744141 22.99935150146484 103.0229415893555 25.93402862548828 C 105.0272598266602 28.89641380310059 106.7487258911133 32.06319808959961 108.1394653320313 35.34641265869141 C 111.0329055786133 42.1771354675293 112.5 49.43398284912109 112.5 56.91539764404297 C 112.5 64.39681243896484 111.0329055786133 71.65365600585938 108.1394653320313 78.48438262939453 C 106.7487258911133 81.76760101318359 105.0272598266602 84.93437957763672 103.0229415893555 87.89676666259766 C 101.0373687744141 90.83144378662109 98.75700378417969 93.59114837646484 96.24521636962891 96.09921264648438 C 93.73338317871094 98.60732269287109 90.96952056884766 100.8843383789063 88.03038787841797 102.8670272827148 C 85.06341552734375 104.8685073852539 81.89170837402344 106.5875015258789 78.60338592529297 107.9762878417969 C 71.76181793212891 110.86572265625 64.49338531494141 112.3307952880859 57 112.3307952880859 Z"
           stroke="none"
           id="path844"
           style="stroke:#000000;stroke-opacity:1;stroke-width:2.5;stroke-miterlimit:4;stroke-dasharray:none" />
      </g>
    </g>
    <g
       id="Group_25"
       data-name="Group 25"
       transform="translate(-92 -90)">
      <path
         id="Path_24"
         data-name="Path 24"
         d="M483.034,31.4H460v46.52h71.086V31.4H507.927"
         transform="translate(-347 98.014)"
         stroke-width="3"
         stroke="#000"
         fill="#fbee0a" />
      <path
         id="Path_25"
         data-name="Path 25"
         d="M507.814,27.33a31.022,31.022,0,0,1-7.291-6.863c-2.119-2.989-3.4-7.08-3.346-8.767-.236-1.71.638-5.141,2.848-8.107a37.244,37.244,0,0,1,7.242-6.872,34.267,34.267,0,0,1,6.5,6.872c1.91,2.839,3.023,6.463,2.776,8.107a19.722,19.722,0,0,1-2.776,8.307c-2.3,3.822-7.622,7.323-7.622,7.323"
         transform="translate(-357.946 106)"
         stroke-width="3"
         stroke="#000"
         fill="#fb2a0a" />
      <g
         id="Path_32"
         data-name="Path 32"
         transform="translate(146.933 107.613)"
         fill="#233bda">
        <path
           d="M 2.016305208206177 4.204715728759766 C 1.180205225944519 4.204715728759766 0.4999952018260956 3.373745918273926 0.4999952018260956 2.35235595703125 C 0.4999952018260956 1.330965995788574 1.180205225944519 0.4999959468841553 2.016305208206177 0.4999959468841553 C 2.852405309677124 0.4999959468841553 3.532615184783936 1.330965995788574 3.532615184783936 2.35235595703125 C 3.532615184783936 3.373745918273926 2.852405309677124 4.204715728759766 2.016305208206177 4.204715728759766 Z"
           id="path852"
           stroke="none" />
        <path
           d="M 2.016305208206177 0.9999959468841553 C 1.465405225753784 0.9999959468841553 0.999995231628418 1.619305849075317 0.999995231628418 2.35235595703125 C 0.999995231628418 3.085405826568604 1.465405225753784 3.704715967178345 2.016305208206177 3.704715967178345 C 2.567205190658569 3.704715967178345 3.032615184783936 3.085405826568604 3.032615184783936 2.35235595703125 C 3.032615184783936 1.619305849075317 2.567205190658569 0.9999959468841553 2.016305208206177 0.9999959468841553 M 2.016305208206177 -3.814697265625e-06 C 3.129875183105469 -3.814697265625e-06 4.032615184783936 1.053185939788818 4.032615184783936 2.35235595703125 C 4.032615184783936 3.651525974273682 3.129875183105469 4.704715728759766 2.016305208206177 4.704715728759766 C 0.9027352333068848 4.704715728759766 -4.76837158203125e-06 3.651525974273682 -4.76837158203125e-06 2.35235595703125 C -4.76837158203125e-06 1.053185939788818 0.9027352333068848 -3.814697265625e-06 2.016305208206177 -3.814697265625e-06 Z"
           id="path854"
           stroke="none" />
      </g>
      <path
         id="Path_31"
         data-name="Path 31"
         d="M 478.33267,51.474267 501.568,71.284 524.5,51.051"
         transform="translate(-351.068,92.348)"
         inkscape:connector-curvature="0"
         style="fill:none;stroke:#000000;stroke-width:1"
         sodipodi:nodetypes="ccc" />
    </g>
    <g
       id="Group_26"
       data-name="Group 26"
       transform="translate(-276 -103)">
      <path
         id="Path_26"
         data-name="Path 26"
         d="M6.008.05a6.842,6.842,0,0,0-3.42.474A5.319,5.319,0,0,0,0,3.236"
         transform="matrix(0.848, -0.53, 0.53, 0.848, 325.014, 147.661)"
         fill="none"
         stroke="#000"
         stroke-width="2" />
      <path
         id="Path_27"
         data-name="Path 27"
         d="M6.226.076A7.161,7.161,0,0,0,2.589.488,5.319,5.319,0,0,0,0,3.2"
         transform="translate(338.784 144.038) rotate(79)"
         fill="none"
         stroke="#000"
         stroke-width="2" />
      <path
         id="Path_28"
         data-name="Path 28"
         d="M501.848,41.918v6.255"
         transform="translate(-175.324 112.958)"
         fill="none"
         stroke="#000"
         stroke-width="2" />
      <path
         id="Path_29"
         data-name="Path 29"
         d="M509.948,36.622v4.907"
         transform="translate(-177.258 113.783)"
         fill="none"
         stroke="#000"
         stroke-width="2" />
      <path
         id="Path_30"
         data-name="Path 30"
         d="M518.573,41.918v6.255"
         transform="translate(-178.602 112.958)"
         fill="none"
         stroke="#000"
         stroke-width="2" />
    </g>
  </g>
</svg>
