<svg xmlns="http://www.w3.org/2000/svg" xmlns:xlink="http://www.w3.org/1999/xlink" width="512.927" height="512.166" viewBox="0 0 512.927 512.166">
  <defs>
    <filter id="Path_115" x="27.973" y="263.35" width="102.296" height="104.786" filterUnits="userSpaceOnUse">
      <feOffset dx="3" dy="3" input="SourceAlpha"/>
      <feGaussianBlur result="blur"/>
      <feFlood/>
      <feComposite operator="in" in2="blur"/>
      <feComposite in="SourceGraphic"/>
    </filter>
    <filter id="Path_116" x="384.662" y="175.903" width="101.385" height="83.43" filterUnits="userSpaceOnUse">
      <feOffset dx="3" dy="3" input="SourceAlpha"/>
      <feGaussianBlur result="blur-2"/>
      <feFlood/>
      <feComposite operator="in" in2="blur-2"/>
      <feComposite in="SourceGraphic"/>
    </filter>
  </defs>
  <g id="Group_196" data-name="Group 196" transform="translate(-2071 -1819)">
    <g id="Group_195" data-name="Group 195" transform="translate(-783 1183)">
      <g id="Group_194" data-name="Group 194" transform="translate(2854 636)">
        <g id="Group_50" data-name="Group 50" transform="translate(0 0)">
          <g id="Group_47" data-name="Group 47">
            <g id="Group_45" data-name="Group 45">
              <g id="Group_8" data-name="Group 8" transform="translate(0)">
                <g id="Component_3_9" data-name="Component 3 – 9">
                  <g id="Path_36" data-name="Path 36" fill="#fbee0a">
                    <path d="M 256.4634094238281 509.6655883789063 C 239.2304077148438 509.6655883789063 222.0090026855469 507.9321899414063 205.2775421142578 504.5135192871094 C 188.9726104736328 501.1820068359375 172.9346160888672 496.2109375 157.6089477539063 489.7383422851563 C 142.5610046386719 483.3829956054688 128.0471496582031 475.5167846679688 114.4704132080078 466.3581848144531 C 101.0220794677734 457.2861328125 88.37580871582031 446.8674621582031 76.88287353515625 435.3916015625 C 65.39000701904297 423.9158020019531 54.9559440612793 411.2883911132813 45.87054443359375 397.8601989746094 C 36.6984748840332 384.3039245605469 28.82074356079102 369.8118591308594 22.45614242553711 354.7866516113281 C 15.97420978546143 339.4843139648438 10.99587631225586 323.4706726074219 7.659542560577393 307.1905212402344 C 4.235942840576172 290.4845886230469 2.500009536743164 273.2894592285156 2.500009536743164 256.0827941894531 C 2.500009536743164 238.8761291503906 4.235942840576172 221.6809997558594 7.659542560577393 204.9750671386719 C 10.99587631225586 188.6949920654297 15.97420978546143 172.6813201904297 22.45614242553711 157.3789215087891 C 28.82074356079102 142.3537292480469 36.6984748840332 127.8617248535156 45.87054443359375 114.3053970336914 C 54.9559440612793 100.877197265625 65.39000701904297 88.24979400634766 76.88287353515625 76.77399444580078 C 88.37580871582031 65.29812622070313 101.0220794677734 54.87945938110352 114.4704132080078 45.80746078491211 C 128.0471496582031 36.64879608154297 142.5610046386719 28.78259468078613 157.6089477539063 22.42726135253906 C 172.9346160888672 15.95472717285156 188.9726104736328 10.98359394073486 205.2775421142578 7.652060985565186 C 222.0090026855469 4.233394145965576 239.23046875 2.499994277954102 256.4634094238281 2.499994277954102 C 273.6964111328125 2.499994277954102 290.9178161621094 4.233394145965576 307.6492614746094 7.652060985565186 C 323.9542236328125 10.98359394073486 339.9922790527344 15.95472717285156 355.31787109375 22.42726135253906 C 370.3658142089844 28.78259468078613 384.8797302246094 36.64879608154297 398.4564819335938 45.80746078491211 C 411.9048156738281 54.87945938110352 424.5510864257813 65.29812622070313 436.0440063476563 76.77399444580078 C 447.536865234375 88.24979400634766 457.9708862304688 100.877197265625 467.0562744140625 114.3053970336914 C 476.2283325195313 127.8617248535156 484.1060791015625 142.3537292480469 490.4706726074219 157.3789215087891 C 496.9526062011719 172.6813201904297 501.9309387207031 188.6949920654297 505.2672729492188 204.9750671386719 C 508.6908874511719 221.6809997558594 510.4268188476563 238.8761291503906 510.4268188476563 256.0827941894531 C 510.4268188476563 273.2894592285156 508.6908874511719 290.4845886230469 505.2672729492188 307.1905212402344 C 501.9309387207031 323.4706726074219 496.9526062011719 339.4843139648438 490.4706726074219 354.7866516113281 C 484.1060791015625 369.8118591308594 476.2283325195313 384.3039245605469 467.0562744140625 397.8601989746094 C 457.9708862304688 411.2883911132813 447.536865234375 423.9158020019531 436.0440063476563 435.3916015625 C 424.5510864257813 446.8674621582031 411.9048156738281 457.2861328125 398.4564819335938 466.3581848144531 C 384.8797302246094 475.5167846679688 370.3658142089844 483.3829956054688 355.31787109375 489.7383422851563 C 339.9922790527344 496.2109375 323.9542236328125 501.1820068359375 307.6492614746094 504.5135192871094 C 290.9178161621094 507.9321899414063 273.6964111328125 509.6655883789063 256.4634094238281 509.6655883789063 Z" stroke="none"/>
                    <path d="M 256.4634094238281 5 C 239.3982238769531 5 222.3451538085938 6.716400146484375 205.778076171875 10.10147094726563 C 189.6346130371094 13.39999389648438 173.7554016113281 18.32186889648438 158.5816040039063 24.73031616210938 C 143.6822814941406 31.02285766601563 129.3114624023438 38.8115234375 115.8684692382813 47.87991333007813 C 102.552001953125 56.86300659179688 90.0296630859375 67.17959594726563 78.64935302734375 78.54306030273438 C 67.26907348632813 89.90640258789063 56.93734741210938 102.4099426269531 47.94113159179688 115.7063293457031 C 38.859619140625 129.1287841796875 31.05975341796875 143.4776000976563 24.75814819335938 158.35400390625 C 18.34060668945313 173.5042724609375 13.41180419921875 189.3587341308594 10.10861206054688 205.4769897460938 C 6.71881103515625 222.0181274414063 5 239.0444030761719 5 256.0827941894531 C 5 273.1212158203125 6.71881103515625 290.1474609375 10.10861206054688 306.6885986328125 C 13.41180419921875 322.8068542480469 18.34060668945313 338.6613159179688 24.75814819335938 353.8115234375 C 31.05975341796875 368.68798828125 38.859619140625 383.0367431640625 47.94113159179688 396.4591979980469 C 56.93734741210938 409.7555847167969 67.26907348632813 422.2591247558594 78.64935302734375 433.6225280761719 C 90.0296630859375 444.9859924316406 102.552001953125 455.3025207519531 115.8684692382813 464.2855834960938 C 129.3114624023438 473.3540649414063 143.6822814941406 481.1427307128906 158.5816040039063 487.4352722167969 C 173.7554016113281 493.8437194824219 189.6346130371094 498.7655944824219 205.778076171875 502.0641174316406 C 222.3451538085938 505.4491882324219 239.3982238769531 507.1655883789063 256.4634094238281 507.1655883789063 C 273.5286254882813 507.1655883789063 290.5816650390625 505.4491882324219 307.1487426757813 502.0641174316406 C 323.2922058105469 498.7655944824219 339.17138671875 493.8437194824219 354.34521484375 487.4352722167969 C 369.2445373535156 481.1427307128906 383.6153564453125 473.3540649414063 397.058349609375 464.2855834960938 C 410.3748168945313 455.3025207519531 422.8971557617188 444.9859924316406 434.2774658203125 433.6225280761719 C 445.6577453613281 422.2591247558594 455.9894714355469 409.7555847167969 464.9856872558594 396.4591979980469 C 474.0671997070313 383.0367431640625 481.8670654296875 368.68798828125 488.1686706542969 353.8115234375 C 494.5862121582031 338.6613159179688 499.5150146484375 322.8068542480469 502.8182067871094 306.6885986328125 C 506.2080078125 290.1474609375 507.9268188476563 273.1212158203125 507.9268188476563 256.0827941894531 C 507.9268188476563 239.0444030761719 506.2080078125 222.0181274414063 502.8182067871094 205.4769897460938 C 499.5150146484375 189.3587341308594 494.5862121582031 173.5042724609375 488.1686706542969 158.35400390625 C 481.8670654296875 143.4776000976563 474.0671997070313 129.1287841796875 464.9856872558594 115.7063293457031 C 455.9894714355469 102.4099426269531 445.6577453613281 89.90640258789063 434.2774658203125 78.54306030273438 C 422.8971557617188 67.17959594726563 410.3748168945313 56.86300659179688 397.058349609375 47.87991333007813 C 383.6153564453125 38.8115234375 369.2445373535156 31.02285766601563 354.34521484375 24.73031616210938 C 339.17138671875 18.32186889648438 323.2922058105469 13.39999389648438 307.1487426757813 10.10147094726563 C 290.5816650390625 6.716400146484375 273.5286254882813 5 256.4634094238281 5 M 256.4634094238281 0 C 398.1042175292969 0 512.9268188476563 114.6521301269531 512.9268188476563 256.0827941894531 C 512.9268188476563 397.5133972167969 398.1042175292969 512.1655883789063 256.4634094238281 512.1655883789063 C 114.8226013183594 512.1655883789063 0 397.5133972167969 0 256.0827941894531 C 0 114.6521301269531 114.8226013183594 0 256.4634094238281 0 Z" stroke="none"/>
                  </g>
                  <path id="Path_109" data-name="Path 109" d="M67.186,273.666c3.484,4.395,15.179,11.252,15.179,11.252l55.523,20.032,31.257,5.967,22.209,2.131,34.136-2.131,40.306-8.95,27.556-8.95,33.313-17.9,26.322-17.9,24.677-22.589,9.46-12.36" transform="translate(59.743 195.135)" fill="none"/>
                </g>
              </g>
            </g>
            <g transform="matrix(1, 0, 0, 1, 0, 0)" filter="url(#Path_115)">
              <path id="Path_115-2" data-name="Path 115" d="M0,54.446V27.223L27.184,40.835V14.746l10.293,4.973,15.533,7.5V0L80.195,14.746" transform="matrix(-0.66, -0.75, 0.75, -0.66, 84.54, 360.49)" fill="none" stroke="#cd39cd" stroke-width="5"/>
            </g>
            <path id="Path_33" data-name="Path 33" d="M595.373,409.249s-94.729-8.041-81.73-106.561,96.64-99.877,96.64-99.877,91.7-7.557,96.029,95.441c2.322,55.206-18.422,84.41-46.013,97.638-7.061,3.391-27.975,15.567-36.07,17.61C613.162,416.326,595.373,409.249,595.373,409.249Z" transform="translate(-358.571 -88.526)" fill="#ffe1d9" stroke="#000" stroke-width="2"/>
            <path id="Path_34" data-name="Path 34" d="M609.984,250.829V271.09s2.344,20.262-20.319,29.614-43.615,33.468-43.615,33.468-31.452,40.284-26.763,51.194" transform="translate(-393.74 66.662)" fill="none" stroke="#000" stroke-width="2"/>
            <path id="Path_35" data-name="Path 35" d="M546.2,250.829l1.938,15.883s166.183,48.546,151.712,74.417" transform="translate(-258.079 64.573)" fill="none" stroke="#000" stroke-width="2"/>
            <path id="Path_37" data-name="Path 37" d="M533.013,246.189s13.839,21.314,34.939,22.1,35.168-22.1,35.168-22.1" transform="translate(-316.701 25.805)" fill="none" stroke="#000" stroke-width="2"/>
            <path id="Path_110" data-name="Path 110" d="M165.674,751.707l20.27,10.976,44.013,16.025,22.232,5.383,33.277,2.773h25.079l31.108-2.773,25.8-7.355L397.6,765.643l30.648-16.461,29.138-19.561,26.489-26.489-4.847-9.024-4.087-2.972-4.5-3.627-10.26-7.108-13.191-6.3s-13.489-6.716-22.826-10.7a159.715,159.715,0,0,0-18.329-6.44L387.241,650l-5.621-2.286-8.669-2.953-15.6-4.71-17.721,10.995-10.824,3.514-4.482.8-7.583.69-17.476,1.18h-25.6l-9.33-.44-11.592-1.363-6.192,6.478-16.2,8.574-8.765,5.335-12.812,10.245-13.191,12.289-6.652,9.019-9.957,13.934-4.954,8.765-5.049,10.1Z" transform="translate(-40.604 -299.061)" stroke="#000" stroke-width="1"/>
          </g>
          <path id="Path_111" data-name="Path 111" d="M2738.153,1117.052l2.9-5.914,1.046-4.063.765-4.747v-22.348l5.592,1.529,6.316,1.247,6.115,1.006,8.931,2.736,7.074,1.688,7.736.572,4.594-.4,4.222-1.11,4.345-1.851,6.356-3.138,6.833-3.49.991,8.094.881,7.046,5.371,1.554,7.443,2.293,6.17,1.96,9.054,3.1-7.627,5.449-9.832,4.635-9.4,2.966-12.608,2.249-9.249.781-7.887.451h-30.266l-7.993-.451Z" transform="translate(-2524.568 -761.179)" fill="#ffe1d9"/>
        </g>
      </g>
      <path id="Path_74" data-name="Path 74" d="M0,12.843,21.14,0,61.9,40.683,84.018,23.5l32.844,65.8L80,57.379l-18.1,10.8L11.627,23.5Z" transform="translate(3058.633 1040.551) rotate(-17)" fill="#fbee0a" stroke="#000" stroke-width="5"/>
      <g transform="matrix(1, 0, 0, 1, 2854, 636)" filter="url(#Path_116)">
        <path id="Path_116-2" data-name="Path 116" d="M0,59.495V30.408L29.166,46.274V14.543L56.942,30.408V0L83.331,14.543" transform="matrix(0.98, -0.21, 0.21, 0.98, 387.99, 197.62)" fill="none" stroke="#cd39cd" stroke-width="5"/>
      </g>
    </g>
  </g>
</svg>
