<svg id="Logo" xmlns="http://www.w3.org/2000/svg" width="114" height="114" viewBox="0 0 114 114">
  <g id="Group_45" data-name="Group 45" transform="translate(-99 -450)">
    <g id="Group_8" data-name="Group 8" transform="translate(99 450)">
      <g id="Component_3_1" data-name="Component 3 – 1">
        <g id="Path_36" data-name="Path 36" fill="#80d9a4">
          <path d="M 57 112.3307952880859 C 49.50661468505859 112.3307952880859 42.23818588256836 110.86572265625 35.39661407470703 107.9762878417969 C 32.10829162597656 106.5875015258789 28.93658447265625 104.8685073852539 25.9696159362793 102.8670272827148 C 23.03047752380371 100.8843383789063 20.26661491394043 98.60732269287109 17.75478553771973 96.09921264648438 C 15.24300003051758 93.59114837646484 12.96263122558594 90.83144378662109 10.97706127166748 87.89676666259766 C 8.972738265991211 84.93437957763672 7.251276969909668 81.76760101318359 5.860538482666016 78.48438262939453 C 2.967092275619507 71.65365600585938 1.5 64.39681243896484 1.5 56.91539764404297 C 1.5 49.43398284912109 2.967092275619507 42.1771354675293 5.860538482666016 35.34641265869141 C 7.251276969909668 32.06319808959961 8.972738265991211 28.89641380310059 10.97706127166748 25.93402862548828 C 12.96263122558594 22.99935150146484 15.24300003051758 20.23964309692383 17.75478553771973 17.73158264160156 C 20.26661491394043 15.22347450256348 23.03047752380371 12.94645881652832 25.9696159362793 10.96376705169678 C 28.93658447265625 8.962289810180664 32.10829162597656 7.243289947509766 35.39661407470703 5.85450553894043 C 42.23818588256836 2.96507453918457 49.50661468505859 1.499997615814209 57 1.499997615814209 C 64.49338531494141 1.499997615814209 71.76181793212891 2.96507453918457 78.60338592529297 5.85450553894043 C 81.89170837402344 7.243289947509766 85.06341552734375 8.962289810180664 88.03038787841797 10.96376705169678 C 90.96952056884766 12.94645881652832 93.73338317871094 15.22347450256348 96.24521636962891 17.73158264160156 C 98.75700378417969 20.23964309692383 101.0373687744141 22.99935150146484 103.0229415893555 25.93402862548828 C 105.0272598266602 28.89641380310059 106.7487258911133 32.06319808959961 108.1394653320313 35.34641265869141 C 111.0329055786133 42.1771354675293 112.5 49.43398284912109 112.5 56.91539764404297 C 112.5 64.39681243896484 111.0329055786133 71.65365600585938 108.1394653320313 78.48438262939453 C 106.7487258911133 81.76760101318359 105.0272598266602 84.93437957763672 103.0229415893555 87.89676666259766 C 101.0373687744141 90.83144378662109 98.75700378417969 93.59114837646484 96.24521636962891 96.09921264648438 C 93.73338317871094 98.60732269287109 90.96952056884766 100.8843383789063 88.03038787841797 102.8670272827148 C 85.06341552734375 104.8685073852539 81.89170837402344 106.5875015258789 78.60338592529297 107.9762878417969 C 71.76181793212891 110.86572265625 64.49338531494141 112.3307952880859 57 112.3307952880859 Z" stroke="none"/>
          <path d="M 57 3 C 49.70816802978516 3 42.63610076904297 4.425300598144531 35.98021697998047 7.236328125 C 32.78103637695313 8.58746337890625 29.69519805908203 10.25993347167969 26.80846405029297 12.20728302001953 C 23.94844818115234 14.1365966796875 21.25894927978516 16.35236358642578 18.81465148925781 18.79302978515625 C 16.37042999267578 21.23361206054688 14.15148162841797 23.91899871826172 12.21941375732422 26.77458190917969 C 10.26940155029297 29.65670013427734 8.59466552734375 32.73751068115234 7.241729736328125 35.93148040771484 C 4.427116394042969 42.57608032226563 3 49.63610076904297 3 56.91539764404297 C 3 64.1947021484375 4.427116394042969 71.25471496582031 7.241729736328125 77.89931488037109 C 8.59466552734375 81.09327697753906 10.26940155029297 84.17409515380859 12.21941375732422 87.05621337890625 C 14.15148162841797 89.91179656982422 16.37042999267578 92.59718322753906 18.81465148925781 95.03776550292969 C 21.25894927978516 97.47843170166016 23.94844818115234 99.69419860839844 26.80846405029297 101.6235122680664 C 29.69519805908203 103.5708618164063 32.78103637695313 105.2433319091797 35.98021697998047 106.5944671630859 C 42.63610076904297 109.4054946899414 49.70816802978516 110.8307952880859 57 110.8307952880859 C 64.29181671142578 110.8307952880859 71.36389923095703 109.4054946899414 78.01978302001953 106.5944671630859 C 81.21896362304688 105.2433319091797 84.30477905273438 103.5708618164063 87.19153594970703 101.6235122680664 C 90.05152893066406 99.69419860839844 92.74105072021484 97.47843170166016 95.18533325195313 95.03776550292969 C 97.62954711914063 92.59718322753906 99.84851837158203 89.91179656982422 101.7805862426758 87.05621337890625 C 103.730583190918 84.17409515380859 105.4053344726563 81.09327697753906 106.7582702636719 77.89931488037109 C 109.572868347168 71.25471496582031 111 64.1947021484375 111 56.91539764404297 C 111 49.63610076904297 109.572868347168 42.57608032226563 106.7582702636719 35.93148040771484 C 105.4053344726563 32.73751068115234 103.730583190918 29.65670013427734 101.7805862426758 26.77458190917969 C 99.84851837158203 23.91899871826172 97.62954711914063 21.23361206054688 95.18533325195313 18.79302978515625 C 92.74105072021484 16.35236358642578 90.05152893066406 14.1365966796875 87.19153594970703 12.20728302001953 C 84.30477905273438 10.25993347167969 81.21896362304688 8.58746337890625 78.01978302001953 7.236328125 C 71.36389923095703 4.425300598144531 64.29181671142578 3 57 3 M 57 0 C 88.48021697998047 0 114 25.48188018798828 114 56.91539764404297 C 114 88.34891510009766 88.48021697998047 113.8307952880859 57 113.8307952880859 C 25.51976776123047 113.8307952880859 0 88.34891510009766 0 56.91539764404297 C 0 25.48188018798828 25.51976776123047 0 57 0 Z" stroke="none"/>
        </g>
      </g>
    </g>
  </g>
  <path id="Path_33" data-name="Path 33" d="M530.855,248.6s-21.054-1.787-18.165-23.684,21.479-22.2,21.479-22.2,20.38-1.68,21.343,21.212c.516,12.27-4.094,18.761-10.227,21.7-1.569.754-6.218,3.46-8.017,3.914C534.809,250.169,530.855,248.6,530.855,248.6Z" transform="translate(-477.801 -172.658)" fill="#dcdcdc" stroke="#000" stroke-width="2"/>
  <path id="Path_34" data-name="Path 34" d="M538.841,250.829v4.5s.521,4.5-4.516,6.582-10.654,7.234-10.654,7.234-6.188,6.252-5.146,8.677" transform="translate(-490.357 -175.609)" fill="none" stroke="#000" stroke-width="2"/>
  <path id="Path_35" data-name="Path 35" d="M546.2,250.829l.431,3.53s35.516,10.567,32.3,16.317" transform="translate(-481.738 -176.074)" fill="none" stroke="#000" stroke-width="2"/>
  <path id="Path_37" data-name="Path 37" d="M533.013,246.189s3.076,4.737,7.765,4.913,7.816-4.913,7.816-4.913" transform="translate(-484.513 -181.082)" fill="none" stroke="#000" stroke-width="2"/>
</svg>
