<svg xmlns="http://www.w3.org/2000/svg" xmlns:xlink="http://www.w3.org/1999/xlink" width="879.152" height="559.841" viewBox="0 0 879.152 559.841">
  <defs>
    <clipPath id="clip-path">
      <rect width="879.05" height="541.115" fill="none"/>
    </clipPath>
    <clipPath id="clip-path-3">
      <rect width="858.192" height="18.132" fill="none"/>
    </clipPath>
  </defs>
  <g id="pane" transform="translate(0 0.708)">
    <g id="Group_48" data-name="Group 48" transform="translate(-2318.04 133)">
      <g id="Group_43" data-name="Group 43">
        <path id="Path_68" data-name="Path 68" d="M3178-133l18.486,18.424" fill="#fbee0a" stroke="#000" stroke-width="2"/>
        <path id="Path_69" data-name="Path 69" d="M3178-133l18.486,18.424" transform="translate(-9 540)" fill="none" stroke="#000" stroke-width="2"/>
        <g id="Repeat_Grid_3" data-name="Repeat Grid 3" transform="translate(2318.04 -115.059)" clip-path="url(#clip-path)">
          <g transform="translate(-2318.04 115.059)">
            <g id="Repeat_Grid_4" data-name="Repeat Grid 4" transform="translate(2318.04 -115.059)" clip-path="url(#clip-path)">
              <g transform="translate(-2318.04 115.059)">
                <path id="Path_70" data-name="Path 70" d="M3178.4-133.253l18.087,18.677,860.1.132-.4-540.615" transform="translate(-860 540)" fill="none" stroke="#000" stroke-width="2"/>
              </g>
            </g>
          </g>
        </g>
        <path id="Path_71" data-name="Path 71" d="M3178-133l18.486,18.424" transform="translate(0 11)" fill="none" stroke="#000" stroke-width="2"/>
        <path id="Path_71-2" data-name="Path 71" d="M3178-133l18.486,18.424" transform="translate(0 23)" fill="none" stroke="#000" stroke-width="2"/>
        <path id="Path_71-3" data-name="Path 71" d="M3178-133l18.486,18.424" transform="translate(0 35)" fill="none" stroke="#000" stroke-width="2"/>
        <path id="Path_71-4" data-name="Path 71" d="M3178-133l18.486,18.424" transform="translate(0 47)" fill="none" stroke="#000" stroke-width="2"/>
        <path id="Path_71-5" data-name="Path 71" d="M3178-133l18.486,18.424" transform="translate(0 59)" fill="none" stroke="#000" stroke-width="2"/>
        <path id="Path_71-6" data-name="Path 71" d="M3178-133l18.486,18.424" transform="translate(0 71)" fill="none" stroke="#000" stroke-width="2"/>
        <path id="Path_71-7" data-name="Path 71" d="M3178-133l18.486,18.424" transform="translate(0 83)" fill="none" stroke="#000" stroke-width="2"/>
        <path id="Path_71-8" data-name="Path 71" d="M3178-133l18.486,18.424" transform="translate(0 95)" fill="none" stroke="#000" stroke-width="2"/>
        <path id="Path_71-9" data-name="Path 71" d="M3178-133l18.486,18.424" transform="translate(0 107)" fill="none" stroke="#000" stroke-width="2"/>
        <path id="Path_71-10" data-name="Path 71" d="M3178-133l18.486,18.424" transform="translate(0 119)" fill="none" stroke="#000" stroke-width="2"/>
        <path id="Path_71-11" data-name="Path 71" d="M3178-133l18.486,18.424" transform="translate(0 131)" fill="none" stroke="#000" stroke-width="2"/>
        <path id="Path_71-12" data-name="Path 71" d="M3178-133l18.486,18.424" transform="translate(0 143)" fill="none" stroke="#000" stroke-width="2"/>
        <path id="Path_71-13" data-name="Path 71" d="M3178-133l18.486,18.424" transform="translate(0 155)" fill="none" stroke="#000" stroke-width="2"/>
        <path id="Path_71-14" data-name="Path 71" d="M3178-133l18.486,18.424" transform="translate(0 167)" fill="none" stroke="#000" stroke-width="2"/>
        <path id="Path_71-15" data-name="Path 71" d="M3178-133l18.486,18.424" transform="translate(0 179)" fill="none" stroke="#000" stroke-width="2"/>
        <path id="Path_71-16" data-name="Path 71" d="M3178-133l18.486,18.424" transform="translate(0 191)" fill="none" stroke="#000" stroke-width="2"/>
        <path id="Path_71-17" data-name="Path 71" d="M3178-133l18.486,18.424" transform="translate(0 203)" fill="none" stroke="#000" stroke-width="2"/>
        <path id="Path_71-18" data-name="Path 71" d="M3178-133l18.486,18.424" transform="translate(0 215)" fill="none" stroke="#000" stroke-width="2"/>
        <path id="Path_71-19" data-name="Path 71" d="M3178-133l18.486,18.424" transform="translate(0 227)" fill="none" stroke="#000" stroke-width="2"/>
        <path id="Path_71-20" data-name="Path 71" d="M3178-133l18.486,18.424" transform="translate(0 239)" fill="none" stroke="#000" stroke-width="2"/>
        <path id="Path_71-21" data-name="Path 71" d="M3178-133l18.486,18.424" transform="translate(0 251)" fill="none" stroke="#000" stroke-width="2"/>
        <path id="Path_71-22" data-name="Path 71" d="M3178-133l18.486,18.424" transform="translate(0 263)" fill="none" stroke="#000" stroke-width="2"/>
        <path id="Path_71-23" data-name="Path 71" d="M3178-133l18.486,18.424" transform="translate(0 275)" fill="none" stroke="#000" stroke-width="2"/>
        <path id="Path_71-24" data-name="Path 71" d="M3178-133l18.486,18.424" transform="translate(0 287)" fill="none" stroke="#000" stroke-width="2"/>
        <path id="Path_71-25" data-name="Path 71" d="M3178-133l18.486,18.424" transform="translate(0 299)" fill="none" stroke="#000" stroke-width="2"/>
        <path id="Path_71-26" data-name="Path 71" d="M3178-133l18.486,18.424" transform="translate(0 311)" fill="none" stroke="#000" stroke-width="2"/>
        <path id="Path_71-27" data-name="Path 71" d="M3178-133l18.486,18.424" transform="translate(0 323)" fill="none" stroke="#000" stroke-width="2"/>
        <path id="Path_71-28" data-name="Path 71" d="M3178-133l18.486,18.424" transform="translate(0 335)" fill="none" stroke="#000" stroke-width="2"/>
        <path id="Path_71-29" data-name="Path 71" d="M3178-133l18.486,18.424" transform="translate(0 347)" fill="none" stroke="#000" stroke-width="2"/>
        <path id="Path_71-30" data-name="Path 71" d="M3178-133l18.486,18.424" transform="translate(0 359)" fill="none" stroke="#000" stroke-width="2"/>
        <path id="Path_71-31" data-name="Path 71" d="M3178-133l18.486,18.424" transform="translate(0 371)" fill="none" stroke="#000" stroke-width="2"/>
        <path id="Path_71-32" data-name="Path 71" d="M3178-133l18.486,18.424" transform="translate(0 383)" fill="none" stroke="#000" stroke-width="2"/>
        <path id="Path_71-33" data-name="Path 71" d="M3178-133l18.486,18.424" transform="translate(0 395)" fill="none" stroke="#000" stroke-width="2"/>
        <path id="Path_71-34" data-name="Path 71" d="M3178-133l18.486,18.424" transform="translate(0 407)" fill="none" stroke="#000" stroke-width="2"/>
        <path id="Path_71-35" data-name="Path 71" d="M3178-133l18.486,18.424" transform="translate(0 419)" fill="none" stroke="#000" stroke-width="2"/>
        <path id="Path_71-36" data-name="Path 71" d="M3178-133l18.486,18.424" transform="translate(0 431)" fill="none" stroke="#000" stroke-width="2"/>
        <path id="Path_71-37" data-name="Path 71" d="M3178-133l18.486,18.424" transform="translate(0 443)" fill="none" stroke="#000" stroke-width="2"/>
        <path id="Path_71-38" data-name="Path 71" d="M3178-133l18.486,18.424" transform="translate(0 455)" fill="none" stroke="#000" stroke-width="2"/>
        <path id="Path_71-39" data-name="Path 71" d="M3178-133l18.486,18.424" transform="translate(0 467)" fill="none" stroke="#000" stroke-width="2"/>
        <path id="Path_71-40" data-name="Path 71" d="M3178-133l18.486,18.424" transform="translate(0 479)" fill="none" stroke="#000" stroke-width="2"/>
        <path id="Path_71-41" data-name="Path 71" d="M3178-133l18.486,18.424" transform="translate(0 491)" fill="none" stroke="#000" stroke-width="2"/>
        <path id="Path_71-42" data-name="Path 71" d="M3178-133l18.486,18.424" transform="translate(0 503)" fill="none" stroke="#000" stroke-width="2"/>
        <path id="Path_71-43" data-name="Path 71" d="M3178-133l18.486,18.424" transform="translate(0 515)" fill="none" stroke="#000" stroke-width="2"/>
        <path id="Path_71-44" data-name="Path 71" d="M3178-133l18.486,18.424" transform="translate(0 527)" fill="none" stroke="#000" stroke-width="2"/>
        <path id="Path_71-45" data-name="Path 71" d="M3178-133l18.486,18.424" transform="translate(0 539)" fill="none" stroke="#000" stroke-width="2"/>
        <g id="Group_42" data-name="Group 42">
          <g id="Repeat_Grid_5" data-name="Repeat Grid 5" transform="translate(2328.647 406.646)" clip-path="url(#clip-path-3)">
            <g transform="translate(-3159.647 -406.646)">
              <path id="Path_71-46" data-name="Path 71" d="M3178-133l18.486,18.424" transform="translate(-18 540)" fill="none" stroke="#000" stroke-width="2"/>
            </g>
            <g transform="translate(-3149.647 -406.646)">
              <path id="Path_71-47" data-name="Path 71" d="M3178-133l18.486,18.424" transform="translate(-18 540)" fill="none" stroke="#000" stroke-width="2"/>
            </g>
            <g transform="translate(-3139.647 -406.646)">
              <path id="Path_71-48" data-name="Path 71" d="M3178-133l18.486,18.424" transform="translate(-18 540)" fill="none" stroke="#000" stroke-width="2"/>
            </g>
            <g transform="translate(-3129.647 -406.646)">
              <path id="Path_71-49" data-name="Path 71" d="M3178-133l18.486,18.424" transform="translate(-18 540)" fill="none" stroke="#000" stroke-width="2"/>
            </g>
            <g transform="translate(-3119.647 -406.646)">
              <path id="Path_71-50" data-name="Path 71" d="M3178-133l18.486,18.424" transform="translate(-18 540)" fill="none" stroke="#000" stroke-width="2"/>
            </g>
            <g transform="translate(-3109.647 -406.646)">
              <path id="Path_71-51" data-name="Path 71" d="M3178-133l18.486,18.424" transform="translate(-18 540)" fill="none" stroke="#000" stroke-width="2"/>
            </g>
            <g transform="translate(-3099.647 -406.646)">
              <path id="Path_71-52" data-name="Path 71" d="M3178-133l18.486,18.424" transform="translate(-18 540)" fill="none" stroke="#000" stroke-width="2"/>
            </g>
            <g transform="translate(-3089.647 -406.646)">
              <path id="Path_71-53" data-name="Path 71" d="M3178-133l18.486,18.424" transform="translate(-18 540)" fill="none" stroke="#000" stroke-width="2"/>
            </g>
            <g transform="translate(-3079.647 -406.646)">
              <path id="Path_71-54" data-name="Path 71" d="M3178-133l18.486,18.424" transform="translate(-18 540)" fill="none" stroke="#000" stroke-width="2"/>
            </g>
            <g transform="translate(-3069.647 -406.646)">
              <path id="Path_71-55" data-name="Path 71" d="M3178-133l18.486,18.424" transform="translate(-18 540)" fill="none" stroke="#000" stroke-width="2"/>
            </g>
            <g transform="translate(-3059.647 -406.646)">
              <path id="Path_71-56" data-name="Path 71" d="M3178-133l18.486,18.424" transform="translate(-18 540)" fill="none" stroke="#000" stroke-width="2"/>
            </g>
            <g transform="translate(-3049.647 -406.646)">
              <path id="Path_71-57" data-name="Path 71" d="M3178-133l18.486,18.424" transform="translate(-18 540)" fill="none" stroke="#000" stroke-width="2"/>
            </g>
            <g transform="translate(-3039.647 -406.646)">
              <path id="Path_71-58" data-name="Path 71" d="M3178-133l18.486,18.424" transform="translate(-18 540)" fill="none" stroke="#000" stroke-width="2"/>
            </g>
            <g transform="translate(-3029.647 -406.646)">
              <path id="Path_71-59" data-name="Path 71" d="M3178-133l18.486,18.424" transform="translate(-18 540)" fill="none" stroke="#000" stroke-width="2"/>
            </g>
            <g transform="translate(-3019.647 -406.646)">
              <path id="Path_71-60" data-name="Path 71" d="M3178-133l18.486,18.424" transform="translate(-18 540)" fill="none" stroke="#000" stroke-width="2"/>
            </g>
            <g transform="translate(-3009.647 -406.646)">
              <path id="Path_71-61" data-name="Path 71" d="M3178-133l18.486,18.424" transform="translate(-18 540)" fill="none" stroke="#000" stroke-width="2"/>
            </g>
            <g transform="translate(-2999.647 -406.646)">
              <path id="Path_71-62" data-name="Path 71" d="M3178-133l18.486,18.424" transform="translate(-18 540)" fill="none" stroke="#000" stroke-width="2"/>
            </g>
            <g transform="translate(-2989.647 -406.646)">
              <path id="Path_71-63" data-name="Path 71" d="M3178-133l18.486,18.424" transform="translate(-18 540)" fill="none" stroke="#000" stroke-width="2"/>
            </g>
            <g transform="translate(-2979.647 -406.646)">
              <path id="Path_71-64" data-name="Path 71" d="M3178-133l18.486,18.424" transform="translate(-18 540)" fill="none" stroke="#000" stroke-width="2"/>
            </g>
            <g transform="translate(-2969.647 -406.646)">
              <path id="Path_71-65" data-name="Path 71" d="M3178-133l18.486,18.424" transform="translate(-18 540)" fill="none" stroke="#000" stroke-width="2"/>
            </g>
            <g transform="translate(-2959.647 -406.646)">
              <path id="Path_71-66" data-name="Path 71" d="M3178-133l18.486,18.424" transform="translate(-18 540)" fill="none" stroke="#000" stroke-width="2"/>
            </g>
            <g transform="translate(-2949.647 -406.646)">
              <path id="Path_71-67" data-name="Path 71" d="M3178-133l18.486,18.424" transform="translate(-18 540)" fill="none" stroke="#000" stroke-width="2"/>
            </g>
            <g transform="translate(-2939.647 -406.646)">
              <path id="Path_71-68" data-name="Path 71" d="M3178-133l18.486,18.424" transform="translate(-18 540)" fill="none" stroke="#000" stroke-width="2"/>
            </g>
            <g transform="translate(-2929.647 -406.646)">
              <path id="Path_71-69" data-name="Path 71" d="M3178-133l18.486,18.424" transform="translate(-18 540)" fill="none" stroke="#000" stroke-width="2"/>
            </g>
            <g transform="translate(-2919.647 -406.646)">
              <path id="Path_71-70" data-name="Path 71" d="M3178-133l18.486,18.424" transform="translate(-18 540)" fill="none" stroke="#000" stroke-width="2"/>
            </g>
            <g transform="translate(-2909.647 -406.646)">
              <path id="Path_71-71" data-name="Path 71" d="M3178-133l18.486,18.424" transform="translate(-18 540)" fill="none" stroke="#000" stroke-width="2"/>
            </g>
            <g transform="translate(-2899.647 -406.646)">
              <path id="Path_71-72" data-name="Path 71" d="M3178-133l18.486,18.424" transform="translate(-18 540)" fill="none" stroke="#000" stroke-width="2"/>
            </g>
            <g transform="translate(-2889.647 -406.646)">
              <path id="Path_71-73" data-name="Path 71" d="M3178-133l18.486,18.424" transform="translate(-18 540)" fill="none" stroke="#000" stroke-width="2"/>
            </g>
            <g transform="translate(-2879.647 -406.646)">
              <path id="Path_71-74" data-name="Path 71" d="M3178-133l18.486,18.424" transform="translate(-18 540)" fill="none" stroke="#000" stroke-width="2"/>
            </g>
            <g transform="translate(-2869.647 -406.646)">
              <path id="Path_71-75" data-name="Path 71" d="M3178-133l18.486,18.424" transform="translate(-18 540)" fill="none" stroke="#000" stroke-width="2"/>
            </g>
            <g transform="translate(-2859.647 -406.646)">
              <path id="Path_71-76" data-name="Path 71" d="M3178-133l18.486,18.424" transform="translate(-18 540)" fill="none" stroke="#000" stroke-width="2"/>
            </g>
            <g transform="translate(-2849.647 -406.646)">
              <path id="Path_71-77" data-name="Path 71" d="M3178-133l18.486,18.424" transform="translate(-18 540)" fill="none" stroke="#000" stroke-width="2"/>
            </g>
            <g transform="translate(-2839.647 -406.646)">
              <path id="Path_71-78" data-name="Path 71" d="M3178-133l18.486,18.424" transform="translate(-18 540)" fill="none" stroke="#000" stroke-width="2"/>
            </g>
            <g transform="translate(-2829.647 -406.646)">
              <path id="Path_71-79" data-name="Path 71" d="M3178-133l18.486,18.424" transform="translate(-18 540)" fill="none" stroke="#000" stroke-width="2"/>
            </g>
            <g transform="translate(-2819.647 -406.646)">
              <path id="Path_71-80" data-name="Path 71" d="M3178-133l18.486,18.424" transform="translate(-18 540)" fill="none" stroke="#000" stroke-width="2"/>
            </g>
            <g transform="translate(-2809.647 -406.646)">
              <path id="Path_71-81" data-name="Path 71" d="M3178-133l18.486,18.424" transform="translate(-18 540)" fill="none" stroke="#000" stroke-width="2"/>
            </g>
            <g transform="translate(-2799.647 -406.646)">
              <path id="Path_71-82" data-name="Path 71" d="M3178-133l18.486,18.424" transform="translate(-18 540)" fill="none" stroke="#000" stroke-width="2"/>
            </g>
            <g transform="translate(-2789.647 -406.646)">
              <path id="Path_71-83" data-name="Path 71" d="M3178-133l18.486,18.424" transform="translate(-18 540)" fill="none" stroke="#000" stroke-width="2"/>
            </g>
            <g transform="translate(-2779.647 -406.646)">
              <path id="Path_71-84" data-name="Path 71" d="M3178-133l18.486,18.424" transform="translate(-18 540)" fill="none" stroke="#000" stroke-width="2"/>
            </g>
            <g transform="translate(-2769.647 -406.646)">
              <path id="Path_71-85" data-name="Path 71" d="M3178-133l18.486,18.424" transform="translate(-18 540)" fill="none" stroke="#000" stroke-width="2"/>
            </g>
            <g transform="translate(-2759.647 -406.646)">
              <path id="Path_71-86" data-name="Path 71" d="M3178-133l18.486,18.424" transform="translate(-18 540)" fill="none" stroke="#000" stroke-width="2"/>
            </g>
            <g transform="translate(-2749.647 -406.646)">
              <path id="Path_71-87" data-name="Path 71" d="M3178-133l18.486,18.424" transform="translate(-18 540)" fill="none" stroke="#000" stroke-width="2"/>
            </g>
            <g transform="translate(-2739.647 -406.646)">
              <path id="Path_71-88" data-name="Path 71" d="M3178-133l18.486,18.424" transform="translate(-18 540)" fill="none" stroke="#000" stroke-width="2"/>
            </g>
            <g transform="translate(-2729.647 -406.646)">
              <path id="Path_71-89" data-name="Path 71" d="M3178-133l18.486,18.424" transform="translate(-18 540)" fill="none" stroke="#000" stroke-width="2"/>
            </g>
            <g transform="translate(-2719.647 -406.646)">
              <path id="Path_71-90" data-name="Path 71" d="M3178-133l18.486,18.424" transform="translate(-18 540)" fill="none" stroke="#000" stroke-width="2"/>
            </g>
            <g transform="translate(-2709.647 -406.646)">
              <path id="Path_71-91" data-name="Path 71" d="M3178-133l18.486,18.424" transform="translate(-18 540)" fill="none" stroke="#000" stroke-width="2"/>
            </g>
            <g transform="translate(-2699.647 -406.646)">
              <path id="Path_71-92" data-name="Path 71" d="M3178-133l18.486,18.424" transform="translate(-18 540)" fill="none" stroke="#000" stroke-width="2"/>
            </g>
            <g transform="translate(-2689.647 -406.646)">
              <path id="Path_71-93" data-name="Path 71" d="M3178-133l18.486,18.424" transform="translate(-18 540)" fill="none" stroke="#000" stroke-width="2"/>
            </g>
            <g transform="translate(-2679.647 -406.646)">
              <path id="Path_71-94" data-name="Path 71" d="M3178-133l18.486,18.424" transform="translate(-18 540)" fill="none" stroke="#000" stroke-width="2"/>
            </g>
            <g transform="translate(-2669.647 -406.646)">
              <path id="Path_71-95" data-name="Path 71" d="M3178-133l18.486,18.424" transform="translate(-18 540)" fill="none" stroke="#000" stroke-width="2"/>
            </g>
            <g transform="translate(-2659.647 -406.646)">
              <path id="Path_71-96" data-name="Path 71" d="M3178-133l18.486,18.424" transform="translate(-18 540)" fill="none" stroke="#000" stroke-width="2"/>
            </g>
            <g transform="translate(-2649.647 -406.646)">
              <path id="Path_71-97" data-name="Path 71" d="M3178-133l18.486,18.424" transform="translate(-18 540)" fill="none" stroke="#000" stroke-width="2"/>
            </g>
            <g transform="translate(-2639.647 -406.646)">
              <path id="Path_71-98" data-name="Path 71" d="M3178-133l18.486,18.424" transform="translate(-18 540)" fill="none" stroke="#000" stroke-width="2"/>
            </g>
            <g transform="translate(-2629.647 -406.646)">
              <path id="Path_71-99" data-name="Path 71" d="M3178-133l18.486,18.424" transform="translate(-18 540)" fill="none" stroke="#000" stroke-width="2"/>
            </g>
            <g transform="translate(-2619.647 -406.646)">
              <path id="Path_71-100" data-name="Path 71" d="M3178-133l18.486,18.424" transform="translate(-18 540)" fill="none" stroke="#000" stroke-width="2"/>
            </g>
            <g transform="translate(-2609.647 -406.646)">
              <path id="Path_71-101" data-name="Path 71" d="M3178-133l18.486,18.424" transform="translate(-18 540)" fill="none" stroke="#000" stroke-width="2"/>
            </g>
            <g transform="translate(-2599.647 -406.646)">
              <path id="Path_71-102" data-name="Path 71" d="M3178-133l18.486,18.424" transform="translate(-18 540)" fill="none" stroke="#000" stroke-width="2"/>
            </g>
            <g transform="translate(-2589.647 -406.646)">
              <path id="Path_71-103" data-name="Path 71" d="M3178-133l18.486,18.424" transform="translate(-18 540)" fill="none" stroke="#000" stroke-width="2"/>
            </g>
            <g transform="translate(-2579.647 -406.646)">
              <path id="Path_71-104" data-name="Path 71" d="M3178-133l18.486,18.424" transform="translate(-18 540)" fill="none" stroke="#000" stroke-width="2"/>
            </g>
            <g transform="translate(-2569.647 -406.646)">
              <path id="Path_71-105" data-name="Path 71" d="M3178-133l18.486,18.424" transform="translate(-18 540)" fill="none" stroke="#000" stroke-width="2"/>
            </g>
            <g transform="translate(-2559.647 -406.646)">
              <path id="Path_71-106" data-name="Path 71" d="M3178-133l18.486,18.424" transform="translate(-18 540)" fill="none" stroke="#000" stroke-width="2"/>
            </g>
            <g transform="translate(-2549.647 -406.646)">
              <path id="Path_71-107" data-name="Path 71" d="M3178-133l18.486,18.424" transform="translate(-18 540)" fill="none" stroke="#000" stroke-width="2"/>
            </g>
            <g transform="translate(-2539.647 -406.646)">
              <path id="Path_71-108" data-name="Path 71" d="M3178-133l18.486,18.424" transform="translate(-18 540)" fill="none" stroke="#000" stroke-width="2"/>
            </g>
            <g transform="translate(-2529.647 -406.646)">
              <path id="Path_71-109" data-name="Path 71" d="M3178-133l18.486,18.424" transform="translate(-18 540)" fill="none" stroke="#000" stroke-width="2"/>
            </g>
            <g transform="translate(-2519.647 -406.646)">
              <path id="Path_71-110" data-name="Path 71" d="M3178-133l18.486,18.424" transform="translate(-18 540)" fill="none" stroke="#000" stroke-width="2"/>
            </g>
            <g transform="translate(-2509.647 -406.646)">
              <path id="Path_71-111" data-name="Path 71" d="M3178-133l18.486,18.424" transform="translate(-18 540)" fill="none" stroke="#000" stroke-width="2"/>
            </g>
            <g transform="translate(-2499.647 -406.646)">
              <path id="Path_71-112" data-name="Path 71" d="M3178-133l18.486,18.424" transform="translate(-18 540)" fill="none" stroke="#000" stroke-width="2"/>
            </g>
            <g transform="translate(-2489.647 -406.646)">
              <path id="Path_71-113" data-name="Path 71" d="M3178-133l18.486,18.424" transform="translate(-18 540)" fill="none" stroke="#000" stroke-width="2"/>
            </g>
            <g transform="translate(-2479.647 -406.646)">
              <path id="Path_71-114" data-name="Path 71" d="M3178-133l18.486,18.424" transform="translate(-18 540)" fill="none" stroke="#000" stroke-width="2"/>
            </g>
            <g transform="translate(-2469.647 -406.646)">
              <path id="Path_71-115" data-name="Path 71" d="M3178-133l18.486,18.424" transform="translate(-18 540)" fill="none" stroke="#000" stroke-width="2"/>
            </g>
            <g transform="translate(-2459.647 -406.646)">
              <path id="Path_71-116" data-name="Path 71" d="M3178-133l18.486,18.424" transform="translate(-18 540)" fill="none" stroke="#000" stroke-width="2"/>
            </g>
            <g transform="translate(-2449.647 -406.646)">
              <path id="Path_71-117" data-name="Path 71" d="M3178-133l18.486,18.424" transform="translate(-18 540)" fill="none" stroke="#000" stroke-width="2"/>
            </g>
            <g transform="translate(-2439.647 -406.646)">
              <path id="Path_71-118" data-name="Path 71" d="M3178-133l18.486,18.424" transform="translate(-18 540)" fill="none" stroke="#000" stroke-width="2"/>
            </g>
            <g transform="translate(-2429.647 -406.646)">
              <path id="Path_71-119" data-name="Path 71" d="M3178-133l18.486,18.424" transform="translate(-18 540)" fill="none" stroke="#000" stroke-width="2"/>
            </g>
            <g transform="translate(-2419.647 -406.646)">
              <path id="Path_71-120" data-name="Path 71" d="M3178-133l18.486,18.424" transform="translate(-18 540)" fill="none" stroke="#000" stroke-width="2"/>
            </g>
            <g transform="translate(-2409.647 -406.646)">
              <path id="Path_71-121" data-name="Path 71" d="M3178-133l18.486,18.424" transform="translate(-18 540)" fill="none" stroke="#000" stroke-width="2"/>
            </g>
            <g transform="translate(-2399.647 -406.646)">
              <path id="Path_71-122" data-name="Path 71" d="M3178-133l18.486,18.424" transform="translate(-18 540)" fill="none" stroke="#000" stroke-width="2"/>
            </g>
            <g transform="translate(-2389.647 -406.646)">
              <path id="Path_71-123" data-name="Path 71" d="M3178-133l18.486,18.424" transform="translate(-18 540)" fill="none" stroke="#000" stroke-width="2"/>
            </g>
            <g transform="translate(-2379.647 -406.646)">
              <path id="Path_71-124" data-name="Path 71" d="M3178-133l18.486,18.424" transform="translate(-18 540)" fill="none" stroke="#000" stroke-width="2"/>
            </g>
            <g transform="translate(-2369.647 -406.646)">
              <path id="Path_71-125" data-name="Path 71" d="M3178-133l18.486,18.424" transform="translate(-18 540)" fill="none" stroke="#000" stroke-width="2"/>
            </g>
            <g transform="translate(-2359.647 -406.646)">
              <path id="Path_71-126" data-name="Path 71" d="M3178-133l18.486,18.424" transform="translate(-18 540)" fill="none" stroke="#000" stroke-width="2"/>
            </g>
            <g transform="translate(-2349.647 -406.646)">
              <path id="Path_71-127" data-name="Path 71" d="M3178-133l18.486,18.424" transform="translate(-18 540)" fill="none" stroke="#000" stroke-width="2"/>
            </g>
            <g transform="translate(-2339.647 -406.646)">
              <path id="Path_71-128" data-name="Path 71" d="M3178-133l18.486,18.424" transform="translate(-18 540)" fill="none" stroke="#000" stroke-width="2"/>
            </g>
            <g transform="translate(-2329.647 -406.646)">
              <path id="Path_71-129" data-name="Path 71" d="M3178-133l18.486,18.424" transform="translate(-18 540)" fill="none" stroke="#000" stroke-width="2"/>
            </g>
            <g transform="translate(-2319.647 -406.646)">
              <path id="Path_71-130" data-name="Path 71" d="M3178-133l18.486,18.424" transform="translate(-18 540)" fill="none" stroke="#000" stroke-width="2"/>
            </g>
            <g transform="translate(-2309.647 -406.646)">
              <path id="Path_71-131" data-name="Path 71" d="M3178-133l18.486,18.424" transform="translate(-18 540)" fill="none" stroke="#000" stroke-width="2"/>
            </g>
          </g>
        </g>
      </g>
    </g>
  </g>
</svg>
