<svg xmlns="http://www.w3.org/2000/svg" xmlns:xlink="http://www.w3.org/1999/xlink" width="161.168" height="407.71" viewBox="0 0 161.168 407.71">
  <defs>
    <clipPath id="clip-path">
      <rect width="161.168" height="407.71" fill="none"/>
    </clipPath>
  </defs>
  <g id="Repeat_Grid_6" data-name="Repeat Grid 6" clip-path="url(#clip-path)">
    <g transform="translate(-755.001 -138.435)">
      <line id="Line_1" data-name="Line 1" x1="1" y2="23" transform="translate(756.5 138.5)" fill="none" stroke="#000" stroke-width="3"/>
    </g>
    <g transform="translate(-730.001 -138.435)">
      <line id="Line_1-2" data-name="Line 1" x1="1" y2="23" transform="translate(756.5 138.5)" fill="none" stroke="#000" stroke-width="3"/>
    </g>
    <g transform="translate(-705.001 -138.435)">
      <line id="Line_1-3" data-name="Line 1" x1="1" y2="23" transform="translate(756.5 138.5)" fill="none" stroke="#000" stroke-width="3"/>
    </g>
    <g transform="translate(-680.001 -138.435)">
      <line id="Line_1-4" data-name="Line 1" x1="1" y2="23" transform="translate(756.5 138.5)" fill="none" stroke="#000" stroke-width="3"/>
    </g>
    <g transform="translate(-655.001 -138.435)">
      <line id="Line_1-5" data-name="Line 1" x1="1" y2="23" transform="translate(756.5 138.5)" fill="none" stroke="#000" stroke-width="3"/>
    </g>
    <g transform="translate(-630.001 -138.435)">
      <line id="Line_1-6" data-name="Line 1" x1="1" y2="23" transform="translate(756.5 138.5)" fill="none" stroke="#000" stroke-width="3"/>
    </g>
    <g transform="translate(-605.001 -138.435)">
      <line id="Line_1-7" data-name="Line 1" x1="1" y2="23" transform="translate(756.5 138.5)" fill="none" stroke="#000" stroke-width="3"/>
    </g>
    <g transform="translate(-755.001 -103.435)">
      <line id="Line_1-8" data-name="Line 1" x1="1" y2="23" transform="translate(756.5 138.5)" fill="none" stroke="#000" stroke-width="3"/>
    </g>
    <g transform="translate(-730.001 -103.435)">
      <line id="Line_1-9" data-name="Line 1" x1="1" y2="23" transform="translate(756.5 138.5)" fill="none" stroke="#000" stroke-width="3"/>
    </g>
    <g transform="translate(-705.001 -103.435)">
      <line id="Line_1-10" data-name="Line 1" x1="1" y2="23" transform="translate(756.5 138.5)" fill="none" stroke="#000" stroke-width="3"/>
    </g>
    <g transform="translate(-680.001 -103.435)">
      <line id="Line_1-11" data-name="Line 1" x1="1" y2="23" transform="translate(756.5 138.5)" fill="none" stroke="#000" stroke-width="3"/>
    </g>
    <g transform="translate(-655.001 -103.435)">
      <line id="Line_1-12" data-name="Line 1" x1="1" y2="23" transform="translate(756.5 138.5)" fill="none" stroke="#000" stroke-width="3"/>
    </g>
    <g transform="translate(-630.001 -103.435)">
      <line id="Line_1-13" data-name="Line 1" x1="1" y2="23" transform="translate(756.5 138.5)" fill="none" stroke="#000" stroke-width="3"/>
    </g>
    <g transform="translate(-605.001 -103.435)">
      <line id="Line_1-14" data-name="Line 1" x1="1" y2="23" transform="translate(756.5 138.5)" fill="none" stroke="#000" stroke-width="3"/>
    </g>
    <g transform="translate(-755.001 -68.435)">
      <line id="Line_1-15" data-name="Line 1" x1="1" y2="23" transform="translate(756.5 138.5)" fill="none" stroke="#000" stroke-width="3"/>
    </g>
    <g transform="translate(-730.001 -68.435)">
      <line id="Line_1-16" data-name="Line 1" x1="1" y2="23" transform="translate(756.5 138.5)" fill="none" stroke="#000" stroke-width="3"/>
    </g>
    <g transform="translate(-705.001 -68.435)">
      <line id="Line_1-17" data-name="Line 1" x1="1" y2="23" transform="translate(756.5 138.5)" fill="none" stroke="#000" stroke-width="3"/>
    </g>
    <g transform="translate(-680.001 -68.435)">
      <line id="Line_1-18" data-name="Line 1" x1="1" y2="23" transform="translate(756.5 138.5)" fill="none" stroke="#000" stroke-width="3"/>
    </g>
    <g transform="translate(-655.001 -68.435)">
      <line id="Line_1-19" data-name="Line 1" x1="1" y2="23" transform="translate(756.5 138.5)" fill="none" stroke="#000" stroke-width="3"/>
    </g>
    <g transform="translate(-630.001 -68.435)">
      <line id="Line_1-20" data-name="Line 1" x1="1" y2="23" transform="translate(756.5 138.5)" fill="none" stroke="#000" stroke-width="3"/>
    </g>
    <g transform="translate(-605.001 -68.435)">
      <line id="Line_1-21" data-name="Line 1" x1="1" y2="23" transform="translate(756.5 138.5)" fill="none" stroke="#000" stroke-width="3"/>
    </g>
    <g transform="translate(-755.001 -33.435)">
      <line id="Line_1-22" data-name="Line 1" x1="1" y2="23" transform="translate(756.5 138.5)" fill="none" stroke="#000" stroke-width="3"/>
    </g>
    <g transform="translate(-730.001 -33.435)">
      <line id="Line_1-23" data-name="Line 1" x1="1" y2="23" transform="translate(756.5 138.5)" fill="none" stroke="#000" stroke-width="3"/>
    </g>
    <g transform="translate(-705.001 -33.435)">
      <line id="Line_1-24" data-name="Line 1" x1="1" y2="23" transform="translate(756.5 138.5)" fill="none" stroke="#000" stroke-width="3"/>
    </g>
    <g transform="translate(-680.001 -33.435)">
      <line id="Line_1-25" data-name="Line 1" x1="1" y2="23" transform="translate(756.5 138.5)" fill="none" stroke="#000" stroke-width="3"/>
    </g>
    <g transform="translate(-655.001 -33.435)">
      <line id="Line_1-26" data-name="Line 1" x1="1" y2="23" transform="translate(756.5 138.5)" fill="none" stroke="#000" stroke-width="3"/>
    </g>
    <g transform="translate(-630.001 -33.435)">
      <line id="Line_1-27" data-name="Line 1" x1="1" y2="23" transform="translate(756.5 138.5)" fill="none" stroke="#000" stroke-width="3"/>
    </g>
    <g transform="translate(-605.001 -33.435)">
      <line id="Line_1-28" data-name="Line 1" x1="1" y2="23" transform="translate(756.5 138.5)" fill="none" stroke="#000" stroke-width="3"/>
    </g>
    <g transform="translate(-755.001 1.565)">
      <line id="Line_1-29" data-name="Line 1" x1="1" y2="23" transform="translate(756.5 138.5)" fill="none" stroke="#000" stroke-width="3"/>
    </g>
    <g transform="translate(-730.001 1.565)">
      <line id="Line_1-30" data-name="Line 1" x1="1" y2="23" transform="translate(756.5 138.5)" fill="none" stroke="#000" stroke-width="3"/>
    </g>
    <g transform="translate(-705.001 1.565)">
      <line id="Line_1-31" data-name="Line 1" x1="1" y2="23" transform="translate(756.5 138.5)" fill="none" stroke="#000" stroke-width="3"/>
    </g>
    <g transform="translate(-680.001 1.565)">
      <line id="Line_1-32" data-name="Line 1" x1="1" y2="23" transform="translate(756.5 138.5)" fill="none" stroke="#000" stroke-width="3"/>
    </g>
    <g transform="translate(-655.001 1.565)">
      <line id="Line_1-33" data-name="Line 1" x1="1" y2="23" transform="translate(756.5 138.5)" fill="none" stroke="#000" stroke-width="3"/>
    </g>
    <g transform="translate(-630.001 1.565)">
      <line id="Line_1-34" data-name="Line 1" x1="1" y2="23" transform="translate(756.5 138.5)" fill="none" stroke="#000" stroke-width="3"/>
    </g>
    <g transform="translate(-605.001 1.565)">
      <line id="Line_1-35" data-name="Line 1" x1="1" y2="23" transform="translate(756.5 138.5)" fill="none" stroke="#000" stroke-width="3"/>
    </g>
    <g transform="translate(-755.001 36.565)">
      <line id="Line_1-36" data-name="Line 1" x1="1" y2="23" transform="translate(756.5 138.5)" fill="none" stroke="#000" stroke-width="3"/>
    </g>
    <g transform="translate(-730.001 36.565)">
      <line id="Line_1-37" data-name="Line 1" x1="1" y2="23" transform="translate(756.5 138.5)" fill="none" stroke="#000" stroke-width="3"/>
    </g>
    <g transform="translate(-705.001 36.565)">
      <line id="Line_1-38" data-name="Line 1" x1="1" y2="23" transform="translate(756.5 138.5)" fill="none" stroke="#000" stroke-width="3"/>
    </g>
    <g transform="translate(-680.001 36.565)">
      <line id="Line_1-39" data-name="Line 1" x1="1" y2="23" transform="translate(756.5 138.5)" fill="none" stroke="#000" stroke-width="3"/>
    </g>
    <g transform="translate(-655.001 36.565)">
      <line id="Line_1-40" data-name="Line 1" x1="1" y2="23" transform="translate(756.5 138.5)" fill="none" stroke="#000" stroke-width="3"/>
    </g>
    <g transform="translate(-630.001 36.565)">
      <line id="Line_1-41" data-name="Line 1" x1="1" y2="23" transform="translate(756.5 138.5)" fill="none" stroke="#000" stroke-width="3"/>
    </g>
    <g transform="translate(-605.001 36.565)">
      <line id="Line_1-42" data-name="Line 1" x1="1" y2="23" transform="translate(756.5 138.5)" fill="none" stroke="#000" stroke-width="3"/>
    </g>
    <g transform="translate(-755.001 71.565)">
      <line id="Line_1-43" data-name="Line 1" x1="1" y2="23" transform="translate(756.5 138.5)" fill="none" stroke="#000" stroke-width="3"/>
    </g>
    <g transform="translate(-730.001 71.565)">
      <line id="Line_1-44" data-name="Line 1" x1="1" y2="23" transform="translate(756.5 138.5)" fill="none" stroke="#000" stroke-width="3"/>
    </g>
    <g transform="translate(-705.001 71.565)">
      <line id="Line_1-45" data-name="Line 1" x1="1" y2="23" transform="translate(756.5 138.5)" fill="none" stroke="#000" stroke-width="3"/>
    </g>
    <g transform="translate(-680.001 71.565)">
      <line id="Line_1-46" data-name="Line 1" x1="1" y2="23" transform="translate(756.5 138.5)" fill="none" stroke="#000" stroke-width="3"/>
    </g>
    <g transform="translate(-655.001 71.565)">
      <line id="Line_1-47" data-name="Line 1" x1="1" y2="23" transform="translate(756.5 138.5)" fill="none" stroke="#000" stroke-width="3"/>
    </g>
    <g transform="translate(-630.001 71.565)">
      <line id="Line_1-48" data-name="Line 1" x1="1" y2="23" transform="translate(756.5 138.5)" fill="none" stroke="#000" stroke-width="3"/>
    </g>
    <g transform="translate(-605.001 71.565)">
      <line id="Line_1-49" data-name="Line 1" x1="1" y2="23" transform="translate(756.5 138.5)" fill="none" stroke="#000" stroke-width="3"/>
    </g>
    <g transform="translate(-755.001 106.565)">
      <line id="Line_1-50" data-name="Line 1" x1="1" y2="23" transform="translate(756.5 138.5)" fill="none" stroke="#000" stroke-width="3"/>
    </g>
    <g transform="translate(-730.001 106.565)">
      <line id="Line_1-51" data-name="Line 1" x1="1" y2="23" transform="translate(756.5 138.5)" fill="none" stroke="#000" stroke-width="3"/>
    </g>
    <g transform="translate(-705.001 106.565)">
      <line id="Line_1-52" data-name="Line 1" x1="1" y2="23" transform="translate(756.5 138.5)" fill="none" stroke="#000" stroke-width="3"/>
    </g>
    <g transform="translate(-680.001 106.565)">
      <line id="Line_1-53" data-name="Line 1" x1="1" y2="23" transform="translate(756.5 138.5)" fill="none" stroke="#000" stroke-width="3"/>
    </g>
    <g transform="translate(-655.001 106.565)">
      <line id="Line_1-54" data-name="Line 1" x1="1" y2="23" transform="translate(756.5 138.5)" fill="none" stroke="#000" stroke-width="3"/>
    </g>
    <g transform="translate(-630.001 106.565)">
      <line id="Line_1-55" data-name="Line 1" x1="1" y2="23" transform="translate(756.5 138.5)" fill="none" stroke="#000" stroke-width="3"/>
    </g>
    <g transform="translate(-605.001 106.565)">
      <line id="Line_1-56" data-name="Line 1" x1="1" y2="23" transform="translate(756.5 138.5)" fill="none" stroke="#000" stroke-width="3"/>
    </g>
    <g transform="translate(-755.001 141.565)">
      <line id="Line_1-57" data-name="Line 1" x1="1" y2="23" transform="translate(756.5 138.5)" fill="none" stroke="#000" stroke-width="3"/>
    </g>
    <g transform="translate(-730.001 141.565)">
      <line id="Line_1-58" data-name="Line 1" x1="1" y2="23" transform="translate(756.5 138.5)" fill="none" stroke="#000" stroke-width="3"/>
    </g>
    <g transform="translate(-705.001 141.565)">
      <line id="Line_1-59" data-name="Line 1" x1="1" y2="23" transform="translate(756.5 138.5)" fill="none" stroke="#000" stroke-width="3"/>
    </g>
    <g transform="translate(-680.001 141.565)">
      <line id="Line_1-60" data-name="Line 1" x1="1" y2="23" transform="translate(756.5 138.5)" fill="none" stroke="#000" stroke-width="3"/>
    </g>
    <g transform="translate(-655.001 141.565)">
      <line id="Line_1-61" data-name="Line 1" x1="1" y2="23" transform="translate(756.5 138.5)" fill="none" stroke="#000" stroke-width="3"/>
    </g>
    <g transform="translate(-630.001 141.565)">
      <line id="Line_1-62" data-name="Line 1" x1="1" y2="23" transform="translate(756.5 138.5)" fill="none" stroke="#000" stroke-width="3"/>
    </g>
    <g transform="translate(-605.001 141.565)">
      <line id="Line_1-63" data-name="Line 1" x1="1" y2="23" transform="translate(756.5 138.5)" fill="none" stroke="#000" stroke-width="3"/>
    </g>
    <g transform="translate(-755.001 176.565)">
      <line id="Line_1-64" data-name="Line 1" x1="1" y2="23" transform="translate(756.5 138.5)" fill="none" stroke="#000" stroke-width="3"/>
    </g>
    <g transform="translate(-730.001 176.565)">
      <line id="Line_1-65" data-name="Line 1" x1="1" y2="23" transform="translate(756.5 138.5)" fill="none" stroke="#000" stroke-width="3"/>
    </g>
    <g transform="translate(-705.001 176.565)">
      <line id="Line_1-66" data-name="Line 1" x1="1" y2="23" transform="translate(756.5 138.5)" fill="none" stroke="#000" stroke-width="3"/>
    </g>
    <g transform="translate(-680.001 176.565)">
      <line id="Line_1-67" data-name="Line 1" x1="1" y2="23" transform="translate(756.5 138.5)" fill="none" stroke="#000" stroke-width="3"/>
    </g>
    <g transform="translate(-655.001 176.565)">
      <line id="Line_1-68" data-name="Line 1" x1="1" y2="23" transform="translate(756.5 138.5)" fill="none" stroke="#000" stroke-width="3"/>
    </g>
    <g transform="translate(-630.001 176.565)">
      <line id="Line_1-69" data-name="Line 1" x1="1" y2="23" transform="translate(756.5 138.5)" fill="none" stroke="#000" stroke-width="3"/>
    </g>
    <g transform="translate(-605.001 176.565)">
      <line id="Line_1-70" data-name="Line 1" x1="1" y2="23" transform="translate(756.5 138.5)" fill="none" stroke="#000" stroke-width="3"/>
    </g>
    <g transform="translate(-755.001 211.565)">
      <line id="Line_1-71" data-name="Line 1" x1="1" y2="23" transform="translate(756.5 138.5)" fill="none" stroke="#000" stroke-width="3"/>
    </g>
    <g transform="translate(-730.001 211.565)">
      <line id="Line_1-72" data-name="Line 1" x1="1" y2="23" transform="translate(756.5 138.5)" fill="none" stroke="#000" stroke-width="3"/>
    </g>
    <g transform="translate(-705.001 211.565)">
      <line id="Line_1-73" data-name="Line 1" x1="1" y2="23" transform="translate(756.5 138.5)" fill="none" stroke="#000" stroke-width="3"/>
    </g>
    <g transform="translate(-680.001 211.565)">
      <line id="Line_1-74" data-name="Line 1" x1="1" y2="23" transform="translate(756.5 138.5)" fill="none" stroke="#000" stroke-width="3"/>
    </g>
    <g transform="translate(-655.001 211.565)">
      <line id="Line_1-75" data-name="Line 1" x1="1" y2="23" transform="translate(756.5 138.5)" fill="none" stroke="#000" stroke-width="3"/>
    </g>
    <g transform="translate(-630.001 211.565)">
      <line id="Line_1-76" data-name="Line 1" x1="1" y2="23" transform="translate(756.5 138.5)" fill="none" stroke="#000" stroke-width="3"/>
    </g>
    <g transform="translate(-605.001 211.565)">
      <line id="Line_1-77" data-name="Line 1" x1="1" y2="23" transform="translate(756.5 138.5)" fill="none" stroke="#000" stroke-width="3"/>
    </g>
    <g transform="translate(-755.001 246.565)">
      <line id="Line_1-78" data-name="Line 1" x1="1" y2="23" transform="translate(756.5 138.5)" fill="none" stroke="#000" stroke-width="3"/>
    </g>
    <g transform="translate(-730.001 246.565)">
      <line id="Line_1-79" data-name="Line 1" x1="1" y2="23" transform="translate(756.5 138.5)" fill="none" stroke="#000" stroke-width="3"/>
    </g>
    <g transform="translate(-705.001 246.565)">
      <line id="Line_1-80" data-name="Line 1" x1="1" y2="23" transform="translate(756.5 138.5)" fill="none" stroke="#000" stroke-width="3"/>
    </g>
    <g transform="translate(-680.001 246.565)">
      <line id="Line_1-81" data-name="Line 1" x1="1" y2="23" transform="translate(756.5 138.5)" fill="none" stroke="#000" stroke-width="3"/>
    </g>
    <g transform="translate(-655.001 246.565)">
      <line id="Line_1-82" data-name="Line 1" x1="1" y2="23" transform="translate(756.5 138.5)" fill="none" stroke="#000" stroke-width="3"/>
    </g>
    <g transform="translate(-630.001 246.565)">
      <line id="Line_1-83" data-name="Line 1" x1="1" y2="23" transform="translate(756.5 138.5)" fill="none" stroke="#000" stroke-width="3"/>
    </g>
    <g transform="translate(-605.001 246.565)">
      <line id="Line_1-84" data-name="Line 1" x1="1" y2="23" transform="translate(756.5 138.5)" fill="none" stroke="#000" stroke-width="3"/>
    </g>
  </g>
</svg>
