<svg xmlns="http://www.w3.org/2000/svg" width="941" height="1295">
  <defs>
    <filter id="b" x="126.106" y="196.629" width="31.237" height="31.882" filterUnits="userSpaceOnUse">
      <feOffset dx="3" dy="3"/>
      <feGaussianBlur result="blur"/>
      <feFlood/>
      <feComposite operator="in" in2="blur" result="result1"/>
      <feComposite in="SourceGraphic" in2="result1"/>
    </filter>
    <filter id="c" x="221.03" y="172.24" width="30.632" height="26" filterUnits="userSpaceOnUse">
      <feOffset dx="3" dy="3"/>
      <feGaussianBlur result="blur-2"/>
      <feFlood/>
      <feComposite operator="in" in2="blur-2" result="result1"/>
      <feComposite in="SourceGraphic" in2="result1"/>
    </filter>
    <clipPath id="a">
      <path fill="none" d="M0 0h333.168v1176.71H0z"/>
    </clipPath>
  </defs>
  <g data-name="Group 233">
    <g data-name="Rectangle 117" fill="#468bad" stroke="#000" stroke-width="2">
      <path stroke="none" d="M2.40069 0h941v1295h-941z"/>
      <path fill="none" d="M3.40069 1h939v1293h-939z"/>
    </g>
    <g data-name="Repeat Grid 14" transform="translate(49.45869 37.435)" clip-path="url(#a)">
      <path data-name="Line 1" fill="none" stroke="#000" stroke-width="3" d="M2.499.065l-1 23M27.499.065l-1 23M52.499.065l-1 23M77.499.065l-1 23M102.499.065l-1 23M127.499.065l-1 23M152.499.065l-1 23M177.499.065l-1 23M202.499.065l-1 23M227.499.065l-1 23M252.499.065l-1 23M277.499.065l-1 23M302.499.065l-1 23M327.499.065l-1 23M2.499 35.065l-1 23M27.499 35.065l-1 23M52.499 35.065l-1 23M77.499 35.065l-1 23M102.499 35.065l-1 23M127.499 35.065l-1 23M152.499 35.065l-1 23M177.499 35.065l-1 23M202.499 35.065l-1 23M227.499 35.065l-1 23M252.499 35.065l-1 23M277.499 35.065l-1 23M302.499 35.065l-1 23M327.499 35.065l-1 23M2.499 70.065l-1 23M27.499 70.065l-1 23M52.499 70.065l-1 23M77.499 70.065l-1 23M102.499 70.065l-1 23M127.499 70.065l-1 23M152.499 70.065l-1 23M177.499 70.065l-1 23M202.499 70.065l-1 23M227.499 70.065l-1 23M252.499 70.065l-1 23M277.499 70.065l-1 23M302.499 70.065l-1 23M327.499 70.065l-1 23M2.499 105.065l-1 23M27.499 105.065l-1 23M52.499 105.065l-1 23M77.499 105.065l-1 23M102.499 105.065l-1 23M127.499 105.065l-1 23M152.499 105.065l-1 23M177.499 105.065l-1 23M202.499 105.065l-1 23M227.499 105.065l-1 23M252.499 105.065l-1 23M277.499 105.065l-1 23M302.499 105.065l-1 23M327.499 105.065l-1 23M2.499 140.065l-1 23M27.499 140.065l-1 23M52.499 140.065l-1 23M77.499 140.065l-1 23M102.499 140.065l-1 23M127.499 140.065l-1 23M152.499 140.065l-1 23M177.499 140.065l-1 23M202.499 140.065l-1 23M227.499 140.065l-1 23M252.499 140.065l-1 23M277.499 140.065l-1 23M302.499 140.065l-1 23M327.499 140.065l-1 23M2.499 175.065l-1 23M27.499 175.065l-1 23M52.499 175.065l-1 23M77.499 175.065l-1 23M102.499 175.065l-1 23M127.499 175.065l-1 23M152.499 175.065l-1 23M177.499 175.065l-1 23M202.499 175.065l-1 23M227.499 175.065l-1 23M252.499 175.065l-1 23M277.499 175.065l-1 23M302.499 175.065l-1 23M327.499 175.065l-1 23M2.499 210.065l-1 23M27.499 210.065l-1 23M52.499 210.065l-1 23M77.499 210.065l-1 23M102.499 210.065l-1 23M127.499 210.065l-1 23M152.499 210.065l-1 23M177.499 210.065l-1 23M202.499 210.065l-1 23M227.499 210.065l-1 23M252.499 210.065l-1 23M277.499 210.065l-1 23M302.499 210.065l-1 23M327.499 210.065l-1 23M2.499 245.065l-1 23M27.499 245.065l-1 23M52.499 245.065l-1 23M77.499 245.065l-1 23M102.499 245.065l-1 23M127.499 245.065l-1 23M152.499 245.065l-1 23M177.499 245.065l-1 23M202.499 245.065l-1 23M227.499 245.065l-1 23M252.499 245.065l-1 23M277.499 245.065l-1 23M302.499 245.065l-1 23M327.499 245.065l-1 23M2.499 280.065l-1 23M27.499 280.065l-1 23M52.499 280.065l-1 23M77.499 280.065l-1 23M102.499 280.065l-1 23M127.499 280.065l-1 23M152.499 280.065l-1 23M177.499 280.065l-1 23M202.499 280.065l-1 23M227.499 280.065l-1 23M252.499 280.065l-1 23M277.499 280.065l-1 23M302.499 280.065l-1 23M327.499 280.065l-1 23M2.499 315.065l-1 23M27.499 315.065l-1 23M52.499 315.065l-1 23M77.499 315.065l-1 23M102.499 315.065l-1 23M127.499 315.065l-1 23M152.499 315.065l-1 23M177.499 315.065l-1 23M202.499 315.065l-1 23M227.499 315.065l-1 23M252.499 315.065l-1 23M277.499 315.065l-1 23M302.499 315.065l-1 23M327.499 315.065l-1 23M2.499 350.065l-1 23M27.499 350.065l-1 23M52.499 350.065l-1 23M77.499 350.065l-1 23M102.499 350.065l-1 23M127.499 350.065l-1 23M152.499 350.065l-1 23M177.499 350.065l-1 23M202.499 350.065l-1 23M227.499 350.065l-1 23M252.499 350.065l-1 23M277.499 350.065l-1 23M302.499 350.065l-1 23M327.499 350.065l-1 23M2.499 385.065l-1 23M27.499 385.065l-1 23M52.499 385.065l-1 23M77.499 385.065l-1 23M102.499 385.065l-1 23M127.499 385.065l-1 23M152.499 385.065l-1 23M177.499 385.065l-1 23M202.499 385.065l-1 23M227.499 385.065l-1 23M252.499 385.065l-1 23M277.499 385.065l-1 23M302.499 385.065l-1 23M327.499 385.065l-1 23M2.499 420.065l-1 23M27.499 420.065l-1 23M52.499 420.065l-1 23M77.499 420.065l-1 23M102.499 420.065l-1 23M127.499 420.065l-1 23M152.499 420.065l-1 23M177.499 420.065l-1 23M202.499 420.065l-1 23M227.499 420.065l-1 23M252.499 420.065l-1 23M277.499 420.065l-1 23M302.499 420.065l-1 23M327.499 420.065l-1 23M2.499 455.065l-1 23M27.499 455.065l-1 23M52.499 455.065l-1 23M77.499 455.065l-1 23M102.499 455.065l-1 23M127.499 455.065l-1 23M152.499 455.065l-1 23M177.499 455.065l-1 23M202.499 455.065l-1 23M227.499 455.065l-1 23M252.499 455.065l-1 23M277.499 455.065l-1 23M302.499 455.065l-1 23M327.499 455.065l-1 23M2.499 490.065l-1 23M27.499 490.065l-1 23M52.499 490.065l-1 23M77.499 490.065l-1 23M102.499 490.065l-1 23M127.499 490.065l-1 23M152.499 490.065l-1 23M177.499 490.065l-1 23M202.499 490.065l-1 23M227.499 490.065l-1 23M252.499 490.065l-1 23M277.499 490.065l-1 23M302.499 490.065l-1 23M327.499 490.065l-1 23M2.499 525.065l-1 23M27.499 525.065l-1 23M52.499 525.065l-1 23M77.499 525.065l-1 23M102.499 525.065l-1 23M127.499 525.065l-1 23M152.499 525.065l-1 23M177.499 525.065l-1 23M202.499 525.065l-1 23M227.499 525.065l-1 23M252.499 525.065l-1 23M277.499 525.065l-1 23M302.499 525.065l-1 23M327.499 525.065l-1 23M2.499 560.065l-1 23M27.499 560.065l-1 23M52.499 560.065l-1 23M77.499 560.065l-1 23M102.499 560.065l-1 23M127.499 560.065l-1 23M152.499 560.065l-1 23M177.499 560.065l-1 23M202.499 560.065l-1 23M227.499 560.065l-1 23M252.499 560.065l-1 23M277.499 560.065l-1 23M302.499 560.065l-1 23M327.499 560.065l-1 23M2.499 595.065l-1 23M27.499 595.065l-1 23M52.499 595.065l-1 23M77.499 595.065l-1 23M102.499 595.065l-1 23M127.499 595.065l-1 23M152.499 595.065l-1 23M177.499 595.065l-1 23M202.499 595.065l-1 23M227.499 595.065l-1 23M252.499 595.065l-1 23M277.499 595.065l-1 23M302.499 595.065l-1 23M327.499 595.065l-1 23M2.499 630.065l-1 23M27.499 630.065l-1 23M52.499 630.065l-1 23M77.499 630.065l-1 23M102.499 630.065l-1 23M127.499 630.065l-1 23M152.499 630.065l-1 23M177.499 630.065l-1 23M202.499 630.065l-1 23M227.499 630.065l-1 23M252.499 630.065l-1 23M277.499 630.065l-1 23M302.499 630.065l-1 23M327.499 630.065l-1 23M2.499 665.065l-1 23M27.499 665.065l-1 23M52.499 665.065l-1 23M77.499 665.065l-1 23M102.499 665.065l-1 23M127.499 665.065l-1 23M152.499 665.065l-1 23M177.499 665.065l-1 23M202.499 665.065l-1 23M227.499 665.065l-1 23M252.499 665.065l-1 23M277.499 665.065l-1 23M302.499 665.065l-1 23M327.499 665.065l-1 23M2.499 700.065l-1 23M27.499 700.065l-1 23M52.499 700.065l-1 23M77.499 700.065l-1 23M102.499 700.065l-1 23M127.499 700.065l-1 23M152.499 700.065l-1 23M177.499 700.065l-1 23M202.499 700.065l-1 23M227.499 700.065l-1 23M252.499 700.065l-1 23M277.499 700.065l-1 23M302.499 700.065l-1 23M327.499 700.065l-1 23M2.499 735.065l-1 23M27.499 735.065l-1 23M52.499 735.065l-1 23M77.499 735.065l-1 23M102.499 735.065l-1 23M127.499 735.065l-1 23M152.499 735.065l-1 23M177.499 735.065l-1 23M202.499 735.065l-1 23M227.499 735.065l-1 23M252.499 735.065l-1 23M277.499 735.065l-1 23M302.499 735.065l-1 23M327.499 735.065l-1 23M2.499 770.065l-1 23M27.499 770.065l-1 23M52.499 770.065l-1 23M77.499 770.065l-1 23M102.499 770.065l-1 23M127.499 770.065l-1 23M152.499 770.065l-1 23M177.499 770.065l-1 23M202.499 770.065l-1 23M227.499 770.065l-1 23M252.499 770.065l-1 23M277.499 770.065l-1 23M302.499 770.065l-1 23M327.499 770.065l-1 23M2.499 805.065l-1 23M27.499 805.065l-1 23M52.499 805.065l-1 23M77.499 805.065l-1 23M102.499 805.065l-1 23M127.499 805.065l-1 23M152.499 805.065l-1 23M177.499 805.065l-1 23M202.499 805.065l-1 23M227.499 805.065l-1 23M252.499 805.065l-1 23M277.499 805.065l-1 23M302.499 805.065l-1 23M327.499 805.065l-1 23M2.499 840.065l-1 23M27.499 840.065l-1 23M52.499 840.065l-1 23M77.499 840.065l-1 23M102.499 840.065l-1 23M127.499 840.065l-1 23M152.499 840.065l-1 23M177.499 840.065l-1 23M202.499 840.065l-1 23M227.499 840.065l-1 23M252.499 840.065l-1 23M277.499 840.065l-1 23M302.499 840.065l-1 23M327.499 840.065l-1 23M2.499 875.065l-1 23M27.499 875.065l-1 23M52.499 875.065l-1 23M77.499 875.065l-1 23M102.499 875.065l-1 23M127.499 875.065l-1 23M152.499 875.065l-1 23M177.499 875.065l-1 23M202.499 875.065l-1 23M227.499 875.065l-1 23M252.499 875.065l-1 23M277.499 875.065l-1 23M302.499 875.065l-1 23M327.499 875.065l-1 23M2.499 910.065l-1 23M27.499 910.065l-1 23M52.499 910.065l-1 23M77.499 910.065l-1 23M102.499 910.065l-1 23M127.499 910.065l-1 23M152.499 910.065l-1 23M177.499 910.065l-1 23M202.499 910.065l-1 23M227.499 910.065l-1 23M252.499 910.065l-1 23M277.499 910.065l-1 23M302.499 910.065l-1 23M327.499 910.065l-1 23M2.499 945.065l-1 23M27.499 945.065l-1 23M52.499 945.065l-1 23M77.499 945.065l-1 23M102.499 945.065l-1 23M127.499 945.065l-1 23M152.499 945.065l-1 23M177.499 945.065l-1 23M202.499 945.065l-1 23M227.499 945.065l-1 23M252.499 945.065l-1 23M277.499 945.065l-1 23M302.499 945.065l-1 23M327.499 945.065l-1 23M2.499 980.065l-1 23M27.499 980.065l-1 23M52.499 980.065l-1 23M77.499 980.065l-1 23M102.499 980.065l-1 23M127.499 980.065l-1 23M152.499 980.065l-1 23M177.499 980.065l-1 23M202.499 980.065l-1 23M227.499 980.065l-1 23M252.499 980.065l-1 23M277.499 980.065l-1 23M302.499 980.065l-1 23M327.499 980.065l-1 23M2.499 1015.065l-1 23M27.499 1015.065l-1 23M52.499 1015.065l-1 23M77.499 1015.065l-1 23M102.499 1015.065l-1 23M127.499 1015.065l-1 23M152.499 1015.065l-1 23M177.499 1015.065l-1 23M202.499 1015.065l-1 23M227.499 1015.065l-1 23M252.499 1015.065l-1 23M277.499 1015.065l-1 23M302.499 1015.065l-1 23M327.499 1015.065l-1 23M2.499 1050.065l-1 23M27.499 1050.065l-1 23M52.499 1050.065l-1 23M77.499 1050.065l-1 23M102.499 1050.065l-1 23M127.499 1050.065l-1 23M152.499 1050.065l-1 23M177.499 1050.065l-1 23M202.499 1050.065l-1 23M227.499 1050.065l-1 23M252.499 1050.065l-1 23M277.499 1050.065l-1 23M302.499 1050.065l-1 23M327.499 1050.065l-1 23M2.499 1085.065l-1 23M27.499 1085.065l-1 23M52.499 1085.065l-1 23M77.499 1085.065l-1 23M102.499 1085.065l-1 23M127.499 1085.065l-1 23M152.499 1085.065l-1 23M177.499 1085.065l-1 23M202.499 1085.065l-1 23M227.499 1085.065l-1 23M252.499 1085.065l-1 23M277.499 1085.065l-1 23M302.499 1085.065l-1 23M327.499 1085.065l-1 23M2.499 1120.065l-1 23M27.499 1120.065l-1 23M52.499 1120.065l-1 23M77.499 1120.065l-1 23M102.499 1120.065l-1 23M127.499 1120.065l-1 23M152.499 1120.065l-1 23M177.499 1120.065l-1 23M202.499 1120.065l-1 23M227.499 1120.065l-1 23M252.499 1120.065l-1 23M277.499 1120.065l-1 23M302.499 1120.065l-1 23M327.499 1120.065l-1 23M2.499 1155.065l-1 23M27.499 1155.065l-1 23M52.499 1155.065l-1 23M77.499 1155.065l-1 23M102.499 1155.065l-1 23M127.499 1155.065l-1 23M152.499 1155.065l-1 23M177.499 1155.065l-1 23M202.499 1155.065l-1 23M227.499 1155.065l-1 23M252.499 1155.065l-1 23M277.499 1155.065l-1 23M302.499 1155.065l-1 23M327.499 1155.065l-1 23"/>
    </g>
    <g data-name="Group 230">
      <g data-name="Rectangle 118" fill="#fbee0a" stroke="#000" stroke-width="2">
        <path stroke="none" d="M90.40069 77h766v236h-766z"/>
        <path fill="none" d="M91.40069 78h764v234h-764z"/>
      </g>
      <g data-name="Group 202">
        <g data-name="Group 195">
          <g data-name="Group 194">
            <g data-name="Group 50">
              <g data-name="Group 47">
                <g data-name="Group 45">
                  <g data-name="Group 8">
                    <g data-name="Component 3 – 11">
                      <g data-name="Path 36" fill="#fbee0a">
                        <path d="M190.501741 261.5c-8.992019 0-17.714256-1.75815-25.9244-5.2256-3.946129-1.66659-7.752254-3.72945-11.312691-6.13124-3.526945-2.37924-6.843582-5.11166-9.857746-8.12135-3.014145-3.00967-5.750563-6.32131-8.133272-9.84295-2.405254-3.55496-4.4710722-7.355229-6.1400361-11.295269-3.4723091-8.197274-5.2329091-16.905762-5.2329091-25.883599 0-8.977836 1.7606-17.686329 5.2329091-25.883598 1.6689639-3.940021 3.7347821-7.740311 6.1400361-11.295275 2.382709-3.521637 5.119127-6.833273 8.133272-9.842926 3.014164-3.00971 6.330801-5.742128 9.857746-8.121346 3.560437-2.4018 7.366562-4.4646542 11.312691-6.1312363 8.210144-3.4674546 16.932381-5.2256001 25.9244-5.2256001 8.992035 0 17.714272 1.7581455 25.924416 5.2256001 3.946129 1.6665821 7.752263 3.7294363 11.312693 6.1312363 3.52694 2.379218 6.84356 5.111636 9.85775 8.121346 3.01414 3.009653 5.75056 6.321289 8.13325 9.842926 2.40528 3.554964 4.47107 7.355254 6.14003 11.295275 3.47232 8.197269 5.23291 16.905762 5.23291 25.883598 0 8.977837-1.76059 17.686325-5.23291 25.883599-1.66896 3.94004-3.73475 7.740309-6.14003 11.295269-2.38269 3.52164-5.11911 6.83328-8.13325 9.84295-3.01419 3.00969-6.33081 5.74211-9.85775 8.12135-3.56043 2.40179-7.366564 4.46465-11.312693 6.13124-8.210144 3.46745-16.932381 5.2256-25.924416 5.2256z"/>
                        <path d="M190.501741 129.9999847c-8.790458 0-17.316337 1.7183838-25.34082 5.1074295-3.856956 1.6289368-7.577217 3.6452408-11.057419 5.9929348-3.447822 2.325844-6.690101 4.997002-9.636741 7.939286-2.946557 2.942177-5.621582 6.179519-7.950783 9.622039-2.350937 3.474701-4.3700335 7.189019-6.0011828 11.03978-3.3934784 8.011162-5.1141205 16.52282-5.1141205 25.298538 0 8.775719 1.7206421 17.287362 5.1141205 25.298539 1.6311493 3.850761 3.6502458 7.565089 6.0011828 11.039759 2.329201 3.44254 5.004226 6.67986 7.950783 9.62206 2.94664 2.94226 6.188919 5.61343 9.636741 7.93926 3.480202 2.3477 7.200463 4.36402 11.057419 5.99296 8.024483 3.38902 16.550362 5.1074 25.34082 5.1074 8.790459 0 17.316338-1.71838 25.340821-5.1074 3.856956-1.62894 7.577218-3.64526 11.057418-5.99296 3.44782-2.32583 6.69008-4.997 9.63672-7.93926 2.94659-2.9422 5.6216-6.17952 7.95078-9.62206 2.35094-3.47467 4.37004-7.188998 6.00121-11.039759 3.39345-8.011162 5.11409-16.52282 5.11409-25.298539 0-8.775718-1.72064-17.287376-5.11409-25.298538-1.63117-3.850761-3.65027-7.565079-6.00121-11.03978-2.32918-3.44252-5.00422-6.679862-7.95078-9.622039-2.94664-2.942284-6.1889-5.613442-9.63672-7.939286-3.4802-2.347694-7.200462-4.363998-11.057418-5.9929348-8.024483-3.3890457-16.550362-5.1074295-25.340821-5.1074295m0-2.99999996c37.611179 0 68.101039 30.44464826 68.101039 68.00000726 0 37.555358-30.48986 67.999978-68.101039 67.999978-37.61116 0-68.10106626-30.44462-68.10106626-67.999978 0-37.555359 30.48990626-68.00000726 68.10106626-68.00000726z"/>
                      </g>
                      <path data-name="Path 109" d="M156.10469 251.485a20.785 20.785 0 004.031 2.988l14.743 5.319 8.3 1.584 5.9.566 9.064-.566 10.7-2.377 7.317-2.377 8.846-4.753 6.989-4.753 6.553-6 2.512-3.282" fill="none"/>
                    </g>
                  </g>
                </g>
                <g transform="translate(2.40069)" filter="url(#b)">
                  <path data-name="Path 115" d="M153.2935 213.18772l-5.42175 4.77114-2.05338-7.79874-5.19525 4.57182-.81444-2.9217-1.22709-4.40838-5.42175 4.77114-1.82754-7.99881" fill="none" stroke="#cd39cd" stroke-width="2.99715"/>
                </g>
                <path data-name="Path 33" d="M185.28069 212.164s-25.154-2.135-21.7-28.3c3.454-26.165 25.655-26.517 25.655-26.517s24.349-2.007 25.5 25.343c.617 14.66-4.891 22.414-12.218 25.927-1.875.9-7.429 4.134-9.578 4.676-2.935.75-7.659-1.129-7.659-1.129z" fill="#ffe1d9" stroke="#000" stroke-width="2"/>
                <path data-name="Path 34" d="M179.82169 211.306v5.38s.622 5.38-5.4 7.864-11.582 8.887-11.582 8.887-8.352 10.7-7.106 13.594" fill="none" stroke="#000" stroke-width="2"/>
                <path data-name="Path 35" d="M198.91069 210.752l.515 4.218s44.124 12.89 40.285 19.76" fill="none" stroke="#000" stroke-width="2"/>
                <path data-name="Path 37" d="M179.83969 199.225s3.675 5.66 9.278 5.869c5.603.209 9.338-5.869 9.338-5.869" fill="none" stroke="#000" stroke-width="2"/>
                <path data-name="Path 110" d="M155.61169 247.192l5.383 2.915 11.687 4.255 5.9 1.429 8.836.736h6.659l8.26-.736 6.851-1.953 8-2.946 8.138-4.371 7.737-5.194 7.034-7.034-1.287-2.4-1.085-.789-1.2-.963-2.724-1.888-3.5-1.673s-3.582-1.783-6.061-2.842a42.4 42.4 0 00-4.867-1.71l-4.936-1.845-1.492-.607-2.3-.784-4.142-1.251-4.706 2.919-2.874.933-1.19.214-2.014.183-4.641.313h-6.8l-2.478-.117-3.078-.362-1.644 1.72-4.3 2.277-2.327 1.417-3.4 2.721-3.5 3.263-1.766 2.4-2.644 3.7-1.315 2.327-1.341 2.682z" stroke="#000"/>
              </g>
              <path data-name="Path 111" d="M179.11569 221.498l.769-1.57.278-1.079.2-1.261v-5.934l1.485.406 1.677.331 1.625.268 2.371.726 1.879.448 2.054.151 1.22-.107 1.121-.295 1.154-.491 1.688-.833 1.815-.927.264 2.149.233 1.871 1.427.413 1.976.609 1.639.521 2.4.823-2.026 1.447-2.61 1.23-2.5.787-3.348.6-2.456.207-2.094.12h-8.037l-2.122-.12z" fill="#ffe1d9"/>
            </g>
          </g>
          <path data-name="Path 74" d="M177.73567622 237.68499825l4.37075108-4.9020816 13.50770079 7.16375241 4.28382679-6.07909738 13.44854457 14.15973936-11.83940982-5.2436125-3.75718624 4.14877676-16.23499483-7.44464234z" fill="#fbee0a" stroke="#000" stroke-width="3"/>
          <g transform="translate(2.40069)" filter="url(#c)">
            <path data-name="Path 116" d="M226.348 194.964l-1.62225-7.5705 8.47483 2.50229-1.76946-8.25748 8.11223 2.57999-1.69575-7.9135 7.67788 2.31329" fill="none" stroke="#cd39cd" stroke-width="3.0067500000000003"/>
          </g>
        </g>
      </g>
      <g data-name="Group 207" letter-spacing=".1em">
        <text data-name="Derya Antonelli" transform="translate(291.40069 156)" font-size="43" font-weight="700" font-family="'Roboto', sans-serif">
          <tspan x="0" y="0">Derya Antonelli</tspan>
        </text>
        <text data-name="Front-End Developer" transform="translate(291.40069 190)" font-size="25" font-weight="700" font-family="'Roboto', sans-serif">
          <tspan x="0" y="0">Front-End Developer</tspan>
        </text>
        <text transform="translate(291.40069 274)" font-size="20" font-weight="700" font-family="'Roboto', sans-serif">
          <tspan x="0" y="0">deryadesktop.com</tspan>
        </text>
        <text data-name="York, UK" transform="translate(291.40069 218)" font-size="20" font-family="'Roboto', sans-serif">
          <tspan x="0" y="0">York, UK</tspan>
        </text>
        <text data-name="derya.antonelli@gmail.com" transform="translate(291.40069 246)" font-size="20" font-family="'Roboto', sans-serif">
          <tspan x="0" y="0">derya.antonelli@gmail.com</tspan>
        </text>
      </g>
    </g>
    <g data-name="Group 222">
      <g data-name="Group 205" stroke="#000" stroke-width="2">
        <g data-name="Rectangle 119" fill="#fbee0a">
          <path stroke="none" d="M90.40069 345h766v201h-766z"/>
          <path fill="none" d="M91.40069 346h764v199h-764z"/>
        </g>
        <g data-name="Rectangle 120" fill="#23dace">
          <path stroke="none" d="M90.40069 345h766v42h-766z"/>
          <path fill="none" d="M91.40069 346h764v40h-764z"/>
        </g>
      </g>
      <text data-name="Technical Skills" transform="translate(389.40069 373)" font-size="20" letter-spacing=".1em" font-family="'Roboto', sans-serif">
        <tspan x="0" y="0">Technical Skills</tspan>
      </text>
      <text data-name="• Language: JavaScript, HTML, CSS/SCSS, Java • Design Tools: Adobe XD • Version Control: GitHub • Other: JavaFX" transform="translate(122.40069 428)" font-size="20" letter-spacing=".1em" font-family="'Roboto', sans-serif">
        <tspan x="0" y="0">• Language: JavaScript, HTML, CSS/SCSS, Java</tspan> <tspan x="0" y="26">• Design Tools: Adobe XD</tspan> <tspan x="0" y="52">• Version Control: GitHub</tspan> <tspan x="0" y="78">• Other: JavaFX</tspan>
      </text>
    </g>
    <g data-name="Group 231">
      <g data-name="Group 206" stroke="#000" stroke-width="2">
        <g data-name="Rectangle 119" fill="#fbee0a">
          <path stroke="none" d="M90.40069 578h766v658h-766z"/>
          <path fill="none" d="M91.40069 579h764v656h-764z"/>
        </g>
        <g data-name="Rectangle 120" fill="#23dace">
          <path stroke="none" d="M90.40069 578h766v42h-766z"/>
          <path fill="none" d="M91.40069 579h764v40h-764z"/>
        </g>
      </g>
      <text transform="translate(429.40069 607)" font-size="20" letter-spacing=".1em" font-family="'Roboto', sans-serif">
        <tspan x="0" y="0">Projects</tspan>
      </text>
      <g data-name="Group 232" font-size="20" letter-spacing=".1em" font-weight="700" font-family="'Roboto', sans-serif">
        <text data-name="Personal Websitederyadesktop.com github.com/D-Antonelli/portfolio • Designed and developed a static website that includes three web-based applications. • Created drummer application that allows users to play and record their drum sounds. • Built a meme" transform="translate(122.40069 664)">
          <tspan x="0" y="0">Personal Website</tspan> <tspan x="0" y="26">deryadesktop.com</tspan> <tspan x="0" y="52">github.com/D-Antonelli/portfolio</tspan> <tspan font-weight="400" font-family="'Roboto', sans-serif"> <tspan x="0" y="78">• Designed and developed a static website that includes three</tspan> <tspan x="0" y="104">web-based applications.</tspan> <tspan x="0" y="130">• Created drummer application that allows users to play and</tspan> <tspan x="0" y="156">record their drum sounds.</tspan> <tspan x="0" y="182">• Built a meme generator that enables users to upload, edit,</tspan> <tspan x="0" y="208">and download memes.</tspan> <tspan x="0" y="234">• Developed weather application that brings daily forecast</tspan> <tspan x="0" y="260">results of a given location.</tspan> <tspan x="0" y="286">• Implemented HTML5 animations and CSS3 transitions in</tspan> <tspan x="0" y="312">website.</tspan> <tspan x="0" y="338">• Created UI elements such as icons and background images</tspan> <tspan x="0" y="364">using Adobe XD and vector graphics tools.</tspan> <tspan x="0" y="390">• Utilized: JavaScript, HTML/CSS/SCSS</tspan>  </tspan>
        </text>
        <text data-name="My Contact Manager github.com/D-Antonelli/Java-My-Contact-Manager • Built a contact management application that helps store, delete, sort, modify, and search user contact information. • Utilized: Java, JavaFX, CSS, Scene Builder." transform="translate(122.40069 1091)">
          <tspan x="0" y="0">My Contact Manager</tspan> <tspan x="0" y="26">github.com/D-Antonelli/Java-My-Contact-Manager</tspan> <tspan font-weight="400" font-family="'Roboto', sans-serif"> <tspan x="0" y="52">• Built a contact management application that helps store,</tspan> <tspan x="0" y="78">delete, sort, modify, and search user contact information.</tspan> <tspan x="0" y="104">• Utilized: Java, JavaFX, CSS, Scene Builder.</tspan> </tspan>
        </text>
      </g>
    </g>
  </g>
  <ellipse cx="190.16707" cy="194.46483" rx="68.777168" ry="67.322144" fill="none" stroke="#000" stroke-width="3.16499996" paint-order="markers stroke fill"/>
</svg>
