<svg xmlns="http://www.w3.org/2000/svg" width="785" height="593" viewBox="0 0 785 593"><g transform="translate(-174 -4604)"><g transform="translate(-481 -106)"><g transform="translate(655 4710)" fill="#fbee0a"><path d="M 784.5 592.5 L 0.5 592.5 L 0.5 0.5 L 784.5 0.5 L 784.5 592.5 Z" stroke="none"/><path d="M 1 1 L 1 592 L 784 592 L 784 1 L 1 1 M 0 0 L 785 0 L 785 593 L 0 593 L 0 0 Z" stroke="none" fill="#000"/></g><g transform="translate(683 4734)" fill="#fbee0a"><path d="M 153.5 153.5 L 0.5 153.5 L 0.5 0.5 L 153.5 0.5 L 153.5 153.5 Z" stroke="none"/><path d="M 1 1 L 1 153 L 153 153 L 153 1 L 1 1 M 0 0 L 154 0 L 154 154 L 0 154 L 0 0 Z" stroke="none" fill="#000"/></g><g transform="translate(874 4734)" fill="#fbee0a"><path d="M 153.5 153.5 L 0.5 153.5 L 0.5 0.5 L 153.5 0.5 L 153.5 153.5 Z" stroke="none"/><path d="M 1 1 L 1 153 L 153 153 L 153 1 L 1 1 M 0 0 L 154 0 L 154 154 L 0 154 L 0 0 Z" stroke="none" fill="#000"/></g><g transform="translate(1065 4734)" fill="#fbee0a"><path d="M 153.5 153.5 L 0.5 153.5 L 0.5 0.5 L 153.5 0.5 L 153.5 153.5 Z" stroke="none"/><path d="M 1 1 L 1 153 L 153 153 L 153 1 L 1 1 M 0 0 L 154 0 L 154 154 L 0 154 L 0 0 Z" stroke="none" fill="#000"/></g><g transform="translate(1256 4734)" fill="#fbee0a"><path d="M 153.5 153.5 L 0.5 153.5 L 0.5 0.5 L 153.5 0.5 L 153.5 153.5 Z" stroke="none"/><path d="M 1 1 L 1 153 L 153 153 L 153 1 L 1 1 M 0 0 L 154 0 L 154 154 L 0 154 L 0 0 Z" stroke="none" fill="#000"/></g><g transform="translate(683 4925)" fill="#fbee0a"><path d="M 153.5 153.5 L 0.5 153.5 L 0.5 0.5 L 153.5 0.5 L 153.5 153.5 Z" stroke="none"/><path d="M 1 1 L 1 153 L 153 153 L 153 1 L 1 1 M 0 0 L 154 0 L 154 154 L 0 154 L 0 0 Z" stroke="none" fill="#000"/></g><g transform="translate(874 4925)" fill="#fbee0a"><path d="M 153.5 153.5 L 0.5 153.5 L 0.5 0.5 L 153.5 0.5 L 153.5 153.5 Z" stroke="none"/><path d="M 1 1 L 1 153 L 153 153 L 153 1 L 1 1 M 0 0 L 154 0 L 154 154 L 0 154 L 0 0 Z" stroke="none" fill="#000"/></g><g transform="translate(1065 4925)" fill="#fbee0a"><path d="M 153.5 153.5 L 0.5 153.5 L 0.5 0.5 L 153.5 0.5 L 153.5 153.5 Z" stroke="none"/><path d="M 1 1 L 1 153 L 153 153 L 153 1 L 1 1 M 0 0 L 154 0 L 154 154 L 0 154 L 0 0 Z" stroke="none" fill="#000"/></g><g transform="translate(1256 4925)" fill="#fbee0a"><path d="M 153.5 153.5 L 0.5 153.5 L 0.5 0.5 L 153.5 0.5 L 153.5 153.5 Z" stroke="none"/><path d="M 1 1 L 1 153 L 153 153 L 153 1 L 1 1 M 0 0 L 154 0 L 154 154 L 0 154 L 0 0 Z" stroke="none" fill="#000"/></g><g transform="translate(683 5116)" fill="#fbee0a"><path d="M 153.5 153.5 L 0.5 153.5 L 0.5 0.5 L 153.5 0.5 L 153.5 153.5 Z" stroke="none"/><path d="M 1 1 L 1 153 L 153 153 L 153 1 L 1 1 M 0 0 L 154 0 L 154 154 L 0 154 L 0 0 Z" stroke="none" fill="#000"/></g><g transform="translate(874 5116)" fill="#fbee0a"><path d="M 153.5 153.5 L 0.5 153.5 L 0.5 0.5 L 153.5 0.5 L 153.5 153.5 Z" stroke="none"/><path d="M 1 1 L 1 153 L 153 153 L 153 1 L 1 1 M 0 0 L 154 0 L 154 154 L 0 154 L 0 0 Z" stroke="none" fill="#000"/></g><g transform="translate(1065 5116)" fill="#fbee0a"><path d="M 153.5 153.5 L 0.5 153.5 L 0.5 0.5 L 153.5 0.5 L 153.5 153.5 Z" stroke="none"/><path d="M 1 1 L 1 153 L 153 153 L 153 1 L 1 1 M 0 0 L 154 0 L 154 154 L 0 154 L 0 0 Z" stroke="none" fill="#000"/></g><g transform="translate(1256 5116)" fill="#fbee0a"><path d="M 153.5 153.5 L 0.5 153.5 L 0.5 0.5 L 153.5 0.5 L 153.5 153.5 Z" stroke="none"/><path d="M 1 1 L 1 153 L 153 153 L 153 1 L 1 1 M 0 0 L 154 0 L 154 154 L 0 154 L 0 0 Z" stroke="none" fill="#000"/></g><path d="M0,32v80H80V32ZM43.536,94.393c0,7.786-4.571,11.339-11.232,11.339-6.018,0-9.5-3.107-11.286-6.875l6.125-3.7c1.179,2.089,2.25,3.857,4.839,3.857,2.464,0,4.036-.964,4.036-4.732V68.732h7.518Zm17.786,11.339c-6.982,0-11.5-3.321-13.7-7.679l6.125-3.536c1.607,2.625,3.714,4.571,7.411,4.571,3.107,0,5.107-1.554,5.107-3.714,0-2.571-2.036-3.482-5.482-5l-1.875-.8c-5.429-2.3-9.018-5.214-9.018-11.339,0-5.643,4.3-9.929,11-9.929,4.786,0,8.214,1.661,10.679,6.018l-5.857,3.75c-1.286-2.3-2.679-3.214-4.839-3.214a3.263,3.263,0,0,0-3.589,3.214c0,2.25,1.393,3.161,4.625,4.571l1.875.8c6.393,2.732,9.982,5.536,9.982,11.821,0,6.75-5.321,10.464-12.446,10.464Z" transform="translate(720 4723)"/><text transform="translate(713 4867)" font-size="20" font-family="Roboto-Regular, Roboto"><tspan x="0" y="0">JavaScript</tspan></text><path d="M0,32l7.271,70.679L39.9,112l32.833-9.321L80,32ZM64.208,54.839H25.917l.854,8.821H63.354l-2.833,26.5-20.4,4.821v.054H39.9L19.333,90.161l-1.25-13.536h9.937l.729,6.8L39.9,86.018l11.188-2.589,1.25-11.107H17.563l-2.667-26H65.125Z" transform="translate(912 4722)"/><text transform="translate(925 4867)" font-size="20" font-family="Roboto-Regular, Roboto"><tspan x="0" y="0">HTML</tspan></text><path d="M0,32l7.271,70.679L40,112l32.729-9.321L80,32ZM65.229,46.286l-1,8.446-24.021,8.8-.062.018H63.375L60.708,89.732,40.25,94.857,19.667,89.643l-1.333-13.2H28.521l.667,6.839,10.958,2.375,11.4-2.75.771-11-34.646-.089V71.8l-.042.018-.75-8.268,23.354-8.339,1.354-.482h-25.6l-1.208-8.446Z" transform="translate(1102 4722)"/><text transform="translate(1124 4867)" font-size="20" font-family="Roboto-Regular, Roboto"><tspan x="0" y="0">CSS</tspan></text><path d="M37.734,76.485C37.7,76.585,37.659,76.665,37.734,76.485Zm31.142-14.5a13.147,13.147,0,0,0-7.25,2.25A24.623,24.623,0,0,1,60,59.22,17.778,17.778,0,0,1,59.863,55a44.993,44.993,0,0,1,.95-4.533c-.012-.183-.175-1.1-1.788-1.117s-3,.417-3.161.983A26,26,0,0,0,55.2,53.52c-.288,1.95-3.224,8.916-4.886,12.549A15.692,15.692,0,0,1,49.2,62.4a17.778,17.778,0,0,1-.138-4.216,45,45,0,0,1,.95-4.533c-.012-.183-.175-1.1-1.786-1.117s-3,.417-3.163.983-.338,1.9-.663,3.183-4.236,12.882-5.26,15.9c-.525,1.533-.975,2.766-1.3,3.6-.05.133-.088.217-.113.283.038-.083.063-.167.063-.133-.275.717-.438,1.117-.438,1.117v.017c-.213.533-.45,1.017-.563,1.017a9.152,9.152,0,0,1,.038-3.316c.588-4.033,1.975-10.3,1.963-10.516a1.616,1.616,0,0,0-.913-1.783,1.242,1.242,0,0,0-1.65.367c-.1,0-.175.333-.175.333s1.263-7.066-2.424-7.066c-2.3,0-5.5,3.366-7.073,6.416-.988.717-3.125,2.266-5.375,3.916-.863.633-1.75,1.283-2.588,1.9-.062-.083-.112-.167-.175-.25C13.948,62.136,5.688,57.637,6.038,49.088c.125-3.116.938-11.3,15.884-21.232,12.25-8.133,22.044-5.9,23.73-.933,2.425,7.083-5.236,20.265-17.958,22.165-4.849.717-7.4-1.783-8.035-2.716-.663-.983-.763-1.033-1.013-.85-.413.3-.15,1.167,0,1.683a8.529,8.529,0,0,0,4.6,4.816c2.338,1.017,8.023,1.583,14.9-1.967,7.723-3.966,13.734-15.015,11.971-24.265-1.8-9.4-13.485-12.482-24.539-7.249a54.4,54.4,0,0,0-18.833,14.4C.656,40.538-.318,47.154.082,49.921c1.424,9.816,11.571,16.215,15.633,20.948-.2.15-.388.283-.563.417-2.036,1.35-9.773,6.749-11.709,12.449-2.188,6.466.363,11.1,2.036,11.732C10.7,97.4,16.052,93.917,18.926,88.2s2.525-13.182,1.2-16.582c-.013-.05-.038-.083-.05-.133.525-.417,1.063-.833,1.6-1.25,1.036-.817,2.049-1.567,2.936-2.216a33.545,33.545,0,0,0-1.05,7.1c-.225,3.666.913,8.416,2.388,10.282a2.214,2.214,0,0,0,1.924.833c1.725,0,2.5-1.9,3.361-4.166,1.063-2.766,2-5.983,2-5.983s-1.175,8.7,2.038,8.7c1.174,0,2.349-2.016,2.875-3.05v.017s.025-.067.088-.2c.125-.25.188-.4.188-.4V81.1c.475-1.083,1.513-3.566,3.074-7.666,2.025-5.3,3.961-11.916,3.961-11.916a43.1,43.1,0,0,0,.775,4.3,47.918,47.918,0,0,0,1.675,5c-.475.867-.763,1.367-.763,1.367a.059.059,0,0,0,.013.033c-.375.667-.8,1.383-1.238,2.083a59.506,59.506,0,0,0-3.75,6.266,2.077,2.077,0,0,0,.35,2.283,2.4,2.4,0,0,0,1.961.417,6.963,6.963,0,0,0,2.938-.9A9.739,9.739,0,0,0,49.942,80.6a8.569,8.569,0,0,0,2.425-6.633,17.593,17.593,0,0,0-.913-4.7c.138-.267.288-.55.425-.833a99.69,99.69,0,0,0,4.386-10.1,43.1,43.1,0,0,0,.775,4.3,35.039,35.039,0,0,0,1.424,4.283A18.787,18.787,0,0,0,54.2,74.265c-.925,3.55-.2,5.15,1.163,5.516A3.327,3.327,0,0,0,57.5,79.2a9.351,9.351,0,0,0,2.7-1.85,8.744,8.744,0,0,0,2.974-6.6,15.942,15.942,0,0,0-.675-3.9,11.793,11.793,0,0,1,7.761-1.2c6.96,1.083,8.323,6.883,8.06,9.3a6.268,6.268,0,0,1-2.213,4.166c-.488.4-.638.55-.6.85.063.433.288.417.7.317.575-.133,3.649-1.967,3.786-6.449.2-5.666-3.886-11.9-11.125-11.849ZM15.227,86.1c-2.3,3.35-5.524,4.616-6.91,3.55C6.829,88.5,7.417,83.568,10.253,80a40.078,40.078,0,0,1,5.424-5.4c.338-.267.825-.667,1.425-1.15.1-.083.15-.117.15-.117.113-.1.238-.183.363-.283A16.576,16.576,0,0,1,15.227,86.1Zm16.8-15.232c-.8,2.616-2.486,9.283-3.511,8.933-.875-.3-1.413-5.383-.175-10.382a25.987,25.987,0,0,1,2.738-6.683c1.261-1.883,2.649-2.483,2.974-1.733.438.983-1.525,8.233-2.025,9.866ZM45.9,79.7c-.338.233-.65.383-.8.267-.112-.083.138-.4.138-.4s1.738-2.483,2.425-3.616c.4-.667.863-1.45,1.361-2.316,0,.083.013.167.013.267a7.86,7.86,0,0,1-3.14,5.8Zm10.7-3.25c-.25-.233-.213-1.017.625-3.45A13.279,13.279,0,0,1,59.6,68.919a7.861,7.861,0,0,1,.237,1.8c-.012,3.75-2.025,5.15-3.236,5.733Z" transform="translate(724.996 4929.996)"/><text transform="translate(733 5058)" font-size="20" font-family="Roboto-Regular, Roboto"><tspan x="0" y="0">SASS</tspan></text><path d="M69.806,57.937q-1.352-.482-2.7-.911c.15-.661.284-1.321.417-1.982,2.053-10.642.7-19.2-3.856-22.017-4.39-2.7-11.551.107-18.8,6.857-.718.661-1.419,1.357-2.086,2.053-.451-.464-.918-.929-1.385-1.375C33.8,33.349,26.19,30.314,21.633,33.153c-4.373,2.714-5.675,10.767-3.839,20.838.184,1,.384,1.982.618,2.982-1.068.321-2.12.679-3.1,1.054C6.393,61.33,0,66.544,0,71.937,0,77.508,6.81,83.1,16.074,86.489c.751.268,1.5.536,2.27.768-.25,1.071-.467,2.125-.668,3.214-1.753,9.91-.384,17.767,3.989,20.463,4.507,2.786,12.085-.071,19.463-6.982.584-.554,1.168-1.125,1.753-1.732.734.768,1.5,1.5,2.27,2.214,7.144,6.571,14.2,9.232,18.561,6.535,4.507-2.786,5.976-11.232,4.073-21.517q-.225-1.179-.5-2.411c.534-.161,1.052-.339,1.569-.518,9.631-3.411,16.609-8.928,16.609-14.589C85.463,66.526,78.886,61.277,69.806,57.937ZM47.222,42.778c6.209-5.785,12-8.053,14.639-6.428,2.821,1.732,3.906,8.732,2.137,17.928-.117.607-.234,1.2-.384,1.786A80.31,80.31,0,0,0,52.379,54.17a89.444,89.444,0,0,0-7.111-9.482C45.92,44.027,46.554,43.4,47.222,42.778ZM27.909,81.2c.851,1.553,1.719,3.107,2.637,4.625A71.058,71.058,0,0,1,22.8,84.49c.734-2.571,1.653-5.232,2.721-7.946.768,1.571,1.552,3.125,2.387,4.66ZM22.851,59.723c2.4-.571,4.958-1.036,7.612-1.393-.885,1.482-1.753,3-2.571,4.535-.818,1.518-1.619,3.071-2.37,4.643-1.052-2.661-1.936-5.268-2.671-7.785Zm4.574,12.3c1.1-2.464,2.3-4.875,3.572-7.25S33.634,60.1,35.07,57.83c2.5-.2,5.058-.3,7.662-.3s5.175.107,7.662.3q2.128,3.375,4.056,6.91t3.622,7.214q-1.678,3.7-3.605,7.285c-1.269,2.375-2.621,4.678-4.039,6.964-2.487.2-5.074.286-7.695.286s-5.158-.089-7.612-.25q-2.178-3.4-4.106-6.964c-1.285-2.375-2.47-4.785-3.589-7.25Zm30.146,9.142c.851-1.571,1.653-3.161,2.437-4.768,1.068,2.589,2,5.214,2.821,7.91a68.958,68.958,0,0,1-7.845,1.429c.9-1.5,1.753-3.036,2.587-4.571Zm2.4-13.66c-.785-1.571-1.586-3.143-2.42-4.678Q56.327,60.553,55,58.33a72.271,72.271,0,0,1,7.662,1.428C61.894,62.4,60.992,64.973,59.974,67.508ZM42.765,47.42a77.516,77.516,0,0,1,4.941,6.393c-3.305-.161-6.627-.161-9.932,0C39.41,51.509,41.1,49.366,42.765,47.42ZM23.4,36.474c2.8-1.75,9.03.75,15.59,6.964.417.393.835.821,1.269,1.25A89.881,89.881,0,0,0,33.1,54.17a82.681,82.681,0,0,0-11.217,1.857c-.217-.911-.4-1.839-.584-2.768-1.569-8.642-.534-15.16,2.1-16.785Zm-4.09,47.069c-.7-.214-1.385-.446-2.07-.7A33.211,33.211,0,0,1,6.727,77.276a8.1,8.1,0,0,1-3.138-5.339c0-3.268,5.275-7.446,12.886-10.285.951-.357,1.92-.679,2.888-.982a99.087,99.087,0,0,0,4.09,11.357A101.869,101.869,0,0,0,19.313,83.543Zm19.463,17.5a30.331,30.331,0,0,1-9.414,6.3,6.95,6.95,0,0,1-5.892.232c-2.654-1.643-3.756-7.946-2.253-16.428.184-1,.384-2,.618-2.982a78.418,78.418,0,0,0,11.334,1.75,93.35,93.35,0,0,0,7.211,9.535c-.534.554-1.068,1.089-1.6,1.589Zm4.09-4.339c-1.7-1.964-3.405-4.143-5.058-6.482,1.6.071,3.255.107,4.924.107,1.719,0,3.405-.036,5.074-.125A76.247,76.247,0,0,1,42.865,96.7Zm21.816,5.357a8.116,8.116,0,0,1-2.754,5.589c-2.654,1.643-8.313-.5-14.422-6.107-.7-.643-1.4-1.339-2.12-2.053a87.729,87.729,0,0,0,7.044-9.571,77.317,77.317,0,0,0,11.384-1.875c.167.732.317,1.464.451,2.178a34.775,34.775,0,0,1,.417,11.839Zm3.038-19.2c-.467.161-.935.321-1.419.464a94.506,94.506,0,0,0-4.256-11.392,94.145,94.145,0,0,0,4.09-11.232c.868.268,1.7.554,2.5.839C76.416,64.4,81.874,68.651,81.874,71.9,81.874,75.4,76.049,79.918,67.719,82.865ZM42.731,80.186a8.2,8.2,0,0,0,0-16.356,8.2,8.2,0,0,0,0,16.356Z" transform="translate(1292.269 4721.987)"/><text transform="translate(1310 4867)" font-size="20" font-family="Roboto-Regular, Roboto"><tspan x="0" y="0">React</tspan></text><path d="M26.758,72.416c0,.331-.371.6-.839.6-.532.05-.9-.215-.9-.6,0-.331.371-.6.839-.6C26.339,71.771,26.758,72.035,26.758,72.416Zm-5.016-.744c-.113.331.21.711.694.811a.748.748,0,0,0,1-.331c.1-.331-.21-.711-.694-.86a.819.819,0,0,0-1,.38Zm7.129-.281c-.468.116-.79.43-.742.811.048.331.468.546.952.43.468-.116.79-.43.742-.761C29.774,71.556,29.339,71.341,28.871,71.39ZM39.484,8C17.113,8,0,25.419,0,48.363,0,66.709,11.258,82.407,27.339,87.933c2.065.38,2.79-.926,2.79-2,0-1.026-.048-6.683-.048-10.157,0,0-11.29,2.481-13.661-4.93,0,0-1.839-4.814-4.484-6.055,0,0-3.694-2.6.258-2.548a8.479,8.479,0,0,1,6.226,4.268c3.532,6.385,9.452,4.549,11.758,3.457a9.286,9.286,0,0,1,2.581-5.575c-9.016-1.026-18.113-2.366-18.113-18.279,0-4.549,1.226-6.832,3.806-9.743a16,16,0,0,1,.419-11.232C22.242,24.063,30,29.6,30,29.6a37.186,37.186,0,0,1,20.258,0s7.758-5.558,11.129-4.466a16,16,0,0,1,.419,11.232c2.581,2.928,4.161,5.211,4.161,9.743,0,15.963-9.5,17.237-18.516,18.279,1.484,1.307,2.742,3.788,2.742,7.676,0,5.575-.048,12.473-.048,13.829,0,1.075.742,2.382,2.79,2C69.065,82.407,80,66.709,80,48.363,80,25.419,61.855,8,39.484,8ZM15.677,65.055c-.21.165-.161.546.113.86.258.265.629.38.839.165.21-.165.161-.546-.113-.86C16.258,64.955,15.887,64.839,15.677,65.055Zm-1.742-1.34c-.113.215.048.48.371.645A.473.473,0,0,0,15,64.244c.113-.215-.048-.48-.371-.645C14.306,63.5,14.048,63.549,13.935,63.715ZM19.161,69.6c-.258.215-.161.711.21,1.026.371.38.839.43,1.048.165.21-.215.113-.711-.21-1.026C19.855,69.389,19.371,69.339,19.161,69.6Zm-1.839-2.432c-.258.165-.258.6,0,.976s.694.546.9.38a.769.769,0,0,0,0-1.026c-.226-.38-.645-.546-.9-.331Z" transform="translate(911 4938)"/><text transform="translate(921 5059)" font-size="20" font-family="Roboto-Regular, Roboto"><tspan x="0" y="0">GitHub</tspan></text><path d="M78.49,68.441,43.571,33.512a5.155,5.155,0,0,0-7.287,0l-7.261,7.255,9.2,9.2a6.121,6.121,0,0,1,7.748,7.8l8.868,8.868a6.132,6.132,0,0,1,6.334,10.123c-4.73,4.73-12.537-.512-10-6.668L42.9,61.825V83.584c4.518,2.239,3.975,7.473,1.621,9.822a6.128,6.128,0,1,1-6.661-10V61.441A6.125,6.125,0,0,1,34.528,53.4l-9.07-9.08L1.508,68.278a5.154,5.154,0,0,0,0,7.288L36.438,110.5a5.153,5.153,0,0,0,7.286,0L78.49,75.728A5.154,5.154,0,0,0,78.49,68.441Z" transform="translate(1102.001 4908.997)"/><text transform="translate(1130 5054)" font-size="20" font-family="Roboto-Regular, Roboto"><tspan x="0" y="0">Git</tspan></text><text transform="translate(1293 5054)" font-size="20" font-family="Roboto-Regular, Roboto"><tspan x="0" y="0">Bootstrap</tspan></text><g transform="translate(-2.42 801)"><path d="M12.75,0H2.25A2.251,2.251,0,0,0,0,2.25v19.5A2.251,2.251,0,0,0,2.25,24h10.5A2.251,2.251,0,0,0,15,21.75V2.25A2.251,2.251,0,0,0,12.75,0ZM7.5,22.5A1.5,1.5,0,1,1,9,21,1.5,1.5,0,0,1,7.5,22.5Zm5.25-5.062a.564.564,0,0,1-.562.563H2.813a.564.564,0,0,1-.562-.562V2.813a.564.564,0,0,1,.563-.562h9.375a.564.564,0,0,1,.563.563Z" transform="translate(737 4368)"/><path d="M17.41,0H3.072A2.938,2.938,0,0,0,0,2.78V26.875a2.938,2.938,0,0,0,3.072,2.78H17.41a2.938,2.938,0,0,0,3.072-2.78V2.78A2.938,2.938,0,0,0,17.41,0ZM10.241,27.8a1.863,1.863,0,1,1,0-3.707,1.863,1.863,0,1,1,0,3.707Zm7.169-6.255a.736.736,0,0,1-.768.7H3.84a.736.736,0,0,1-.768-.7V3.475a.736.736,0,0,1,.768-.7h12.8a.736.736,0,0,1,.768.7Z" transform="translate(767.358 4350.345)"/></g><text transform="translate(713 5226)" font-size="20" font-family="Roboto-Regular, Roboto"><tspan x="0" y="0">Responsive</tspan></text><text transform="translate(733 5257)" font-size="20" font-family="Roboto-Regular, Roboto"><tspan x="0" y="0">Design</tspan></text><path d="M81.063,64h32.7v80ZM58.3,64H25.6v80ZM69.68,93.6,90.246,144H76.28l-5.873-16H55.35Z" transform="translate(884.042 5074)"/><text transform="translate(912 5251)" font-size="20" font-family="Roboto-Regular, Roboto"><tspan x="0" y="0">Adobe XD</tspan></text><path d="M53.3,15.258A37.743,37.743,0,1,1,15.307,53,37.849,37.849,0,0,1,53.3,15.258M53.3,8A45,45,0,1,0,98.6,53,45.151,45.151,0,0,0,53.3,8Zm0,10.161A34.839,34.839,0,1,0,88.373,53,34.956,34.956,0,0,0,53.3,18.161Zm0,7.984a6.532,6.532,0,1,1-6.576,6.532A6.554,6.554,0,0,1,53.3,26.145ZM74.808,43.932a131.523,131.523,0,0,1-15,2.868c.155,18.331,2.248,22.328,4.573,28.238a3.259,3.259,0,0,1-1.866,4.231,3.3,3.3,0,0,1-4.259-1.854,51.821,51.821,0,0,1-4.066-14.253H52.417A51.806,51.806,0,0,1,48.35,77.414a3.3,3.3,0,0,1-4.259,1.854,3.259,3.259,0,0,1-1.866-4.231c2.322-5.9,4.418-9.9,4.573-28.238a131.452,131.452,0,0,1-15-2.868,2.9,2.9,0,1,1,1.343-5.651c17.661,4.142,22.7,4.134,40.328,0a2.9,2.9,0,1,1,1.343,5.651Z" transform="translate(1089.199 5125)"/><text transform="translate(1091 5251)" font-size="20" font-family="Roboto-Regular, Roboto"><tspan x="0" y="0">Accessibility</tspan></text><path d="M52.2,81.987c0,7.573-7.093,7.4-7.843,7.4H29.909V74.8H44.354C51.954,74.8,52.2,80.495,52.2,81.987ZM43.241,68.929c.12,0,6.864.179,6.864-6.484,0-2.771-.627-6.405-6.864-6.405H29.909V68.929ZM80,45.334V98.666A13.373,13.373,0,0,1,66.666,112H13.334A13.373,13.373,0,0,1,0,98.666V45.334A13.373,13.373,0,0,1,13.334,32H66.666A13.373,13.373,0,0,1,80,45.334ZM60.366,83.046c0-3.852-1.187-10.409-8.759-12.027v-.13a10.231,10.231,0,0,0,6.668-9.936c0-1.25.357-11.568-13.857-11.568H21.739V96.052c22.9,0,24.977.3,29.214-1.02C53.491,94.243,60.366,91.821,60.366,83.046Z" transform="translate(1293 4914)"/><text transform="translate(1312 5251)" font-size="20" font-family="Roboto-Regular, Roboto"><tspan x="0" y="0">Java</tspan></text></g><path d="M56.165,55A32.544,32.544,0,0,1,60.7,52.8S53.2,54.034,45.747,54.6c-9.121.686-18.919.826-23.837.229-11.638-1.406,6.39-5.291,6.39-5.291a37.306,37.306,0,0,0-15.607,3.34C2.527,57.339,37.866,59.378,56.165,55ZM39.628,49.359c-3.679-7.506-16.092-14.1,0-25.629C59.7,9.351,49.407,0,49.407,0,53.57,14.853,34.768,19.353,27.971,28.582,23.343,34.892,30.237,41.66,39.628,49.359ZM61.82,18.386c.019,0-33.926,7.7-17.718,24.644,4.783,4.992-1.259,9.492-1.259,9.492s12.141-5.7,6.564-12.814C44.2,33.064,40.209,29.759,61.82,18.386ZM60.638,65.935a2.181,2.181,0,0,1-.387.457c24.844-5.924,15.7-20.9,3.834-17.1A3.336,3.336,0,0,0,62.5,50.4a14.751,14.751,0,0,1,2.13-.527c6-1.143,14.62,7.295-3.989,16.066Zm9.132,10.951s2.808,2.092-3.079,3.727c-11.212,3.076-46.629,4.008-56.466.123-3.544-1.389,3.1-3.34,5.19-3.744a15.431,15.431,0,0,1,3.427-.352c-3.931-2.514-25.425,4.939-10.921,7.066C47.471,89.542,80.034,81.087,69.771,76.886ZM26.48,69.608c-15.24,3.867,9.275,11.848,28.678,4.307A37.642,37.642,0,0,1,49.7,71.489c-8.656,1.494-12.664,1.6-20.526.791C22.685,71.612,26.48,69.608,26.48,69.608ZM61.3,86.694a161.516,161.516,0,0,1-45.177.633c0-.018,2.285,1.705,14.02,2.391,17.854,1.037,45.273-.58,45.912-8.244C76.052,81.474,74.813,84.374,61.3,86.694ZM52.854,62.05a87.972,87.972,0,0,1-26.49,1.16c-6.487-.615-2.246-3.463-2.246-3.463C7.31,64.81,33.451,70.54,56.94,64.3a11.962,11.962,0,0,1-4.086-2.25Z" transform="translate(810.253 5029)"/></g></svg>